<svg width="331" height="331" viewBox="0 0 331 331" fill="none" xmlns="http://www.w3.org/2000/svg">
<path d="M255.104 228.275L257.117 141.655C256.072 132.253 258.101 116.552 240.546 112.286C224.61 108.414 208.257 129.195 208.257 129.195L175.722 74.4409C167.887 62.5251 153.07 63.9591 147.429 67.402C139.385 72.3119 137.211 81.2181 137.211 81.2181C137.211 81.2181 138.334 81.2181 132.201 72.3289C126.068 63.4398 113.24 61.6594 103.837 67.3995C91.4 74.9906 92.0382 91.1578 97.6141 100.532C97.0866 99.9621 90.2079 96.609 79.1085 102.714C69.4112 108.047 68.041 123.159 71.7583 131.401C75.4756 139.644 76.5223 141.826 76.5223 141.826C76.5223 141.826 67.8246 139.612 59.478 145.22C51.6559 150.476 48.6465 163.402 54.7973 176.332C54.7973 176.332 67.3919 204.293 77.5741 223.041C87.7562 241.789 103.595 267.002 103.595 267.002C132.202 311.771 186.445 317.707 219.461 297.651C241.973 283.975 257.248 255.076 255.104 228.275Z" fill="url(#paint0_linear_22_91)"/>
<path d="M255.104 228.275L257.117 141.655C256.072 132.253 258.101 116.552 240.546 112.286C224.61 108.414 208.257 129.195 208.257 129.195L175.722 74.4409C167.887 62.5251 153.07 63.9591 147.429 67.402C139.385 72.3119 137.211 81.2181 137.211 81.2181C137.211 81.2181 138.334 81.2181 132.201 72.3289C126.068 63.4398 113.24 61.6594 103.837 67.3995C91.4 74.9906 92.0382 91.1578 97.6141 100.532C97.0866 99.9621 90.2079 96.609 79.1085 102.714C69.4112 108.047 68.041 123.159 71.7583 131.401C75.4756 139.644 76.5223 141.826 76.5223 141.826C76.5223 141.826 67.8246 139.612 59.478 145.22C51.6559 150.476 48.6465 163.402 54.7973 176.332C54.7973 176.332 67.3919 204.293 77.5741 223.041C87.7562 241.789 103.595 267.002 103.595 267.002C132.202 311.771 186.445 317.707 219.461 297.651C241.973 283.975 257.248 255.076 255.104 228.275Z" fill="url(#paint1_radial_22_91)"/>
<path d="M255.104 228.275L257.117 141.655C256.072 132.253 258.101 116.552 240.546 112.286C224.61 108.414 208.257 129.195 208.257 129.195L175.722 74.4409C167.887 62.5251 153.07 63.9591 147.429 67.402C139.385 72.3119 137.211 81.2181 137.211 81.2181C137.211 81.2181 138.334 81.2181 132.201 72.3289C126.068 63.4398 113.24 61.6594 103.837 67.3995C91.4 74.9906 92.0382 91.1578 97.6141 100.532C97.0866 99.9621 90.2079 96.609 79.1085 102.714C69.4112 108.047 68.041 123.159 71.7583 131.401C75.4756 139.644 76.5223 141.826 76.5223 141.826C76.5223 141.826 67.8246 139.612 59.478 145.22C51.6559 150.476 48.6465 163.402 54.7973 176.332C54.7973 176.332 67.3919 204.293 77.5741 223.041C87.7562 241.789 103.595 267.002 103.595 267.002C132.202 311.771 186.445 317.707 219.461 297.651C241.973 283.975 257.248 255.076 255.104 228.275Z" fill="url(#paint2_radial_22_91)"/>
<path d="M255.104 228.275L257.117 141.655C256.072 132.253 258.101 116.552 240.546 112.286C224.61 108.414 208.257 129.195 208.257 129.195L175.722 74.4409C167.887 62.5251 153.07 63.9591 147.429 67.402C139.385 72.3119 137.211 81.2181 137.211 81.2181C137.211 81.2181 138.334 81.2181 132.201 72.3289C126.068 63.4398 113.24 61.6594 103.837 67.3995C91.4 74.9906 92.0382 91.1578 97.6141 100.532C97.0866 99.9621 90.2079 96.609 79.1085 102.714C69.4112 108.047 68.041 123.159 71.7583 131.401C75.4756 139.644 76.5223 141.826 76.5223 141.826C76.5223 141.826 67.8246 139.612 59.478 145.22C51.6559 150.476 48.6465 163.402 54.7973 176.332C54.7973 176.332 67.3919 204.293 77.5741 223.041C87.7562 241.789 103.595 267.002 103.595 267.002C132.202 311.771 186.445 317.707 219.461 297.651C241.973 283.975 257.248 255.076 255.104 228.275Z" fill="url(#paint3_radial_22_91)"/>
<path d="M79.9147 102.154C68.4479 108.081 68.5373 124.224 71.4281 130.841C74.3189 137.459 76.5661 141.807 76.5661 141.807C76.5661 141.807 84.3355 142.249 89.8608 150.388C89.8608 150.388 91.3625 152.07 101.909 174.23C101.909 174.23 131.363 196.977 135.249 193.777C146.086 184.854 138.016 170.495 136.9 167.361C133.347 157.384 117.283 122.846 109.748 111.285C102.212 99.7234 92.7606 95.5144 79.9147 102.154Z" fill="url(#paint4_radial_22_91)"/>
<path d="M79.9147 102.154C68.4479 108.081 68.5373 124.224 71.4281 130.841C74.3189 137.459 76.5661 141.807 76.5661 141.807C76.5661 141.807 84.3355 142.249 89.8608 150.388C89.8608 150.388 91.3625 152.07 101.909 174.23C101.909 174.23 131.363 196.977 135.249 193.777C146.086 184.854 138.016 170.495 136.9 167.361C133.347 157.384 117.283 122.846 109.748 111.285C102.212 99.7234 92.7606 95.5144 79.9147 102.154Z" fill="url(#paint5_radial_22_91)"/>
<path d="M79.9147 102.154C68.4479 108.081 68.5373 124.224 71.4281 130.841C74.3189 137.459 76.5661 141.807 76.5661 141.807C76.5661 141.807 84.3355 142.249 89.8608 150.388C89.8608 150.388 91.3625 152.07 101.909 174.23C101.909 174.23 131.363 196.977 135.249 193.777C146.086 184.854 138.016 170.495 136.9 167.361C133.347 157.384 117.283 122.846 109.748 111.285C102.212 99.7234 92.7606 95.5144 79.9147 102.154Z" fill="url(#paint6_radial_22_91)"/>
<path d="M104.331 67.0391C92.2902 73.2742 92.5459 89.2139 95.4367 95.8312C98.3275 102.448 97.5322 100.124 97.5322 100.124C97.5322 100.124 106.421 103.761 112.967 116.771C112.967 116.771 114.381 119.581 124.927 141.741C124.927 141.741 155.78 161.862 159.666 158.662C170.502 149.74 162.432 135.381 161.316 132.246C157.763 122.269 144.021 92.6631 136.083 77.9759C128.144 63.2887 116.375 60.802 104.331 67.0391Z" fill="url(#paint7_radial_22_91)"/>
<path d="M104.331 67.0391C92.2902 73.2742 92.5459 89.2139 95.4367 95.8312C98.3275 102.448 97.5322 100.124 97.5322 100.124C97.5322 100.124 106.421 103.761 112.967 116.771C112.967 116.771 114.381 119.581 124.927 141.741C124.927 141.741 155.78 161.862 159.666 158.662C170.502 149.74 162.432 135.381 161.316 132.246C157.763 122.269 144.021 92.6631 136.083 77.9759C128.144 63.2887 116.375 60.802 104.331 67.0391Z" fill="url(#paint8_radial_22_91)"/>
<path d="M104.331 67.0391C92.2902 73.2742 92.5459 89.2139 95.4367 95.8312C98.3275 102.448 97.5322 100.124 97.5322 100.124C97.5322 100.124 106.421 103.761 112.967 116.771C112.967 116.771 114.381 119.581 124.927 141.741C124.927 141.741 155.78 161.862 159.666 158.662C170.502 149.74 162.432 135.381 161.316 132.246C157.763 122.269 144.021 92.6631 136.083 77.9759C128.144 63.2887 116.375 60.802 104.331 67.0391Z" fill="url(#paint9_radial_22_91)"/>
<path d="M148.855 66.5929C136.487 72.1518 133.288 91.4366 136.566 97.871C139.843 104.305 141.423 103.519 141.423 103.519C141.423 103.519 150.512 106.622 157.817 119.222C157.817 119.222 159.395 121.943 171.236 143.44C171.236 143.44 203.227 161.696 206.916 158.272C217.205 148.723 208.298 134.867 206.998 131.805C202.86 122.056 188.601 102.715 181.173 83.4749C173.745 64.2348 157.803 62.5708 148.855 66.5929Z" fill="#9B6B69"/>
<path d="M303.085 225.692C301.259 193.395 300.034 180.601 301.098 164.945C302.161 149.289 310.132 116.253 284.363 112.771C260.08 109.489 257.127 135.412 257.127 135.412C257.127 135.412 228.295 87.9971 218.194 77.6463C208.092 67.2954 197.307 68.1833 189.183 73.1425C181.058 78.1018 179.97 88.7221 179.97 88.7221C179.97 88.7221 174.879 83.1461 168.818 77.651C162.758 72.1559 152.01 70.2164 143.686 75.1459C136.936 79.1436 128.252 90.3383 137.06 104.884C137.06 104.884 130.604 103.566 123.08 108.925C114.689 114.9 113.302 129.047 117.1 135.188C120.898 141.33 123.809 145.459 123.809 145.459C123.809 145.459 118.536 142.571 107.486 149.984C101.428 154.048 96.1617 167.595 104.248 179.878C112.333 192.161 121.059 202.026 131.565 217.703C142.07 233.381 169.869 277.342 169.869 277.342C192.658 307.08 234.8 318.529 268.148 298.272C290.886 284.459 304.912 257.989 303.085 225.692Z" fill="url(#paint10_radial_22_91)"/>
<path d="M303.085 225.692C301.259 193.395 300.034 180.601 301.098 164.945C302.161 149.289 310.132 116.253 284.363 112.771C260.08 109.489 257.127 135.412 257.127 135.412C257.127 135.412 228.295 87.9971 218.194 77.6463C208.092 67.2954 197.307 68.1833 189.183 73.1425C181.058 78.1018 179.97 88.7221 179.97 88.7221C179.97 88.7221 174.879 83.1461 168.818 77.651C162.758 72.1559 152.01 70.2164 143.686 75.1459C136.936 79.1436 128.252 90.3383 137.06 104.884C137.06 104.884 130.604 103.566 123.08 108.925C114.689 114.9 113.302 129.047 117.1 135.188C120.898 141.33 123.809 145.459 123.809 145.459C123.809 145.459 118.536 142.571 107.486 149.984C101.428 154.048 96.1617 167.595 104.248 179.878C112.333 192.161 121.059 202.026 131.565 217.703C142.07 233.381 169.869 277.342 169.869 277.342C192.658 307.08 234.8 318.529 268.148 298.272C290.886 284.459 304.912 257.989 303.085 225.692Z" fill="url(#paint11_radial_22_91)"/>
<path d="M303.085 225.692C301.259 193.395 300.034 180.601 301.098 164.945C302.161 149.289 310.132 116.253 284.363 112.771C260.08 109.489 257.127 135.412 257.127 135.412C257.127 135.412 228.295 87.9971 218.194 77.6463C208.092 67.2954 197.307 68.1833 189.183 73.1425C181.058 78.1018 179.97 88.7221 179.97 88.7221C179.97 88.7221 174.879 83.1461 168.818 77.651C162.758 72.1559 152.01 70.2164 143.686 75.1459C136.936 79.1436 128.252 90.3383 137.06 104.884C137.06 104.884 130.604 103.566 123.08 108.925C114.689 114.9 113.302 129.047 117.1 135.188C120.898 141.33 123.809 145.459 123.809 145.459C123.809 145.459 118.536 142.571 107.486 149.984C101.428 154.048 96.1617 167.595 104.248 179.878C112.333 192.161 121.059 202.026 131.565 217.703C142.07 233.381 169.869 277.342 169.869 277.342C192.658 307.08 234.8 318.529 268.148 298.272C290.886 284.459 304.912 257.989 303.085 225.692Z" fill="url(#paint12_radial_22_91)"/>
<path d="M303.085 225.692C301.259 193.395 300.034 180.601 301.098 164.945C302.161 149.289 310.132 116.253 284.363 112.771C260.08 109.489 257.127 135.412 257.127 135.412C257.127 135.412 228.295 87.9971 218.194 77.6463C208.092 67.2954 197.307 68.1833 189.183 73.1425C181.058 78.1018 179.97 88.7221 179.97 88.7221C179.97 88.7221 174.879 83.1461 168.818 77.651C162.758 72.1559 152.01 70.2164 143.686 75.1459C136.936 79.1436 128.252 90.3383 137.06 104.884C137.06 104.884 130.604 103.566 123.08 108.925C114.689 114.9 113.302 129.047 117.1 135.188C120.898 141.33 123.809 145.459 123.809 145.459C123.809 145.459 118.536 142.571 107.486 149.984C101.428 154.048 96.1617 167.595 104.248 179.878C112.333 192.161 121.059 202.026 131.565 217.703C142.07 233.381 169.869 277.342 169.869 277.342C192.658 307.08 234.8 318.529 268.148 298.272C290.886 284.459 304.912 257.989 303.085 225.692Z" fill="url(#paint13_radial_22_91)"/>
<path d="M303.085 225.692C301.259 193.395 300.034 180.601 301.098 164.945C302.161 149.289 310.132 116.253 284.363 112.771C260.08 109.489 257.127 135.412 257.127 135.412C257.127 135.412 228.295 87.9971 218.194 77.6463C208.092 67.2954 197.307 68.1833 189.183 73.1425C181.058 78.1018 179.97 88.7221 179.97 88.7221C179.97 88.7221 174.879 83.1461 168.818 77.651C162.758 72.1559 152.01 70.2164 143.686 75.1459C136.936 79.1436 128.252 90.3383 137.06 104.884C137.06 104.884 130.604 103.566 123.08 108.925C114.689 114.9 113.302 129.047 117.1 135.188C120.898 141.33 123.809 145.459 123.809 145.459C123.809 145.459 118.536 142.571 107.486 149.984C101.428 154.048 96.1617 167.595 104.248 179.878C112.333 192.161 121.059 202.026 131.565 217.703C142.07 233.381 169.869 277.342 169.869 277.342C192.658 307.08 234.8 318.529 268.148 298.272C290.886 284.459 304.912 257.989 303.085 225.692Z" fill="url(#paint14_radial_22_91)"/>
<path d="M303.085 225.692C301.259 193.395 300.034 180.601 301.098 164.945C302.161 149.289 310.132 116.253 284.363 112.771C260.08 109.489 257.127 135.412 257.127 135.412C257.127 135.412 228.295 87.9971 218.194 77.6463C208.092 67.2954 197.307 68.1833 189.183 73.1425C181.058 78.1018 179.97 88.7221 179.97 88.7221C179.97 88.7221 174.879 83.1461 168.818 77.651C162.758 72.1559 152.01 70.2164 143.686 75.1459C136.936 79.1436 128.252 90.3383 137.06 104.884C137.06 104.884 130.604 103.566 123.08 108.925C114.689 114.9 113.302 129.047 117.1 135.188C120.898 141.33 123.809 145.459 123.809 145.459C123.809 145.459 118.536 142.571 107.486 149.984C101.428 154.048 96.1617 167.595 104.248 179.878C112.333 192.161 121.059 202.026 131.565 217.703C142.07 233.381 169.869 277.342 169.869 277.342C192.658 307.08 234.8 318.529 268.148 298.272C290.886 284.459 304.912 257.989 303.085 225.692Z" fill="url(#paint15_radial_22_91)"/>
<path d="M301.092 164.951C302.156 149.295 310.127 116.259 284.357 112.777C260.075 109.495 257.121 135.418 257.121 135.418L302.072 209.301C302.072 194.611 300.094 179.642 301.092 164.951Z" fill="url(#paint16_radial_22_91)"/>
<path d="M301.092 164.951C302.156 149.295 310.127 116.259 284.357 112.777C260.075 109.495 257.121 135.418 257.121 135.418L302.072 209.301C302.072 194.611 300.094 179.642 301.092 164.951Z" fill="url(#paint17_radial_22_91)"/>
<path d="M301.092 164.951C302.156 149.295 310.127 116.259 284.357 112.777C260.075 109.495 257.121 135.418 257.121 135.418L302.072 209.301C302.072 194.611 300.094 179.642 301.092 164.951Z" fill="url(#paint18_radial_22_91)"/>
<path d="M137.054 104.89C137.054 104.89 130.599 103.572 123.074 108.931C114.684 114.906 113.296 129.053 117.094 135.194C120.892 141.336 123.806 145.465 123.806 145.465C123.806 145.465 130.423 145.465 137.045 152.74C137.045 152.74 149.979 168.163 163.555 188.608C169.581 197.682 185.859 192.325 189.253 188.608C198.718 178.242 191.933 162.622 190.385 159.678C185.455 150.304 153.817 113.783 151.757 111.434C146.02 104.89 137.054 104.89 137.054 104.89Z" fill="url(#paint19_radial_22_91)"/>
<path d="M137.054 104.89C137.054 104.89 130.599 103.572 123.074 108.931C114.684 114.906 113.296 129.053 117.094 135.194C120.892 141.336 123.806 145.465 123.806 145.465C123.806 145.465 130.423 145.465 137.045 152.74C137.045 152.74 149.979 168.163 163.555 188.608C169.581 197.682 185.859 192.325 189.253 188.608C198.718 178.242 191.933 162.622 190.385 159.678C185.455 150.304 153.817 113.783 151.757 111.434C146.02 104.89 137.054 104.89 137.054 104.89Z" fill="url(#paint20_radial_22_91)"/>
<path d="M137.054 104.89C137.054 104.89 130.599 103.572 123.074 108.931C114.684 114.906 113.296 129.053 117.094 135.194C120.892 141.336 123.806 145.465 123.806 145.465C123.806 145.465 130.423 145.465 137.045 152.74C137.045 152.74 149.979 168.163 163.555 188.608C169.581 197.682 185.859 192.325 189.253 188.608C198.718 178.242 191.933 162.622 190.385 159.678C185.455 150.304 153.817 113.783 151.757 111.434C146.02 104.89 137.054 104.89 137.054 104.89Z" fill="url(#paint21_linear_22_91)"/>
<path d="M179.967 88.7283C179.967 88.7283 174.876 83.1524 168.815 77.6573C162.754 72.1621 152.006 70.2227 143.683 75.1521C136.933 79.1499 128.248 90.3446 137.057 104.89C137.057 104.89 145.469 104.89 150.964 110.545C150.964 110.545 174.785 136.689 189.753 159.355C199.137 173.565 227.932 164.932 224.179 147.96C222.277 139.36 182.965 92.6859 179.967 88.7283Z" fill="url(#paint22_radial_22_91)"/>
<path d="M179.967 88.7283C179.967 88.7283 174.876 83.1524 168.815 77.6573C162.754 72.1621 152.006 70.2227 143.683 75.1521C136.933 79.1499 128.248 90.3446 137.057 104.89C137.057 104.89 145.469 104.89 150.964 110.545C150.964 110.545 174.785 136.689 189.753 159.355C199.137 173.565 227.932 164.932 224.179 147.96C222.277 139.36 182.965 92.6859 179.967 88.7283Z" fill="url(#paint23_radial_22_91)"/>
<path d="M179.967 88.7283C179.967 88.7283 174.876 83.1524 168.815 77.6573C162.754 72.1621 152.006 70.2227 143.683 75.1521C136.933 79.1499 128.248 90.3446 137.057 104.89C137.057 104.89 145.469 104.89 150.964 110.545C150.964 110.545 174.785 136.689 189.753 159.355C199.137 173.565 227.932 164.932 224.179 147.96C222.277 139.36 182.965 92.6859 179.967 88.7283Z" fill="url(#paint24_linear_22_91)"/>
<path d="M267.806 153.459C262.796 143.843 228.29 88.0035 218.188 77.6526C208.087 67.3018 197.302 68.1897 189.177 73.1489C181.053 78.1081 179.965 88.7284 179.965 88.7284C186.546 96.9039 213.251 129.877 225.542 147.237C241.516 169.798 267.806 153.459 267.806 153.459Z" fill="url(#paint25_radial_22_91)"/>
<path d="M267.806 153.459C262.796 143.843 228.29 88.0035 218.188 77.6526C208.087 67.3018 197.302 68.1897 189.177 73.1489C181.053 78.1081 179.965 88.7284 179.965 88.7284C186.546 96.9039 213.251 129.877 225.542 147.237C241.516 169.798 267.806 153.459 267.806 153.459Z" fill="url(#paint26_radial_22_91)"/>
<path d="M267.806 153.459C262.796 143.843 228.29 88.0035 218.188 77.6526C208.087 67.3018 197.302 68.1897 189.177 73.1489C181.053 78.1081 179.965 88.7284 179.965 88.7284C186.546 96.9039 213.251 129.877 225.542 147.237C241.516 169.798 267.806 153.459 267.806 153.459Z" fill="url(#paint27_linear_22_91)"/>
<path d="M267.806 153.459C262.796 143.843 228.29 88.0035 218.188 77.6526C208.087 67.3018 197.302 68.1897 189.177 73.1489C181.053 78.1081 179.965 88.7284 179.965 88.7284C186.546 96.9039 213.251 129.877 225.542 147.237C241.516 169.798 267.806 153.459 267.806 153.459Z" fill="url(#paint28_radial_22_91)"/>
<path d="M69.1879 80.7648L50.2451 72.821C47.2917 71.5989 46.4769 67.8307 48.7175 65.4883L58.5962 54.9985C60.7349 52.6561 64.605 53.2672 66.0308 56.1188L75.0948 74.5523C76.8261 78.3205 73.0579 82.3942 69.1879 80.7648Z" fill="#15803D"/>
<path d="M69.1879 80.7648L50.2451 72.821C47.2917 71.5989 46.4769 67.8307 48.7175 65.4883L58.5962 54.9985C60.7349 52.6561 64.605 53.2672 66.0308 56.1188L75.0948 74.5523C76.8261 78.3205 73.0579 82.3942 69.1879 80.7648Z" fill="url(#paint29_linear_22_91)"/>
<path d="M69.1879 80.7648L50.2451 72.821C47.2917 71.5989 46.4769 67.8307 48.7175 65.4883L58.5962 54.9985C60.7349 52.6561 64.605 53.2672 66.0308 56.1188L75.0948 74.5523C76.8261 78.3205 73.0579 82.3942 69.1879 80.7648Z" fill="url(#paint30_linear_22_91)"/>
<path d="M69.1879 80.7648L50.2451 72.821C47.2917 71.5989 46.4769 67.8307 48.7175 65.4883L58.5962 54.9985C60.7349 52.6561 64.605 53.2672 66.0308 56.1188L75.0948 74.5523C76.8261 78.3205 73.0579 82.3942 69.1879 80.7648Z" fill="url(#paint31_linear_22_91)"/>
<path d="M94.3907 63.4902L82.3546 47.1966C80.4802 44.6507 81.664 40.9845 84.6237 40.068L98.041 35.8929C101.001 34.9763 103.96 37.4203 103.763 40.5772L102.382 61.0463C101.987 65.2215 96.8571 66.8508 94.3907 63.4902Z" fill="#15803D"/>
<path d="M94.3907 63.4902L82.3546 47.1966C80.4802 44.6507 81.664 40.9845 84.6237 40.068L98.041 35.8929C101.001 34.9763 103.96 37.4203 103.763 40.5772L102.382 61.0463C101.987 65.2215 96.8571 66.8508 94.3907 63.4902Z" fill="url(#paint32_linear_22_91)"/>
<path d="M94.3907 63.4902L82.3546 47.1966C80.4802 44.6507 81.664 40.9845 84.6237 40.068L98.041 35.8929C101.001 34.9763 103.96 37.4203 103.763 40.5772L102.382 61.0463C101.987 65.2215 96.8571 66.8508 94.3907 63.4902Z" fill="url(#paint33_linear_22_91)"/>
<path d="M94.3907 63.4902L82.3546 47.1966C80.4802 44.6507 81.664 40.9845 84.6237 40.068L98.041 35.8929C101.001 34.9763 103.96 37.4203 103.763 40.5772L102.382 61.0463C101.987 65.2215 96.8571 66.8508 94.3907 63.4902Z" fill="url(#paint34_linear_22_91)"/>
<path d="M58.4422 108.164L37.9509 110.833C34.7747 111.243 32.2133 108.369 32.9305 105.187L36.3116 91.0221C37.0288 87.9427 40.7172 86.5058 43.3811 88.2507L60.4913 99.747C63.9749 102.211 62.6429 107.651 58.4422 108.164Z" fill="#15803D"/>
<path d="M58.4422 108.164L37.9509 110.833C34.7747 111.243 32.2133 108.369 32.9305 105.187L36.3116 91.0221C37.0288 87.9427 40.7172 86.5058 43.3811 88.2507L60.4913 99.747C63.9749 102.211 62.6429 107.651 58.4422 108.164Z" fill="url(#paint35_linear_22_91)"/>
<path d="M58.4422 108.164L37.9509 110.833C34.7747 111.243 32.2133 108.369 32.9305 105.187L36.3116 91.0221C37.0288 87.9427 40.7172 86.5058 43.3811 88.2507L60.4913 99.747C63.9749 102.211 62.6429 107.651 58.4422 108.164Z" fill="url(#paint36_linear_22_91)"/>
<path d="M58.4422 108.164L37.9509 110.833C34.7747 111.243 32.2133 108.369 32.9305 105.187L36.3116 91.0221C37.0288 87.9427 40.7172 86.5058 43.3811 88.2507L60.4913 99.747C63.9749 102.211 62.6429 107.651 58.4422 108.164Z" fill="url(#paint37_linear_22_91)"/>
<defs>
<linearGradient id="paint0_linear_22_91" x1="190.061" y1="314.199" x2="127.999" y2="161.629" gradientUnits="userSpaceOnUse">
<stop offset="0.122196" stop-color="#93596D"/>
<stop offset="1" stop-color="#9D6B6B"/>
</linearGradient>
<radialGradient id="paint1_radial_22_91" cx="0" cy="0" r="1" gradientUnits="userSpaceOnUse" gradientTransform="translate(78.2196 153.871) rotate(76.185) scale(40.6103 34.1475)">
<stop offset="0.126711" stop-color="#B18975"/>
<stop offset="1" stop-color="#9C696C" stop-opacity="0"/>
</radialGradient>
<radialGradient id="paint2_radial_22_91" cx="0" cy="0" r="1" gradientUnits="userSpaceOnUse" gradientTransform="translate(169.374 193.953) rotate(59.3715) scale(133.238 76.829)">
<stop offset="0.505939" stop-color="#7A4A42"/>
<stop offset="1" stop-color="#955B6D" stop-opacity="0"/>
</radialGradient>
<radialGradient id="paint3_radial_22_91" cx="0" cy="0" r="1" gradientUnits="userSpaceOnUse" gradientTransform="translate(247.275 124.133) rotate(96.3402) scale(29.2708 24.6126)">
<stop stop-color="#986567"/>
<stop offset="1" stop-color="#986567" stop-opacity="0"/>
</radialGradient>
<radialGradient id="paint4_radial_22_91" cx="0" cy="0" r="1" gradientUnits="userSpaceOnUse" gradientTransform="translate(95.6696 113.125) rotate(55.6197) scale(44.6496 38.5872)">
<stop offset="0.186792" stop-color="#B18975"/>
<stop offset="0.82956" stop-color="#986369"/>
</radialGradient>
<radialGradient id="paint5_radial_22_91" cx="0" cy="0" r="1" gradientUnits="userSpaceOnUse" gradientTransform="translate(120.882 139.631) rotate(88.977) scale(36.2089 32.5334)">
<stop offset="0.0267379" stop-color="#603627"/>
<stop offset="1" stop-color="#925D63" stop-opacity="0"/>
</radialGradient>
<radialGradient id="paint6_radial_22_91" cx="0" cy="0" r="1" gradientUnits="userSpaceOnUse" gradientTransform="translate(89.2047 162.904) rotate(60.8324) scale(95.507 38.6525)">
<stop offset="0.161122" stop-color="#603627"/>
<stop offset="0.344055" stop-color="#98626A" stop-opacity="0"/>
</radialGradient>
<radialGradient id="paint7_radial_22_91" cx="0" cy="0" r="1" gradientUnits="userSpaceOnUse" gradientTransform="translate(122.842 76.9392) rotate(56.3099) scale(44.2877 38.2833)">
<stop offset="0.186792" stop-color="#B18975"/>
<stop offset="0.82956" stop-color="#8C5B5A" stop-opacity="0"/>
</radialGradient>
<radialGradient id="paint8_radial_22_91" cx="0" cy="0" r="1" gradientUnits="userSpaceOnUse" gradientTransform="translate(134.479 106.677) rotate(65.7723) scale(28.357 18.9747)">
<stop offset="0.0267379" stop-color="#6A3E34"/>
<stop offset="1" stop-color="#905E5D" stop-opacity="0"/>
</radialGradient>
<radialGradient id="paint9_radial_22_91" cx="0" cy="0" r="1" gradientUnits="userSpaceOnUse" gradientTransform="translate(106.034 120.254) rotate(62.0302) scale(106.138 42.9853)">
<stop offset="0.161122" stop-color="#7A4B46"/>
<stop offset="0.290305" stop-color="#98646A" stop-opacity="0"/>
</radialGradient>
<radialGradient id="paint10_radial_22_91" cx="0" cy="0" r="1" gradientUnits="userSpaceOnUse" gradientTransform="translate(231.436 156.443) rotate(57.1596) scale(338.56 212.669)">
<stop offset="0.174074" stop-color="#FCCCA8"/>
<stop offset="0.456741" stop-color="#DDA385"/>
<stop offset="0.730967" stop-color="#C78981"/>
</radialGradient>
<radialGradient id="paint11_radial_22_91" cx="0" cy="0" r="1" gradientUnits="userSpaceOnUse" gradientTransform="translate(290.59 175.514) rotate(90) scale(77.5781 19.0713)">
<stop stop-color="#FFCFAB"/>
<stop offset="1" stop-color="#FFCFAB" stop-opacity="0"/>
</radialGradient>
<radialGradient id="paint12_radial_22_91" cx="0" cy="0" r="1" gradientUnits="userSpaceOnUse" gradientTransform="translate(138.989 173.251) rotate(53.6606) scale(69.8233 15.4982)">
<stop stop-color="#FCCBA8"/>
<stop offset="1" stop-color="#FCCBA8" stop-opacity="0"/>
</radialGradient>
<radialGradient id="paint13_radial_22_91" cx="0" cy="0" r="1" gradientUnits="userSpaceOnUse" gradientTransform="translate(193.617 160.645) rotate(53.3659) scale(31.4194 16.9401)">
<stop stop-color="#E8B290"/>
<stop offset="1" stop-color="#F3BF9D" stop-opacity="0"/>
</radialGradient>
<radialGradient id="paint14_radial_22_91" cx="0" cy="0" r="1" gradientUnits="userSpaceOnUse" gradientTransform="translate(151.272 93.0874) rotate(72.7725) scale(349.255 296.96)">
<stop offset="0.63763" stop-color="#CE8F89" stop-opacity="0"/>
<stop offset="0.703717" stop-color="#CE8F89"/>
</radialGradient>
<radialGradient id="paint15_radial_22_91" cx="0" cy="0" r="1" gradientUnits="userSpaceOnUse" gradientTransform="translate(135.757 266.345) rotate(47.7621) scale(208.695 66.1483)">
<stop offset="0.332283" stop-color="#9E6154"/>
<stop offset="1" stop-color="#E0AE90" stop-opacity="0"/>
</radialGradient>
<radialGradient id="paint16_radial_22_91" cx="0" cy="0" r="1" gradientUnits="userSpaceOnUse" gradientTransform="translate(291.567 146.107) rotate(87.7382) scale(291.792 66.5771)">
<stop offset="0.0491183" stop-color="#FFCFAA"/>
<stop offset="0.363874" stop-color="#CE9570"/>
<stop offset="0.510416" stop-color="#AF7550"/>
</radialGradient>
<radialGradient id="paint17_radial_22_91" cx="0" cy="0" r="1" gradientUnits="userSpaceOnUse" gradientTransform="translate(283.809 195.24) rotate(64.3196) scale(44.475 23.5435)">
<stop offset="0.52378" stop-color="#FFCDA8"/>
<stop offset="1" stop-color="#FFCDA8" stop-opacity="0"/>
</radialGradient>
<radialGradient id="paint18_radial_22_91" cx="0" cy="0" r="1" gradientUnits="userSpaceOnUse" gradientTransform="translate(290.274 179.724) rotate(89.0179) scale(56.5757 10.1735)">
<stop offset="0.241007" stop-color="#FFCFAB"/>
<stop offset="1" stop-color="#FFCFAB" stop-opacity="0"/>
</radialGradient>
<radialGradient id="paint19_radial_22_91" cx="0" cy="0" r="1" gradientUnits="userSpaceOnUse" gradientTransform="translate(170.02 141.576) rotate(52.9945) scale(437.154 62.7103)">
<stop offset="0.117759" stop-color="#FCCBA7"/>
<stop offset="0.392418" stop-color="#E1A98C"/>
<stop offset="0.602637" stop-color="#C07D5B"/>
</radialGradient>
<radialGradient id="paint20_radial_22_91" cx="0" cy="0" r="1" gradientUnits="userSpaceOnUse" gradientTransform="translate(141.575 165.496) rotate(52.1555) scale(106.427 27.3736)">
<stop stop-color="#A2684A"/>
<stop offset="0.498616" stop-color="#CA9070" stop-opacity="0"/>
</radialGradient>
<linearGradient id="paint21_linear_22_91" x1="200.405" y1="185.537" x2="170.581" y2="168.567" gradientUnits="userSpaceOnUse">
<stop offset="0.147947" stop-color="#F3C09E"/>
<stop offset="1" stop-color="#F3C09E" stop-opacity="0"/>
</linearGradient>
<radialGradient id="paint22_radial_22_91" cx="0" cy="0" r="1" gradientUnits="userSpaceOnUse" gradientTransform="translate(191.462 112.669) rotate(54.4286) scale(437.708 66.5596)">
<stop offset="0.0126503" stop-color="#FFCFAB"/>
<stop offset="0.296062" stop-color="#E4AB89"/>
<stop offset="0.602637" stop-color="#B97E5F"/>
</radialGradient>
<radialGradient id="paint23_radial_22_91" cx="0" cy="0" r="1" gradientUnits="userSpaceOnUse" gradientTransform="translate(154.843 122.505) rotate(50.0937) scale(164.762 23.0183)">
<stop offset="0.101813" stop-color="#905639"/>
<stop offset="0.540918" stop-color="#D79B7A" stop-opacity="0"/>
</radialGradient>
<linearGradient id="paint24_linear_22_91" x1="229.512" y1="166.506" x2="192.662" y2="134.465" gradientUnits="userSpaceOnUse">
<stop offset="0.28671" stop-color="#FCCCA8"/>
<stop offset="1" stop-color="#FCCCA8" stop-opacity="0"/>
</linearGradient>
<radialGradient id="paint25_radial_22_91" cx="0" cy="0" r="1" gradientUnits="userSpaceOnUse" gradientTransform="translate(235.967 107.963) rotate(55.5194) scale(272.924 66.2782)">
<stop offset="0.118483" stop-color="#FFCFAB"/>
<stop offset="0.402194" stop-color="#DB9F7E"/>
<stop offset="1" stop-color="#B97A54"/>
</radialGradient>
<radialGradient id="paint26_radial_22_91" cx="0" cy="0" r="1" gradientUnits="userSpaceOnUse" gradientTransform="translate(201.38 119.923) rotate(52.0523) scale(134.04 18.7847)">
<stop stop-color="#905639"/>
<stop offset="0.609651" stop-color="#DB9F7E" stop-opacity="0"/>
</radialGradient>
<linearGradient id="paint27_linear_22_91" x1="259.232" y1="164.063" x2="232.216" y2="126.708" gradientUnits="userSpaceOnUse">
<stop offset="0.487226" stop-color="#FCCCA8"/>
<stop offset="1" stop-color="#FFCFAB" stop-opacity="0"/>
</linearGradient>
<radialGradient id="paint28_radial_22_91" cx="0" cy="0" r="1" gradientUnits="userSpaceOnUse" gradientTransform="translate(229.502 120.893) rotate(53.0382) scale(241.915 109.668)">
<stop offset="0.239356" stop-color="#E1AC8A" stop-opacity="0"/>
<stop offset="0.300451" stop-color="#B47854"/>
</radialGradient>
<linearGradient id="paint29_linear_22_91" x1="50.8437" y1="61.4938" x2="56.471" y2="66.7753" gradientUnits="userSpaceOnUse">
<stop stop-color="#16A34A"/>
<stop offset="1" stop-color="#16A34A" stop-opacity="0"/>
</linearGradient>
<linearGradient id="paint30_linear_22_91" x1="58.0841" y1="82.2602" x2="61.2301" y2="74.9905" gradientUnits="userSpaceOnUse">
<stop offset="0.605233" stop-color="#15803D"/>
<stop offset="1" stop-color="#15803D" stop-opacity="0"/>
</linearGradient>
<linearGradient id="paint31_linear_22_91" x1="69.9393" y1="61.812" x2="65.8295" y2="63.9848" gradientUnits="userSpaceOnUse">
<stop stop-color="#15803D"/>
<stop offset="1" stop-color="#16A34A" stop-opacity="0"/>
</linearGradient>
<linearGradient id="paint32_linear_22_91" x1="90.642" y1="34.619" x2="93.2252" y2="43.1487" gradientUnits="userSpaceOnUse">
<stop stop-color="#16A34A"/>
<stop offset="1" stop-color="#16A34A" stop-opacity="0"/>
</linearGradient>
<linearGradient id="paint33_linear_22_91" x1="87.7131" y1="61.2099" x2="93.0834" y2="57.2855" gradientUnits="userSpaceOnUse">
<stop offset="0.605233" stop-color="#16A34A"/>
<stop offset="1" stop-color="#16A34A" stop-opacity="0"/>
</linearGradient>
<linearGradient id="paint34_linear_22_91" x1="103.128" y1="46.0261" x2="100.425" y2="45.8859" gradientUnits="userSpaceOnUse">
<stop stop-color="#15803D"/>
<stop offset="1" stop-color="#16A34A" stop-opacity="0"/>
</linearGradient>
<linearGradient id="paint35_linear_22_91" x1="32.8091" y1="99.1848" x2="39.4553" y2="100.79" gradientUnits="userSpaceOnUse">
<stop stop-color="#15803D"/>
<stop offset="1" stop-color="#16A34A" stop-opacity="0"/>
</linearGradient>
<linearGradient id="paint36_linear_22_91" x1="47.6472" y1="114.546" x2="47.029" y2="106.664" gradientUnits="userSpaceOnUse">
<stop offset="0.605233" stop-color="#16A34A"/>
<stop offset="1" stop-color="#16A34A" stop-opacity="0"/>
</linearGradient>
<linearGradient id="paint37_linear_22_91" x1="51.7045" y1="92.405" x2="48.8451" y2="96.5782" gradientUnits="userSpaceOnUse">
<stop stop-color="#16A34A"/>
<stop offset="1" stop-color="#16A34A" stop-opacity="0"/>
</linearGradient>
</defs>
</svg>
