<svg xmlns="http://www.w3.org/2000/svg" viewBox="0 0 512 512" width="512" height="512">
  <defs>
    <linearGradient id="grad1" x1="0%" y1="0%" x2="100%" y2="100%">
      <stop offset="0%" style="stop-color:#0f172a;stop-opacity:1" />
      <stop offset="100%" style="stop-color:#1e293b;stop-opacity:1" />
    </linearGradient>
    <linearGradient id="grad2" x1="0%" y1="0%" x2="100%" y2="100%">
      <stop offset="0%" style="stop-color:#3b82f6;stop-opacity:1" />
      <stop offset="100%" style="stop-color:#06b6d4;stop-opacity:1" />
    </linearGradient>
    <linearGradient id="grad3" x1="0%" y1="0%" x2="100%" y2="100%">
      <stop offset="0%" style="stop-color:#06b6d4;stop-opacity:1" />
      <stop offset="100%" style="stop-color:#22d3ee;stop-opacity:1" />
    </linearGradient>
  </defs>
  
  <!-- Fundo circular -->
  <circle cx="256" cy="256" r="240" fill="url(#grad1)" stroke="#ffffff" stroke-width="4"/>
  
  <!-- Símbolo principal - Diamante/Relâmpago -->
  <path d="M 256 120 L 320 200 L 256 280 L 192 200 Z" fill="url(#grad2)" stroke="#ffffff" stroke-width="3"/>
  
  <!-- Símbolo de energia/relâmpago -->
  <path d="M 256 140 L 280 180 L 256 200 L 232 180 Z" fill="url(#grad3)" stroke="#ffffff" stroke-width="2"/>
  
  <!-- Linhas de energia -->
  <path d="M 180 320 Q 256 280 332 320" stroke="#3b82f6" stroke-width="4" fill="none" stroke-linecap="round"/>
  <path d="M 160 340 Q 256 300 352 340" stroke="#06b6d4" stroke-width="3" fill="none" stroke-linecap="round"/>
  <path d="M 140 360 Q 256 320 372 360" stroke="#22d3ee" stroke-width="2" fill="none" stroke-linecap="round"/>
  
  <!-- Símbolo de cruz moderna -->
  <rect x="240" y="380" width="32" height="6" fill="#ffffff" rx="3"/>
  <rect x="248" y="372" width="6" height="32" fill="#ffffff" rx="3"/>
  
  <!-- Elementos decorativos modernos -->
  <circle cx="120" cy="120" r="6" fill="#3b82f6" opacity="0.8"/>
  <circle cx="392" cy="120" r="6" fill="#06b6d4" opacity="0.8"/>
  <circle cx="120" cy="392" r="6" fill="#22d3ee" opacity="0.8"/>
  <circle cx="392" cy="392" r="6" fill="#3b82f6" opacity="0.8"/>
  
  <!-- Pequenos pontos de energia -->
  <circle cx="200" cy="200" r="2" fill="#ffffff" opacity="0.6"/>
  <circle cx="312" cy="200" r="2" fill="#ffffff" opacity="0.6"/>
  <circle cx="256" cy="320" r="2" fill="#ffffff" opacity="0.6"/>
</svg> 