<svg width="32" height="32" viewBox="0 0 32 32" fill="none" xmlns="http://www.w3.org/2000/svg">
<path d="M14.2635 8.29014L14.3776 4.74074C14.4045 3.9035 15.091 3.23871 15.9287 3.23871L15.9585 3.23899C16.1384 2.57856 16.7423 2.09619 17.4558 2.09619C18.3324 2.09619 19.0351 2.82178 19.0069 3.69797L19.0062 3.71912C19.6088 3.94667 20.031 4.53824 20.0091 5.22134L19.9884 5.86318C20.4668 6.13498 20.7901 6.64834 20.7922 7.23769L20.8067 11.3695L20.8122 11.3716C20.8122 11.3716 20.7626 13.8012 20.8866 15.1107C21.0084 16.3969 22.2065 17.7218 22.6509 18.1644C23.5089 19.0191 24.7105 19.9002 25.1845 20.233L20.6085 25.8398C19.0697 24.6321 16.1426 21.7379 15.3219 20.233C15.2833 20.1622 15.2466 20.0818 15.2118 19.9927C14.3703 18.6258 13.8453 16.7711 13.7535 16.3595C13.7187 16.2038 13.6327 15.9864 13.5254 15.7151C13.3419 15.2514 13.0962 14.6304 12.9379 13.8912C12.7372 12.9539 12.091 11.1469 11.793 10.3606C11.6152 9.82945 11.5616 8.63745 12.5654 8.15004C13.2728 7.80652 13.881 7.99376 14.2635 8.29014Z" fill="#9F736C"/>
<path d="M14.2635 8.29014L14.3776 4.74074C14.4045 3.9035 15.091 3.23871 15.9287 3.23871L15.9585 3.23899C16.1384 2.57856 16.7423 2.09619 17.4558 2.09619C18.3324 2.09619 19.0351 2.82178 19.0069 3.69797L19.0062 3.71912C19.6088 3.94667 20.031 4.53824 20.0091 5.22134L19.9884 5.86318C20.4668 6.13498 20.7901 6.64834 20.7922 7.23769L20.8067 11.3695L20.8122 11.3716C20.8122 11.3716 20.7626 13.8012 20.8866 15.1107C21.0084 16.3969 22.2065 17.7218 22.6509 18.1644C23.5089 19.0191 24.7105 19.9002 25.1845 20.233L20.6085 25.8398C19.0697 24.6321 16.1426 21.7379 15.3219 20.233C15.2833 20.1622 15.2466 20.0818 15.2118 19.9927C14.3703 18.6258 13.8453 16.7711 13.7535 16.3595C13.7187 16.2038 13.6327 15.9864 13.5254 15.7151C13.3419 15.2514 13.0962 14.6304 12.9379 13.8912C12.7372 12.9539 12.091 11.1469 11.793 10.3606C11.6152 9.82945 11.5616 8.63745 12.5654 8.15004C13.2728 7.80652 13.881 7.99376 14.2635 8.29014Z" fill="url(#paint0_radial_37_207)"/>
<path d="M14.2635 8.29014L14.3776 4.74074C14.4045 3.9035 15.091 3.23871 15.9287 3.23871L15.9585 3.23899C16.1384 2.57856 16.7423 2.09619 17.4558 2.09619C18.3324 2.09619 19.0351 2.82178 19.0069 3.69797L19.0062 3.71912C19.6088 3.94667 20.031 4.53824 20.0091 5.22134L19.9884 5.86318C20.4668 6.13498 20.7901 6.64834 20.7922 7.23769L20.8067 11.3695L20.8122 11.3716C20.8122 11.3716 20.7626 13.8012 20.8866 15.1107C21.0084 16.3969 22.2065 17.7218 22.6509 18.1644C23.5089 19.0191 24.7105 19.9002 25.1845 20.233L20.6085 25.8398C19.0697 24.6321 16.1426 21.7379 15.3219 20.233C15.2833 20.1622 15.2466 20.0818 15.2118 19.9927C14.3703 18.6258 13.8453 16.7711 13.7535 16.3595C13.7187 16.2038 13.6327 15.9864 13.5254 15.7151C13.3419 15.2514 13.0962 14.6304 12.9379 13.8912C12.7372 12.9539 12.091 11.1469 11.793 10.3606C11.6152 9.82945 11.5616 8.63745 12.5654 8.15004C13.2728 7.80652 13.881 7.99376 14.2635 8.29014Z" fill="url(#paint1_radial_37_207)"/>
<path d="M14.2635 8.29014L14.3776 4.74074C14.4045 3.9035 15.091 3.23871 15.9287 3.23871L15.9585 3.23899C16.1384 2.57856 16.7423 2.09619 17.4558 2.09619C18.3324 2.09619 19.0351 2.82178 19.0069 3.69797L19.0062 3.71912C19.6088 3.94667 20.031 4.53824 20.0091 5.22134L19.9884 5.86318C20.4668 6.13498 20.7901 6.64834 20.7922 7.23769L20.8067 11.3695L20.8122 11.3716C20.8122 11.3716 20.7626 13.8012 20.8866 15.1107C21.0084 16.3969 22.2065 17.7218 22.6509 18.1644C23.5089 19.0191 24.7105 19.9002 25.1845 20.233L20.6085 25.8398C19.0697 24.6321 16.1426 21.7379 15.3219 20.233C15.2833 20.1622 15.2466 20.0818 15.2118 19.9927C14.3703 18.6258 13.8453 16.7711 13.7535 16.3595C13.7187 16.2038 13.6327 15.9864 13.5254 15.7151C13.3419 15.2514 13.0962 14.6304 12.9379 13.8912C12.7372 12.9539 12.091 11.1469 11.793 10.3606C11.6152 9.82945 11.5616 8.63745 12.5654 8.15004C13.2728 7.80652 13.881 7.99376 14.2635 8.29014Z" fill="url(#paint2_radial_37_207)"/>
<path d="M14.2635 8.29014L14.3776 4.74074C14.4045 3.9035 15.091 3.23871 15.9287 3.23871L15.9585 3.23899C16.1384 2.57856 16.7423 2.09619 17.4558 2.09619C18.3324 2.09619 19.0351 2.82178 19.0069 3.69797L19.0062 3.71912C19.6088 3.94667 20.031 4.53824 20.0091 5.22134L19.9884 5.86318C20.4668 6.13498 20.7901 6.64834 20.7922 7.23769L20.8067 11.3695L20.8122 11.3716C20.8122 11.3716 20.7626 13.8012 20.8866 15.1107C21.0084 16.3969 22.2065 17.7218 22.6509 18.1644C23.5089 19.0191 24.7105 19.9002 25.1845 20.233L20.6085 25.8398C19.0697 24.6321 16.1426 21.7379 15.3219 20.233C15.2833 20.1622 15.2466 20.0818 15.2118 19.9927C14.3703 18.6258 13.8453 16.7711 13.7535 16.3595C13.7187 16.2038 13.6327 15.9864 13.5254 15.7151C13.3419 15.2514 13.0962 14.6304 12.9379 13.8912C12.7372 12.9539 12.091 11.1469 11.793 10.3606C11.6152 9.82945 11.5616 8.63745 12.5654 8.15004C13.2728 7.80652 13.881 7.99376 14.2635 8.29014Z" fill="url(#paint3_radial_37_207)"/>
<path d="M14.2635 8.29014L14.3776 4.74074C14.4045 3.9035 15.091 3.23871 15.9287 3.23871L15.9585 3.23899C16.1384 2.57856 16.7423 2.09619 17.4558 2.09619C18.3324 2.09619 19.0351 2.82178 19.0069 3.69797L19.0062 3.71912C19.6088 3.94667 20.031 4.53824 20.0091 5.22134L19.9884 5.86318C20.4668 6.13498 20.7901 6.64834 20.7922 7.23769L20.8067 11.3695L20.8122 11.3716C20.8122 11.3716 20.7626 13.8012 20.8866 15.1107C21.0084 16.3969 22.2065 17.7218 22.6509 18.1644C23.5089 19.0191 24.7105 19.9002 25.1845 20.233L20.6085 25.8398C19.0697 24.6321 16.1426 21.7379 15.3219 20.233C15.2833 20.1622 15.2466 20.0818 15.2118 19.9927C14.3703 18.6258 13.8453 16.7711 13.7535 16.3595C13.7187 16.2038 13.6327 15.9864 13.5254 15.7151C13.3419 15.2514 13.0962 14.6304 12.9379 13.8912C12.7372 12.9539 12.091 11.1469 11.793 10.3606C11.6152 9.82945 11.5616 8.63745 12.5654 8.15004C13.2728 7.80652 13.881 7.99376 14.2635 8.29014Z" fill="url(#paint4_linear_37_207)"/>
<path d="M14.2635 8.29014L14.3776 4.74074C14.4045 3.9035 15.091 3.23871 15.9287 3.23871L15.9585 3.23899C16.1384 2.57856 16.7423 2.09619 17.4558 2.09619C18.3324 2.09619 19.0351 2.82178 19.0069 3.69797L19.0062 3.71912C19.6088 3.94667 20.031 4.53824 20.0091 5.22134L19.9884 5.86318C20.4668 6.13498 20.7901 6.64834 20.7922 7.23769L20.8067 11.3695L20.8122 11.3716C20.8122 11.3716 20.7626 13.8012 20.8866 15.1107C21.0084 16.3969 22.2065 17.7218 22.6509 18.1644C23.5089 19.0191 24.7105 19.9002 25.1845 20.233L20.6085 25.8398C19.0697 24.6321 16.1426 21.7379 15.3219 20.233C15.2833 20.1622 15.2466 20.0818 15.2118 19.9927C14.3703 18.6258 13.8453 16.7711 13.7535 16.3595C13.7187 16.2038 13.6327 15.9864 13.5254 15.7151C13.3419 15.2514 13.0962 14.6304 12.9379 13.8912C12.7372 12.9539 12.091 11.1469 11.793 10.3606C11.6152 9.82945 11.5616 8.63745 12.5654 8.15004C13.2728 7.80652 13.881 7.99376 14.2635 8.29014Z" fill="url(#paint5_radial_37_207)"/>
<path d="M14.2635 8.29014L14.3776 4.74074C14.4045 3.9035 15.091 3.23871 15.9287 3.23871L15.9585 3.23899C16.1384 2.57856 16.7423 2.09619 17.4558 2.09619C18.3324 2.09619 19.0351 2.82178 19.0069 3.69797L19.0062 3.71912C19.6088 3.94667 20.031 4.53824 20.0091 5.22134L19.9884 5.86318C20.4668 6.13498 20.7901 6.64834 20.7922 7.23769L20.8067 11.3695L20.8122 11.3716C20.8122 11.3716 20.7626 13.8012 20.8866 15.1107C21.0084 16.3969 22.2065 17.7218 22.6509 18.1644C23.5089 19.0191 24.7105 19.9002 25.1845 20.233L20.6085 25.8398C19.0697 24.6321 16.1426 21.7379 15.3219 20.233C15.2833 20.1622 15.2466 20.0818 15.2118 19.9927C14.3703 18.6258 13.8453 16.7711 13.7535 16.3595C13.7187 16.2038 13.6327 15.9864 13.5254 15.7151C13.3419 15.2514 13.0962 14.6304 12.9379 13.8912C12.7372 12.9539 12.091 11.1469 11.793 10.3606C11.6152 9.82945 11.5616 8.63745 12.5654 8.15004C13.2728 7.80652 13.881 7.99376 14.2635 8.29014Z" fill="url(#paint6_radial_37_207)"/>
<path d="M14.2635 8.29014L14.3776 4.74074C14.4045 3.9035 15.091 3.23871 15.9287 3.23871L15.9585 3.23899C16.1384 2.57856 16.7423 2.09619 17.4558 2.09619C18.3324 2.09619 19.0351 2.82178 19.0069 3.69797L19.0062 3.71912C19.6088 3.94667 20.031 4.53824 20.0091 5.22134L19.9884 5.86318C20.4668 6.13498 20.7901 6.64834 20.7922 7.23769L20.8067 11.3695L20.8122 11.3716C20.8122 11.3716 20.7626 13.8012 20.8866 15.1107C21.0084 16.3969 22.2065 17.7218 22.6509 18.1644C23.5089 19.0191 24.7105 19.9002 25.1845 20.233L20.6085 25.8398C19.0697 24.6321 16.1426 21.7379 15.3219 20.233C15.2833 20.1622 15.2466 20.0818 15.2118 19.9927C14.3703 18.6258 13.8453 16.7711 13.7535 16.3595C13.7187 16.2038 13.6327 15.9864 13.5254 15.7151C13.3419 15.2514 13.0962 14.6304 12.9379 13.8912C12.7372 12.9539 12.091 11.1469 11.793 10.3606C11.6152 9.82945 11.5616 8.63745 12.5654 8.15004C13.2728 7.80652 13.881 7.99376 14.2635 8.29014Z" fill="url(#paint7_radial_37_207)"/>
<path d="M14.2635 8.29014L14.3776 4.74074C14.4045 3.9035 15.091 3.23871 15.9287 3.23871L15.9585 3.23899C16.1384 2.57856 16.7423 2.09619 17.4558 2.09619C18.3324 2.09619 19.0351 2.82178 19.0069 3.69797L19.0062 3.71912C19.6088 3.94667 20.031 4.53824 20.0091 5.22134L19.9884 5.86318C20.4668 6.13498 20.7901 6.64834 20.7922 7.23769L20.8067 11.3695L20.8122 11.3716C20.8122 11.3716 20.7626 13.8012 20.8866 15.1107C21.0084 16.3969 22.2065 17.7218 22.6509 18.1644C23.5089 19.0191 24.7105 19.9002 25.1845 20.233L20.6085 25.8398C19.0697 24.6321 16.1426 21.7379 15.3219 20.233C15.2833 20.1622 15.2466 20.0818 15.2118 19.9927C14.3703 18.6258 13.8453 16.7711 13.7535 16.3595C13.7187 16.2038 13.6327 15.9864 13.5254 15.7151C13.3419 15.2514 13.0962 14.6304 12.9379 13.8912C12.7372 12.9539 12.091 11.1469 11.793 10.3606C11.6152 9.82945 11.5616 8.63745 12.5654 8.15004C13.2728 7.80652 13.881 7.99376 14.2635 8.29014Z" fill="url(#paint8_radial_37_207)"/>
<path d="M14.2635 8.29014L14.3776 4.74074C14.4045 3.9035 15.091 3.23871 15.9287 3.23871L15.9585 3.23899C16.1384 2.57856 16.7423 2.09619 17.4558 2.09619C18.3324 2.09619 19.0351 2.82178 19.0069 3.69797L19.0062 3.71912C19.6088 3.94667 20.031 4.53824 20.0091 5.22134L19.9884 5.86318C20.4668 6.13498 20.7901 6.64834 20.7922 7.23769L20.8067 11.3695L20.8122 11.3716C20.8122 11.3716 20.7626 13.8012 20.8866 15.1107C21.0084 16.3969 22.2065 17.7218 22.6509 18.1644C23.5089 19.0191 24.7105 19.9002 25.1845 20.233L20.6085 25.8398C19.0697 24.6321 16.1426 21.7379 15.3219 20.233C15.2833 20.1622 15.2466 20.0818 15.2118 19.9927C14.3703 18.6258 13.8453 16.7711 13.7535 16.3595C13.7187 16.2038 13.6327 15.9864 13.5254 15.7151C13.3419 15.2514 13.0962 14.6304 12.9379 13.8912C12.7372 12.9539 12.091 11.1469 11.793 10.3606C11.6152 9.82945 11.5616 8.63745 12.5654 8.15004C13.2728 7.80652 13.881 7.99376 14.2635 8.29014Z" fill="url(#paint9_radial_37_207)"/>
<path d="M14.2635 8.29014L14.3776 4.74074C14.4045 3.9035 15.091 3.23871 15.9287 3.23871L15.9585 3.23899C16.1384 2.57856 16.7423 2.09619 17.4558 2.09619C18.3324 2.09619 19.0351 2.82178 19.0069 3.69797L19.0062 3.71912C19.6088 3.94667 20.031 4.53824 20.0091 5.22134L19.9884 5.86318C20.4668 6.13498 20.7901 6.64834 20.7922 7.23769L20.8067 11.3695L20.8122 11.3716C20.8122 11.3716 20.7626 13.8012 20.8866 15.1107C21.0084 16.3969 22.2065 17.7218 22.6509 18.1644C23.5089 19.0191 24.7105 19.9002 25.1845 20.233L20.6085 25.8398C19.0697 24.6321 16.1426 21.7379 15.3219 20.233C15.2833 20.1622 15.2466 20.0818 15.2118 19.9927C14.3703 18.6258 13.8453 16.7711 13.7535 16.3595C13.7187 16.2038 13.6327 15.9864 13.5254 15.7151C13.3419 15.2514 13.0962 14.6304 12.9379 13.8912C12.7372 12.9539 12.091 11.1469 11.793 10.3606C11.6152 9.82945 11.5616 8.63745 12.5654 8.15004C13.2728 7.80652 13.881 7.99376 14.2635 8.29014Z" fill="url(#paint10_radial_37_207)"/>
<path d="M14.2635 8.29014L14.3776 4.74074C14.4045 3.9035 15.091 3.23871 15.9287 3.23871L15.9585 3.23899C16.1384 2.57856 16.7423 2.09619 17.4558 2.09619C18.3324 2.09619 19.0351 2.82178 19.0069 3.69797L19.0062 3.71912C19.6088 3.94667 20.031 4.53824 20.0091 5.22134L19.9884 5.86318C20.4668 6.13498 20.7901 6.64834 20.7922 7.23769L20.8067 11.3695L20.8122 11.3716C20.8122 11.3716 20.7626 13.8012 20.8866 15.1107C21.0084 16.3969 22.2065 17.7218 22.6509 18.1644C23.5089 19.0191 24.7105 19.9002 25.1845 20.233L20.6085 25.8398C19.0697 24.6321 16.1426 21.7379 15.3219 20.233C15.2833 20.1622 15.2466 20.0818 15.2118 19.9927C14.3703 18.6258 13.8453 16.7711 13.7535 16.3595C13.7187 16.2038 13.6327 15.9864 13.5254 15.7151C13.3419 15.2514 13.0962 14.6304 12.9379 13.8912C12.7372 12.9539 12.091 11.1469 11.793 10.3606C11.6152 9.82945 11.5616 8.63745 12.5654 8.15004C13.2728 7.80652 13.881 7.99376 14.2635 8.29014Z" fill="url(#paint11_radial_37_207)"/>
<path d="M14.2635 8.29014L14.3776 4.74074C14.4045 3.9035 15.091 3.23871 15.9287 3.23871L15.9585 3.23899C16.1384 2.57856 16.7423 2.09619 17.4558 2.09619C18.3324 2.09619 19.0351 2.82178 19.0069 3.69797L19.0062 3.71912C19.6088 3.94667 20.031 4.53824 20.0091 5.22134L19.9884 5.86318C20.4668 6.13498 20.7901 6.64834 20.7922 7.23769L20.8067 11.3695L20.8122 11.3716C20.8122 11.3716 20.7626 13.8012 20.8866 15.1107C21.0084 16.3969 22.2065 17.7218 22.6509 18.1644C23.5089 19.0191 24.7105 19.9002 25.1845 20.233L20.6085 25.8398C19.0697 24.6321 16.1426 21.7379 15.3219 20.233C15.2833 20.1622 15.2466 20.0818 15.2118 19.9927C14.3703 18.6258 13.8453 16.7711 13.7535 16.3595C13.7187 16.2038 13.6327 15.9864 13.5254 15.7151C13.3419 15.2514 13.0962 14.6304 12.9379 13.8912C12.7372 12.9539 12.091 11.1469 11.793 10.3606C11.6152 9.82945 11.5616 8.63745 12.5654 8.15004C13.2728 7.80652 13.881 7.99376 14.2635 8.29014Z" fill="url(#paint12_radial_37_207)"/>
<path d="M14.2635 8.29014L14.3776 4.74074C14.4045 3.9035 15.091 3.23871 15.9287 3.23871L15.9585 3.23899C16.1384 2.57856 16.7423 2.09619 17.4558 2.09619C18.3324 2.09619 19.0351 2.82178 19.0069 3.69797L19.0062 3.71912C19.6088 3.94667 20.031 4.53824 20.0091 5.22134L19.9884 5.86318C20.4668 6.13498 20.7901 6.64834 20.7922 7.23769L20.8067 11.3695L20.8122 11.3716C20.8122 11.3716 20.7626 13.8012 20.8866 15.1107C21.0084 16.3969 22.2065 17.7218 22.6509 18.1644C23.5089 19.0191 24.7105 19.9002 25.1845 20.233L20.6085 25.8398C19.0697 24.6321 16.1426 21.7379 15.3219 20.233C15.2833 20.1622 15.2466 20.0818 15.2118 19.9927C14.3703 18.6258 13.8453 16.7711 13.7535 16.3595C13.7187 16.2038 13.6327 15.9864 13.5254 15.7151C13.3419 15.2514 13.0962 14.6304 12.9379 13.8912C12.7372 12.9539 12.091 11.1469 11.793 10.3606C11.6152 9.82945 11.5616 8.63745 12.5654 8.15004C13.2728 7.80652 13.881 7.99376 14.2635 8.29014Z" fill="url(#paint13_radial_37_207)"/>
<path d="M15.9585 3.23905C15.9272 3.35395 15.9087 3.47424 15.9047 3.59831L15.7178 9.41196H17.3328L17.2961 10.5544H14.1907L14.3776 4.7408C14.4045 3.90356 15.091 3.23877 15.9287 3.23877C15.9387 3.23877 15.9486 3.23886 15.9585 3.23905Z" fill="url(#paint14_radial_37_207)"/>
<path d="M15.9585 3.23905C15.9272 3.35395 15.9087 3.47424 15.9047 3.59831L15.7178 9.41196H17.3328L17.2961 10.5544H14.1907L14.3776 4.7408C14.4045 3.90356 15.091 3.23877 15.9287 3.23877C15.9387 3.23877 15.9486 3.23886 15.9585 3.23905Z" fill="url(#paint15_radial_37_207)"/>
<path d="M15.9585 3.23905C15.9272 3.35395 15.9087 3.47424 15.9047 3.59831L15.7178 9.41196H17.3328L17.2961 10.5544H14.1907L14.3776 4.7408C14.4045 3.90356 15.091 3.23877 15.9287 3.23877C15.9387 3.23877 15.9486 3.23886 15.9585 3.23905Z" fill="url(#paint16_radial_37_207)"/>
<path d="M15.9585 3.23905C15.9272 3.35395 15.9087 3.47424 15.9047 3.59831L15.7178 9.41196H17.3328L17.2961 10.5544H14.1907L14.3776 4.7408C14.4045 3.90356 15.091 3.23877 15.9287 3.23877C15.9387 3.23877 15.9486 3.23886 15.9585 3.23905Z" fill="url(#paint17_radial_37_207)"/>
<path d="M15.9585 3.23905C15.9272 3.35395 15.9087 3.47424 15.9047 3.59831L15.7178 9.41196H17.3328L17.2961 10.5544H14.1907L14.3776 4.7408C14.4045 3.90356 15.091 3.23877 15.9287 3.23877C15.9387 3.23877 15.9486 3.23886 15.9585 3.23905Z" fill="url(#paint18_radial_37_207)"/>
<path d="M15.9585 3.23905C15.9272 3.35395 15.9087 3.47424 15.9047 3.59831L15.7178 9.41196H17.3328L17.2961 10.5544H14.1907L14.3776 4.7408C14.4045 3.90356 15.091 3.23877 15.9287 3.23877C15.9387 3.23877 15.9486 3.23886 15.9585 3.23905Z" fill="url(#paint19_radial_37_207)"/>
<path d="M17.4557 2.09619C16.6181 2.09619 15.9316 2.76098 15.9046 3.59822L15.7509 8.37973C15.7327 8.94432 16.1855 9.41187 16.7504 9.41187H16.7688L16.9068 5.12162C16.9337 4.28438 17.6202 3.61959 18.4579 3.61959C18.6511 3.61959 18.8358 3.65483 19.0062 3.71916L19.0068 3.69797C19.035 2.82178 18.3324 2.09619 17.4557 2.09619Z" fill="url(#paint20_radial_37_207)"/>
<path d="M17.4557 2.09619C16.6181 2.09619 15.9316 2.76098 15.9046 3.59822L15.7509 8.37973C15.7327 8.94432 16.1855 9.41187 16.7504 9.41187H16.7688L16.9068 5.12162C16.9337 4.28438 17.6202 3.61959 18.4579 3.61959C18.6511 3.61959 18.8358 3.65483 19.0062 3.71916L19.0068 3.69797C19.035 2.82178 18.3324 2.09619 17.4557 2.09619Z" fill="url(#paint21_radial_37_207)"/>
<path d="M17.4557 2.09619C16.6181 2.09619 15.9316 2.76098 15.9046 3.59822L15.7509 8.37973C15.7327 8.94432 16.1855 9.41187 16.7504 9.41187H16.7688L16.9068 5.12162C16.9337 4.28438 17.6202 3.61959 18.4579 3.61959C18.6511 3.61959 18.8358 3.65483 19.0062 3.71916L19.0068 3.69797C19.035 2.82178 18.3324 2.09619 17.4557 2.09619Z" fill="url(#paint22_radial_37_207)"/>
<path d="M17.4557 2.09619C16.6181 2.09619 15.9316 2.76098 15.9046 3.59822L15.7509 8.37973C15.7327 8.94432 16.1855 9.41187 16.7504 9.41187H16.7688L16.9068 5.12162C16.9337 4.28438 17.6202 3.61959 18.4579 3.61959C18.6511 3.61959 18.8358 3.65483 19.0062 3.71916L19.0068 3.69797C19.035 2.82178 18.3324 2.09619 17.4557 2.09619Z" fill="url(#paint23_radial_37_207)"/>
<path d="M17.4557 2.09619C16.6181 2.09619 15.9316 2.76098 15.9046 3.59822L15.7509 8.37973C15.7327 8.94432 16.1855 9.41187 16.7504 9.41187H16.7688L16.9068 5.12162C16.9337 4.28438 17.6202 3.61959 18.4579 3.61959C18.6511 3.61959 18.8358 3.65483 19.0062 3.71916L19.0068 3.69797C19.035 2.82178 18.3324 2.09619 17.4557 2.09619Z" fill="url(#paint24_radial_37_207)"/>
<path d="M17.4557 2.09619C16.6181 2.09619 15.9316 2.76098 15.9046 3.59822L15.7509 8.37973C15.7327 8.94432 16.1855 9.41187 16.7504 9.41187H16.7688L16.9068 5.12162C16.9337 4.28438 17.6202 3.61959 18.4579 3.61959C18.6511 3.61959 18.8358 3.65483 19.0062 3.71916L19.0068 3.69797C19.035 2.82178 18.3324 2.09619 17.4557 2.09619Z" fill="url(#paint25_radial_37_207)"/>
<path d="M17.4557 2.09619C16.6181 2.09619 15.9316 2.76098 15.9046 3.59822L15.7509 8.37973C15.7327 8.94432 16.1855 9.41187 16.7504 9.41187H16.7688L16.9068 5.12162C16.9337 4.28438 17.6202 3.61959 18.4579 3.61959C18.6511 3.61959 18.8358 3.65483 19.0062 3.71916L19.0068 3.69797C19.035 2.82178 18.3324 2.09619 17.4557 2.09619Z" fill="url(#paint26_radial_37_207)"/>
<path d="M17.4557 2.09619C16.6181 2.09619 15.9316 2.76098 15.9046 3.59822L15.7509 8.37973C15.7327 8.94432 16.1855 9.41187 16.7504 9.41187H16.7688L16.9068 5.12162C16.9337 4.28438 17.6202 3.61959 18.4579 3.61959C18.6511 3.61959 18.8358 3.65483 19.0062 3.71916L19.0068 3.69797C19.035 2.82178 18.3324 2.09619 17.4557 2.09619Z" fill="url(#paint27_radial_37_207)"/>
<path d="M18.4597 3.61963C17.6213 3.61963 16.9344 4.28549 16.9084 5.12348L16.7358 10.6888C16.7271 10.9709 16.9534 11.2043 17.2356 11.2043H17.4619L17.6209 7.18066C17.6546 6.32965 18.3543 5.65708 19.2059 5.65708C19.4914 5.65708 19.7594 5.73253 19.9909 5.86461L20.0109 5.2197C20.038 4.34414 19.3356 3.61963 18.4597 3.61963Z" fill="url(#paint28_radial_37_207)"/>
<path d="M18.4597 3.61963C17.6213 3.61963 16.9344 4.28549 16.9084 5.12348L16.7358 10.6888C16.7271 10.9709 16.9534 11.2043 17.2356 11.2043H17.4619L17.6209 7.18066C17.6546 6.32965 18.3543 5.65708 19.2059 5.65708C19.4914 5.65708 19.7594 5.73253 19.9909 5.86461L20.0109 5.2197C20.038 4.34414 19.3356 3.61963 18.4597 3.61963Z" fill="url(#paint29_radial_37_207)"/>
<path d="M18.4597 3.61963C17.6213 3.61963 16.9344 4.28549 16.9084 5.12348L16.7358 10.6888C16.7271 10.9709 16.9534 11.2043 17.2356 11.2043H17.4619L17.6209 7.18066C17.6546 6.32965 18.3543 5.65708 19.2059 5.65708C19.4914 5.65708 19.7594 5.73253 19.9909 5.86461L20.0109 5.2197C20.038 4.34414 19.3356 3.61963 18.4597 3.61963Z" fill="url(#paint30_radial_37_207)"/>
<path d="M18.4597 3.61963C17.6213 3.61963 16.9344 4.28549 16.9084 5.12348L16.7358 10.6888C16.7271 10.9709 16.9534 11.2043 17.2356 11.2043H17.4619L17.6209 7.18066C17.6546 6.32965 18.3543 5.65708 19.2059 5.65708C19.4914 5.65708 19.7594 5.73253 19.9909 5.86461L20.0109 5.2197C20.038 4.34414 19.3356 3.61963 18.4597 3.61963Z" fill="url(#paint31_radial_37_207)"/>
<path d="M18.4597 3.61963C17.6213 3.61963 16.9344 4.28549 16.9084 5.12348L16.7358 10.6888C16.7271 10.9709 16.9534 11.2043 17.2356 11.2043H17.4619L17.6209 7.18066C17.6546 6.32965 18.3543 5.65708 19.2059 5.65708C19.4914 5.65708 19.7594 5.73253 19.9909 5.86461L20.0109 5.2197C20.038 4.34414 19.3356 3.61963 18.4597 3.61963Z" fill="url(#paint32_radial_37_207)"/>
<path d="M18.4597 3.61963C17.6213 3.61963 16.9344 4.28549 16.9084 5.12348L16.7358 10.6888C16.7271 10.9709 16.9534 11.2043 17.2356 11.2043H17.4619L17.6209 7.18066C17.6546 6.32965 18.3543 5.65708 19.2059 5.65708C19.4914 5.65708 19.7594 5.73253 19.9909 5.86461L20.0109 5.2197C20.038 4.34414 19.3356 3.61963 18.4597 3.61963Z" fill="url(#paint33_radial_37_207)"/>
<path d="M18.4597 3.61963C17.6213 3.61963 16.9344 4.28549 16.9084 5.12348L16.7358 10.6888C16.7271 10.9709 16.9534 11.2043 17.2356 11.2043H17.4619L17.6209 7.18066C17.6546 6.32965 18.3543 5.65708 19.2059 5.65708C19.4914 5.65708 19.7594 5.73253 19.9909 5.86461L20.0109 5.2197C20.038 4.34414 19.3356 3.61963 18.4597 3.61963Z" fill="url(#paint34_linear_37_207)"/>
<path d="M18.4597 3.61963C17.6213 3.61963 16.9344 4.28549 16.9084 5.12348L16.7358 10.6888C16.7271 10.9709 16.9534 11.2043 17.2356 11.2043H17.4619L17.6209 7.18066C17.6546 6.32965 18.3543 5.65708 19.2059 5.65708C19.4914 5.65708 19.7594 5.73253 19.9909 5.86461L20.0109 5.2197C20.038 4.34414 19.3356 3.61963 18.4597 3.61963Z" fill="url(#paint35_radial_37_207)"/>
<path d="M17.6211 7.18068C17.6547 6.32967 18.3544 5.6571 19.2061 5.6571V5.6571C20.0799 5.6571 20.7892 6.36388 20.7923 7.23775L20.8074 11.5245L17.446 11.6091L17.6211 7.18068Z" fill="url(#paint36_radial_37_207)"/>
<path d="M26.2882 19.6414L29.9856 23.2739V29.9038H22.3714L19.1873 26.7322C18.6768 26.2238 18.6772 25.3972 19.1881 24.8893L24.4605 19.6469C24.9655 19.1449 25.7803 19.1424 26.2882 19.6414Z" fill="url(#paint37_linear_37_207)"/>
<path d="M26.2882 19.6414L29.9856 23.2739V29.9038H22.3714L19.1873 26.7322C18.6768 26.2238 18.6772 25.3972 19.1881 24.8893L24.4605 19.6469C24.9655 19.1449 25.7803 19.1424 26.2882 19.6414Z" fill="url(#paint38_linear_37_207)"/>
<path d="M26.2882 19.6414L29.9856 23.2739V29.9038H22.3714L19.1873 26.7322C18.6768 26.2238 18.6772 25.3972 19.1881 24.8893L24.4605 19.6469C24.9655 19.1449 25.7803 19.1424 26.2882 19.6414Z" fill="url(#paint39_linear_37_207)"/>
<path d="M26.2882 19.6414L29.9856 23.2739V29.9038H22.3714L19.1873 26.7322C18.6768 26.2238 18.6772 25.3972 19.1881 24.8893L24.4605 19.6469C24.9655 19.1449 25.7803 19.1424 26.2882 19.6414Z" fill="url(#paint40_radial_37_207)"/>
<ellipse cx="0.777338" cy="2.25191" rx="0.777338" ry="2.25191" transform="matrix(0.999813 0.019319 -0.0194722 0.99981 15.9794 8.30481)" fill="url(#paint41_radial_37_207)"/>
<ellipse cx="0.777338" cy="2.25191" rx="0.777338" ry="2.25191" transform="matrix(0.999813 0.019319 -0.0194722 0.99981 15.9794 8.30481)" fill="url(#paint42_radial_37_207)"/>
<ellipse cx="0.777338" cy="2.25191" rx="0.777338" ry="2.25191" transform="matrix(0.999813 0.019319 -0.0194722 0.99981 15.9794 8.30481)" fill="url(#paint43_radial_37_207)"/>
<ellipse cx="0.777338" cy="2.25191" rx="0.777338" ry="2.25191" transform="matrix(0.999813 0.019319 -0.0194722 0.99981 15.9794 8.30481)" fill="url(#paint44_radial_37_207)"/>
<ellipse cx="0.777338" cy="2.25191" rx="0.777338" ry="2.25191" transform="matrix(0.999813 0.019319 -0.0194722 0.99981 15.9794 8.30481)" fill="url(#paint45_radial_37_207)"/>
<ellipse cx="0.574358" cy="2.2519" rx="0.574358" ry="2.2519" transform="matrix(0.999985 0.00542921 -0.00547226 0.999985 15.639 6.70056)" fill="url(#paint46_radial_37_207)"/>
<ellipse cx="0.574358" cy="2.2519" rx="0.574358" ry="2.2519" transform="matrix(0.999985 0.00542921 -0.00547226 0.999985 15.639 6.70056)" fill="url(#paint47_radial_37_207)"/>
<ellipse cx="0.574358" cy="2.2519" rx="0.574358" ry="2.2519" transform="matrix(0.999985 0.00542921 -0.00547226 0.999985 15.639 6.70056)" fill="url(#paint48_radial_37_207)"/>
<ellipse cx="0.574358" cy="2.2519" rx="0.574358" ry="2.2519" transform="matrix(0.999985 0.00542921 -0.00547226 0.999985 15.639 6.70056)" fill="url(#paint49_radial_37_207)"/>
<ellipse cx="0.574358" cy="2.2519" rx="0.574358" ry="2.2519" transform="matrix(0.999985 0.00542921 -0.00547226 0.999985 15.639 6.70056)" fill="url(#paint50_radial_37_207)"/>
<path d="M14.2635 8.29014L14.3776 4.74074C14.4045 3.9035 15.091 3.23871 15.9287 3.23871L15.9585 3.23899C16.1384 2.57856 16.7423 2.09619 17.4558 2.09619C18.3324 2.09619 19.0351 2.82178 19.0069 3.69797L19.0062 3.71912C19.6088 3.94667 20.031 4.53824 20.0091 5.22134L19.9884 5.86318C20.4668 6.13498 20.7901 6.64834 20.7922 7.23769L20.8067 11.3695L20.8122 11.3716C20.8122 11.3716 20.7626 13.8012 20.8866 15.1107C21.0084 16.3969 22.2065 17.7218 22.6509 18.1644C23.5089 19.0191 24.7105 19.9002 25.1845 20.233L20.6085 25.8398C19.0697 24.6321 16.1426 21.7379 15.3219 20.233C15.2833 20.1622 15.2466 20.0818 15.2118 19.9927C14.3703 18.6258 13.8453 16.7711 13.7535 16.3595C13.7187 16.2038 13.6327 15.9864 13.5254 15.7151C13.3419 15.2514 13.0962 14.6304 12.9379 13.8912C12.7372 12.9539 12.091 11.1469 11.793 10.3606C11.6152 9.82945 11.5616 8.63745 12.5654 8.15004C13.2728 7.80652 13.881 7.99376 14.2635 8.29014Z" fill="url(#paint51_radial_37_207)"/>
<path d="M14.2635 8.29014L14.3776 4.74074C14.4045 3.9035 15.091 3.23871 15.9287 3.23871L15.9585 3.23899C16.1384 2.57856 16.7423 2.09619 17.4558 2.09619C18.3324 2.09619 19.0351 2.82178 19.0069 3.69797L19.0062 3.71912C19.6088 3.94667 20.031 4.53824 20.0091 5.22134L19.9884 5.86318C20.4668 6.13498 20.7901 6.64834 20.7922 7.23769L20.8067 11.3695L20.8122 11.3716C20.8122 11.3716 20.7626 13.8012 20.8866 15.1107C21.0084 16.3969 22.2065 17.7218 22.6509 18.1644C23.5089 19.0191 24.7105 19.9002 25.1845 20.233L20.6085 25.8398C19.0697 24.6321 16.1426 21.7379 15.3219 20.233C15.2833 20.1622 15.2466 20.0818 15.2118 19.9927C14.3703 18.6258 13.8453 16.7711 13.7535 16.3595C13.7187 16.2038 13.6327 15.9864 13.5254 15.7151C13.3419 15.2514 13.0962 14.6304 12.9379 13.8912C12.7372 12.9539 12.091 11.1469 11.793 10.3606C11.6152 9.82945 11.5616 8.63745 12.5654 8.15004C13.2728 7.80652 13.881 7.99376 14.2635 8.29014Z" fill="url(#paint52_radial_37_207)"/>
<path d="M14.2635 8.29014L14.3776 4.74074C14.4045 3.9035 15.091 3.23871 15.9287 3.23871L15.9585 3.23899C16.1384 2.57856 16.7423 2.09619 17.4558 2.09619C18.3324 2.09619 19.0351 2.82178 19.0069 3.69797L19.0062 3.71912C19.6088 3.94667 20.031 4.53824 20.0091 5.22134L19.9884 5.86318C20.4668 6.13498 20.7901 6.64834 20.7922 7.23769L20.8067 11.3695L20.8122 11.3716C20.8122 11.3716 20.7626 13.8012 20.8866 15.1107C21.0084 16.3969 22.2065 17.7218 22.6509 18.1644C23.5089 19.0191 24.7105 19.9002 25.1845 20.233L20.6085 25.8398C19.0697 24.6321 16.1426 21.7379 15.3219 20.233C15.2833 20.1622 15.2466 20.0818 15.2118 19.9927C14.3703 18.6258 13.8453 16.7711 13.7535 16.3595C13.7187 16.2038 13.6327 15.9864 13.5254 15.7151C13.3419 15.2514 13.0962 14.6304 12.9379 13.8912C12.7372 12.9539 12.091 11.1469 11.793 10.3606C11.6152 9.82945 11.5616 8.63745 12.5654 8.15004C13.2728 7.80652 13.881 7.99376 14.2635 8.29014Z" fill="url(#paint53_radial_37_207)"/>
<path d="M14.2635 8.29014L14.3776 4.74074C14.4045 3.9035 15.091 3.23871 15.9287 3.23871L15.9585 3.23899C16.1384 2.57856 16.7423 2.09619 17.4558 2.09619C18.3324 2.09619 19.0351 2.82178 19.0069 3.69797L19.0062 3.71912C19.6088 3.94667 20.031 4.53824 20.0091 5.22134L19.9884 5.86318C20.4668 6.13498 20.7901 6.64834 20.7922 7.23769L20.8067 11.3695L20.8122 11.3716C20.8122 11.3716 20.7626 13.8012 20.8866 15.1107C21.0084 16.3969 22.2065 17.7218 22.6509 18.1644C23.5089 19.0191 24.7105 19.9002 25.1845 20.233L20.6085 25.8398C19.0697 24.6321 16.1426 21.7379 15.3219 20.233C15.2833 20.1622 15.2466 20.0818 15.2118 19.9927C14.3703 18.6258 13.8453 16.7711 13.7535 16.3595C13.7187 16.2038 13.6327 15.9864 13.5254 15.7151C13.3419 15.2514 13.0962 14.6304 12.9379 13.8912C12.7372 12.9539 12.091 11.1469 11.793 10.3606C11.6152 9.82945 11.5616 8.63745 12.5654 8.15004C13.2728 7.80652 13.881 7.99376 14.2635 8.29014Z" fill="url(#paint54_radial_37_207)"/>
<path d="M14.2635 8.29014L14.3776 4.74074C14.4045 3.9035 15.091 3.23871 15.9287 3.23871L15.9585 3.23899C16.1384 2.57856 16.7423 2.09619 17.4558 2.09619C18.3324 2.09619 19.0351 2.82178 19.0069 3.69797L19.0062 3.71912C19.6088 3.94667 20.031 4.53824 20.0091 5.22134L19.9884 5.86318C20.4668 6.13498 20.7901 6.64834 20.7922 7.23769L20.8067 11.3695L20.8122 11.3716C20.8122 11.3716 20.7626 13.8012 20.8866 15.1107C21.0084 16.3969 22.2065 17.7218 22.6509 18.1644C23.5089 19.0191 24.7105 19.9002 25.1845 20.233L20.6085 25.8398C19.0697 24.6321 16.1426 21.7379 15.3219 20.233C15.2833 20.1622 15.2466 20.0818 15.2118 19.9927C14.3703 18.6258 13.8453 16.7711 13.7535 16.3595C13.7187 16.2038 13.6327 15.9864 13.5254 15.7151C13.3419 15.2514 13.0962 14.6304 12.9379 13.8912C12.7372 12.9539 12.091 11.1469 11.793 10.3606C11.6152 9.82945 11.5616 8.63745 12.5654 8.15004C13.2728 7.80652 13.881 7.99376 14.2635 8.29014Z" fill="url(#paint55_radial_37_207)"/>
<path d="M14.2635 8.29014L14.3776 4.74074C14.4045 3.9035 15.091 3.23871 15.9287 3.23871L15.9585 3.23899C16.1384 2.57856 16.7423 2.09619 17.4558 2.09619C18.3324 2.09619 19.0351 2.82178 19.0069 3.69797L19.0062 3.71912C19.6088 3.94667 20.031 4.53824 20.0091 5.22134L19.9884 5.86318C20.4668 6.13498 20.7901 6.64834 20.7922 7.23769L20.8067 11.3695L20.8122 11.3716C20.8122 11.3716 20.7626 13.8012 20.8866 15.1107C21.0084 16.3969 22.2065 17.7218 22.6509 18.1644C23.5089 19.0191 24.7105 19.9002 25.1845 20.233L20.6085 25.8398C19.0697 24.6321 16.1426 21.7379 15.3219 20.233C15.2833 20.1622 15.2466 20.0818 15.2118 19.9927C14.3703 18.6258 13.8453 16.7711 13.7535 16.3595C13.7187 16.2038 13.6327 15.9864 13.5254 15.7151C13.3419 15.2514 13.0962 14.6304 12.9379 13.8912C12.7372 12.9539 12.091 11.1469 11.793 10.3606C11.6152 9.82945 11.5616 8.63745 12.5654 8.15004C13.2728 7.80652 13.881 7.99376 14.2635 8.29014Z" fill="url(#paint56_radial_37_207)"/>
<path d="M9.35063 10.7864C9.17345 9.96484 9.68784 9.15408 10.5066 8.9644V8.9644C11.3542 8.76803 12.1973 9.31189 12.3678 10.165L13.4909 15.784L10.5742 16.4597L9.35063 10.7864Z" fill="url(#paint57_radial_37_207)"/>
<path d="M10.3669 9.62383L10.4381 5.43341C10.4508 4.68803 10.9913 4.07369 11.6998 3.94421C11.7871 3.16708 12.4461 2.56702 13.2421 2.56702C14.039 2.56702 14.6927 3.16668 14.7835 3.9348C15.5536 4.045 16.1383 4.72002 16.1126 5.52084L16.1034 5.80552C16.9668 5.81982 17.6526 6.54206 17.6185 7.40827L17.4692 11.209C17.4382 12.2127 17.383 13.9226 17.3404 14.8349C17.2777 16.1784 17.1365 19.1153 15.8818 20.7557C14.878 22.0679 12.9019 24.5622 12.0392 25.6454L7.02039 20.3807C7.20333 20.17 7.38973 19.9613 7.57633 19.7524C8.20376 19.0499 8.83342 18.3448 9.3416 17.5531C9.95328 16.6002 10.1101 15.2879 10.0787 14.4131C10.0474 13.5382 10.0944 12.6947 10.2042 12.3666C10.2632 12.1904 10.2769 11.6357 10.2916 11.0438C10.3042 10.5335 10.3175 9.99549 10.3611 9.64835C10.3621 9.63989 10.3641 9.63172 10.3669 9.62383Z" fill="url(#paint58_linear_37_207)"/>
<path d="M10.3669 9.62383L10.4381 5.43341C10.4508 4.68803 10.9913 4.07369 11.6998 3.94421C11.7871 3.16708 12.4461 2.56702 13.2421 2.56702C14.039 2.56702 14.6927 3.16668 14.7835 3.9348C15.5536 4.045 16.1383 4.72002 16.1126 5.52084L16.1034 5.80552C16.9668 5.81982 17.6526 6.54206 17.6185 7.40827L17.4692 11.209C17.4382 12.2127 17.383 13.9226 17.3404 14.8349C17.2777 16.1784 17.1365 19.1153 15.8818 20.7557C14.878 22.0679 12.9019 24.5622 12.0392 25.6454L7.02039 20.3807C7.20333 20.17 7.38973 19.9613 7.57633 19.7524C8.20376 19.0499 8.83342 18.3448 9.3416 17.5531C9.95328 16.6002 10.1101 15.2879 10.0787 14.4131C10.0474 13.5382 10.0944 12.6947 10.2042 12.3666C10.2632 12.1904 10.2769 11.6357 10.2916 11.0438C10.3042 10.5335 10.3175 9.99549 10.3611 9.64835C10.3621 9.63989 10.3641 9.63172 10.3669 9.62383Z" fill="url(#paint59_linear_37_207)"/>
<path d="M10.3669 9.62383L10.4381 5.43341C10.4508 4.68803 10.9913 4.07369 11.6998 3.94421C11.7871 3.16708 12.4461 2.56702 13.2421 2.56702C14.039 2.56702 14.6927 3.16668 14.7835 3.9348C15.5536 4.045 16.1383 4.72002 16.1126 5.52084L16.1034 5.80552C16.9668 5.81982 17.6526 6.54206 17.6185 7.40827L17.4692 11.209C17.4382 12.2127 17.383 13.9226 17.3404 14.8349C17.2777 16.1784 17.1365 19.1153 15.8818 20.7557C14.878 22.0679 12.9019 24.5622 12.0392 25.6454L7.02039 20.3807C7.20333 20.17 7.38973 19.9613 7.57633 19.7524C8.20376 19.0499 8.83342 18.3448 9.3416 17.5531C9.95328 16.6002 10.1101 15.2879 10.0787 14.4131C10.0474 13.5382 10.0944 12.6947 10.2042 12.3666C10.2632 12.1904 10.2769 11.6357 10.2916 11.0438C10.3042 10.5335 10.3175 9.99549 10.3611 9.64835C10.3621 9.63989 10.3641 9.63172 10.3669 9.62383Z" fill="url(#paint60_radial_37_207)"/>
<path d="M10.3669 9.62383L10.4381 5.43341C10.4508 4.68803 10.9913 4.07369 11.6998 3.94421C11.7871 3.16708 12.4461 2.56702 13.2421 2.56702C14.039 2.56702 14.6927 3.16668 14.7835 3.9348C15.5536 4.045 16.1383 4.72002 16.1126 5.52084L16.1034 5.80552C16.9668 5.81982 17.6526 6.54206 17.6185 7.40827L17.4692 11.209C17.4382 12.2127 17.383 13.9226 17.3404 14.8349C17.2777 16.1784 17.1365 19.1153 15.8818 20.7557C14.878 22.0679 12.9019 24.5622 12.0392 25.6454L7.02039 20.3807C7.20333 20.17 7.38973 19.9613 7.57633 19.7524C8.20376 19.0499 8.83342 18.3448 9.3416 17.5531C9.95328 16.6002 10.1101 15.2879 10.0787 14.4131C10.0474 13.5382 10.0944 12.6947 10.2042 12.3666C10.2632 12.1904 10.2769 11.6357 10.2916 11.0438C10.3042 10.5335 10.3175 9.99549 10.3611 9.64835C10.3621 9.63989 10.3641 9.63172 10.3669 9.62383Z" fill="url(#paint61_radial_37_207)"/>
<path d="M10.3669 9.62383L10.4381 5.43341C10.4508 4.68803 10.9913 4.07369 11.6998 3.94421C11.7871 3.16708 12.4461 2.56702 13.2421 2.56702C14.039 2.56702 14.6927 3.16668 14.7835 3.9348C15.5536 4.045 16.1383 4.72002 16.1126 5.52084L16.1034 5.80552C16.9668 5.81982 17.6526 6.54206 17.6185 7.40827L17.4692 11.209C17.4382 12.2127 17.383 13.9226 17.3404 14.8349C17.2777 16.1784 17.1365 19.1153 15.8818 20.7557C14.878 22.0679 12.9019 24.5622 12.0392 25.6454L7.02039 20.3807C7.20333 20.17 7.38973 19.9613 7.57633 19.7524C8.20376 19.0499 8.83342 18.3448 9.3416 17.5531C9.95328 16.6002 10.1101 15.2879 10.0787 14.4131C10.0474 13.5382 10.0944 12.6947 10.2042 12.3666C10.2632 12.1904 10.2769 11.6357 10.2916 11.0438C10.3042 10.5335 10.3175 9.99549 10.3611 9.64835C10.3621 9.63989 10.3641 9.63172 10.3669 9.62383Z" fill="url(#paint62_radial_37_207)"/>
<path d="M10.3669 9.62383L10.4381 5.43341C10.4508 4.68803 10.9913 4.07369 11.6998 3.94421C11.7871 3.16708 12.4461 2.56702 13.2421 2.56702C14.039 2.56702 14.6927 3.16668 14.7835 3.9348C15.5536 4.045 16.1383 4.72002 16.1126 5.52084L16.1034 5.80552C16.9668 5.81982 17.6526 6.54206 17.6185 7.40827L17.4692 11.209C17.4382 12.2127 17.383 13.9226 17.3404 14.8349C17.2777 16.1784 17.1365 19.1153 15.8818 20.7557C14.878 22.0679 12.9019 24.5622 12.0392 25.6454L7.02039 20.3807C7.20333 20.17 7.38973 19.9613 7.57633 19.7524C8.20376 19.0499 8.83342 18.3448 9.3416 17.5531C9.95328 16.6002 10.1101 15.2879 10.0787 14.4131C10.0474 13.5382 10.0944 12.6947 10.2042 12.3666C10.2632 12.1904 10.2769 11.6357 10.2916 11.0438C10.3042 10.5335 10.3175 9.99549 10.3611 9.64835C10.3621 9.63989 10.3641 9.63172 10.3669 9.62383Z" fill="url(#paint63_radial_37_207)"/>
<path d="M10.3669 9.62383L10.4381 5.43341C10.4508 4.68803 10.9913 4.07369 11.6998 3.94421C11.7871 3.16708 12.4461 2.56702 13.2421 2.56702C14.039 2.56702 14.6927 3.16668 14.7835 3.9348C15.5536 4.045 16.1383 4.72002 16.1126 5.52084L16.1034 5.80552C16.9668 5.81982 17.6526 6.54206 17.6185 7.40827L17.4692 11.209C17.4382 12.2127 17.383 13.9226 17.3404 14.8349C17.2777 16.1784 17.1365 19.1153 15.8818 20.7557C14.878 22.0679 12.9019 24.5622 12.0392 25.6454L7.02039 20.3807C7.20333 20.17 7.38973 19.9613 7.57633 19.7524C8.20376 19.0499 8.83342 18.3448 9.3416 17.5531C9.95328 16.6002 10.1101 15.2879 10.0787 14.4131C10.0474 13.5382 10.0944 12.6947 10.2042 12.3666C10.2632 12.1904 10.2769 11.6357 10.2916 11.0438C10.3042 10.5335 10.3175 9.99549 10.3611 9.64835C10.3621 9.63989 10.3641 9.63172 10.3669 9.62383Z" fill="url(#paint64_radial_37_207)"/>
<path d="M10.3669 9.62383L10.4381 5.43341C10.4508 4.68803 10.9913 4.07369 11.6998 3.94421C11.7871 3.16708 12.4461 2.56702 13.2421 2.56702C14.039 2.56702 14.6927 3.16668 14.7835 3.9348C15.5536 4.045 16.1383 4.72002 16.1126 5.52084L16.1034 5.80552C16.9668 5.81982 17.6526 6.54206 17.6185 7.40827L17.4692 11.209C17.4382 12.2127 17.383 13.9226 17.3404 14.8349C17.2777 16.1784 17.1365 19.1153 15.8818 20.7557C14.878 22.0679 12.9019 24.5622 12.0392 25.6454L7.02039 20.3807C7.20333 20.17 7.38973 19.9613 7.57633 19.7524C8.20376 19.0499 8.83342 18.3448 9.3416 17.5531C9.95328 16.6002 10.1101 15.2879 10.0787 14.4131C10.0474 13.5382 10.0944 12.6947 10.2042 12.3666C10.2632 12.1904 10.2769 11.6357 10.2916 11.0438C10.3042 10.5335 10.3175 9.99549 10.3611 9.64835C10.3621 9.63989 10.3641 9.63172 10.3669 9.62383Z" fill="url(#paint65_radial_37_207)"/>
<path d="M14.5361 7.28714C14.5686 6.45949 15.2491 5.8053 16.0773 5.8053V5.8053C16.9529 5.8053 17.6529 6.53334 17.6186 7.40826L17.4477 11.7573H14.8805C14.5967 11.7573 14.3697 11.5213 14.3809 11.2377L14.5361 7.28714Z" fill="url(#paint66_radial_37_207)"/>
<path d="M14.5361 7.28714C14.5686 6.45949 15.2491 5.8053 16.0773 5.8053V5.8053C16.9529 5.8053 17.6529 6.53334 17.6186 7.40826L17.4477 11.7573H14.8805C14.5967 11.7573 14.3697 11.5213 14.3809 11.2377L14.5361 7.28714Z" fill="url(#paint67_radial_37_207)"/>
<path d="M14.5614 3.91907C13.7238 3.91907 13.0372 4.58385 13.0103 5.4211L12.84 10.7187C12.8309 11.001 13.0573 11.2347 13.3397 11.2347H14.3807L14.5359 7.28715C14.5684 6.45951 15.2488 5.80531 16.0771 5.80531C16.0859 5.80531 16.0946 5.80538 16.1034 5.80553L16.1125 5.52085C16.1407 4.64466 15.4381 3.91907 14.5614 3.91907Z" fill="url(#paint68_radial_37_207)"/>
<path d="M14.5614 3.91907C13.7238 3.91907 13.0372 4.58385 13.0103 5.4211L12.84 10.7187C12.8309 11.001 13.0573 11.2347 13.3397 11.2347H14.3807L14.5359 7.28715C14.5684 6.45951 15.2488 5.80531 16.0771 5.80531C16.0859 5.80531 16.0946 5.80538 16.1034 5.80553L16.1125 5.52085C16.1407 4.64466 15.4381 3.91907 14.5614 3.91907Z" fill="url(#paint69_radial_37_207)"/>
<path d="M14.5614 3.91907C13.7238 3.91907 13.0372 4.58385 13.0103 5.4211L12.84 10.7187C12.8309 11.001 13.0573 11.2347 13.3397 11.2347H14.3807L14.5359 7.28715C14.5684 6.45951 15.2488 5.80531 16.0771 5.80531C16.0859 5.80531 16.0946 5.80538 16.1034 5.80553L16.1125 5.52085C16.1407 4.64466 15.4381 3.91907 14.5614 3.91907Z" fill="url(#paint70_radial_37_207)"/>
<path d="M14.5614 3.91907C13.7238 3.91907 13.0372 4.58385 13.0103 5.4211L12.84 10.7187C12.8309 11.001 13.0573 11.2347 13.3397 11.2347H14.3807L14.5359 7.28715C14.5684 6.45951 15.2488 5.80531 16.0771 5.80531C16.0859 5.80531 16.0946 5.80538 16.1034 5.80553L16.1125 5.52085C16.1407 4.64466 15.4381 3.91907 14.5614 3.91907Z" fill="url(#paint71_radial_37_207)"/>
<path d="M14.5614 3.91907C13.7238 3.91907 13.0372 4.58385 13.0103 5.4211L12.84 10.7187C12.8309 11.001 13.0573 11.2347 13.3397 11.2347H14.3807L14.5359 7.28715C14.5684 6.45951 15.2488 5.80531 16.0771 5.80531C16.0859 5.80531 16.0946 5.80538 16.1034 5.80553L16.1125 5.52085C16.1407 4.64466 15.4381 3.91907 14.5614 3.91907Z" fill="url(#paint72_radial_37_207)"/>
<path d="M14.5614 3.91907C13.7238 3.91907 13.0372 4.58385 13.0103 5.4211L12.84 10.7187C12.8309 11.001 13.0573 11.2347 13.3397 11.2347H14.3807L14.5359 7.28715C14.5684 6.45951 15.2488 5.80531 16.0771 5.80531C16.0859 5.80531 16.0946 5.80538 16.1034 5.80553L16.1125 5.52085C16.1407 4.64466 15.4381 3.91907 14.5614 3.91907Z" fill="url(#paint73_radial_37_207)"/>
<path d="M13.2419 2.56702C12.4011 2.56702 11.7132 3.23652 11.6904 4.07702L11.51 10.7212C11.5023 11.0025 11.7283 11.2347 12.0098 11.2347H13.3375C13.056 11.2335 12.8309 11.0002 12.8399 10.7187L13.0103 5.4211C13.0372 4.58385 13.7237 3.91906 14.5614 3.91906C14.6367 3.91906 14.7108 3.92443 14.7833 3.93479C14.6925 3.16667 14.0388 2.56702 13.2419 2.56702Z" fill="url(#paint74_radial_37_207)"/>
<path d="M13.2419 2.56702C12.4011 2.56702 11.7132 3.23652 11.6904 4.07702L11.51 10.7212C11.5023 11.0025 11.7283 11.2347 12.0098 11.2347H13.3375C13.056 11.2335 12.8309 11.0002 12.8399 10.7187L13.0103 5.4211C13.0372 4.58385 13.7237 3.91906 14.5614 3.91906C14.6367 3.91906 14.7108 3.92443 14.7833 3.93479C14.6925 3.16667 14.0388 2.56702 13.2419 2.56702Z" fill="url(#paint75_radial_37_207)"/>
<path d="M13.2419 2.56702C12.4011 2.56702 11.7132 3.23652 11.6904 4.07702L11.51 10.7212C11.5023 11.0025 11.7283 11.2347 12.0098 11.2347H13.3375C13.056 11.2335 12.8309 11.0002 12.8399 10.7187L13.0103 5.4211C13.0372 4.58385 13.7237 3.91906 14.5614 3.91906C14.6367 3.91906 14.7108 3.92443 14.7833 3.93479C14.6925 3.16667 14.0388 2.56702 13.2419 2.56702Z" fill="url(#paint76_radial_37_207)"/>
<path d="M13.2419 2.56702C12.4011 2.56702 11.7132 3.23652 11.6904 4.07702L11.51 10.7212C11.5023 11.0025 11.7283 11.2347 12.0098 11.2347H13.3375C13.056 11.2335 12.8309 11.0002 12.8399 10.7187L13.0103 5.4211C13.0372 4.58385 13.7237 3.91906 14.5614 3.91906C14.6367 3.91906 14.7108 3.92443 14.7833 3.93479C14.6925 3.16667 14.0388 2.56702 13.2419 2.56702Z" fill="url(#paint77_radial_37_207)"/>
<path d="M13.2419 2.56702C12.4011 2.56702 11.7132 3.23652 11.6904 4.07702L11.51 10.7212C11.5023 11.0025 11.7283 11.2347 12.0098 11.2347H13.3375C13.056 11.2335 12.8309 11.0002 12.8399 10.7187L13.0103 5.4211C13.0372 4.58385 13.7237 3.91906 14.5614 3.91906C14.6367 3.91906 14.7108 3.92443 14.7833 3.93479C14.6925 3.16667 14.0388 2.56702 13.2419 2.56702Z" fill="url(#paint78_radial_37_207)"/>
<path d="M13.2419 2.56702C12.4011 2.56702 11.7132 3.23652 11.6904 4.07702L11.51 10.7212C11.5023 11.0025 11.7283 11.2347 12.0098 11.2347H13.3375C13.056 11.2335 12.8309 11.0002 12.8399 10.7187L13.0103 5.4211C13.0372 4.58385 13.7237 3.91906 14.5614 3.91906C14.6367 3.91906 14.7108 3.92443 14.7833 3.93479C14.6925 3.16667 14.0388 2.56702 13.2419 2.56702Z" fill="url(#paint79_radial_37_207)"/>
<path d="M11.6996 3.94421C11.6947 3.98794 11.6916 4.03223 11.6904 4.077L11.51 10.7211C11.5023 11.0017 11.7271 11.2334 12.0075 11.2347H10.3395L10.4381 5.43338C10.4508 4.68806 10.9912 4.07376 11.6996 3.94421Z" fill="url(#paint80_radial_37_207)"/>
<path d="M11.6996 3.94421C11.6947 3.98794 11.6916 4.03223 11.6904 4.077L11.51 10.7211C11.5023 11.0017 11.7271 11.2334 12.0075 11.2347H10.3395L10.4381 5.43338C10.4508 4.68806 10.9912 4.07376 11.6996 3.94421Z" fill="url(#paint81_radial_37_207)"/>
<path d="M11.6996 3.94421C11.6947 3.98794 11.6916 4.03223 11.6904 4.077L11.51 10.7211C11.5023 11.0017 11.7271 11.2334 12.0075 11.2347H10.3395L10.4381 5.43338C10.4508 4.68806 10.9912 4.07376 11.6996 3.94421Z" fill="url(#paint82_radial_37_207)"/>
<path d="M11.6996 3.94421C11.6947 3.98794 11.6916 4.03223 11.6904 4.077L11.51 10.7211C11.5023 11.0017 11.7271 11.2334 12.0075 11.2347H10.3395L10.4381 5.43338C10.4508 4.68806 10.9912 4.07376 11.6996 3.94421Z" fill="url(#paint83_radial_37_207)"/>
<path d="M11.6996 3.94421C11.6947 3.98794 11.6916 4.03223 11.6904 4.077L11.51 10.7211C11.5023 11.0017 11.7271 11.2334 12.0075 11.2347H10.3395L10.4381 5.43338C10.4508 4.68806 10.9912 4.07376 11.6996 3.94421Z" fill="url(#paint84_radial_37_207)"/>
<path d="M5.69421 19.6413L1.99683 23.2737V29.9037H9.61102L12.7952 26.7321C13.3056 26.2237 13.3052 25.3971 12.7943 24.8891L7.52188 19.6468C7.01696 19.1447 6.20213 19.1423 5.69421 19.6413Z" fill="url(#paint85_linear_37_207)"/>
<path d="M5.69421 19.6413L1.99683 23.2737V29.9037H9.61102L12.7952 26.7321C13.3056 26.2237 13.3052 25.3971 12.7943 24.8891L7.52188 19.6468C7.01696 19.1447 6.20213 19.1423 5.69421 19.6413Z" fill="url(#paint86_linear_37_207)"/>
<path d="M5.69421 19.6413L1.99683 23.2737V29.9037H9.61102L12.7952 26.7321C13.3056 26.2237 13.3052 25.3971 12.7943 24.8891L7.52188 19.6468C7.01696 19.1447 6.20213 19.1423 5.69421 19.6413Z" fill="url(#paint87_radial_37_207)"/>
<path d="M5.69421 19.6413L1.99683 23.2737V29.9037H9.61102L12.7952 26.7321C13.3056 26.2237 13.3052 25.3971 12.7943 24.8891L7.52188 19.6468C7.01696 19.1447 6.20213 19.1423 5.69421 19.6413Z" fill="url(#paint88_linear_37_207)"/>
<path d="M5.69421 19.6413L1.99683 23.2737V29.9037H9.61102L12.7952 26.7321C13.3056 26.2237 13.3052 25.3971 12.7943 24.8891L7.52188 19.6468C7.01696 19.1447 6.20213 19.1423 5.69421 19.6413Z" fill="url(#paint89_radial_37_207)"/>
<ellipse cx="0.777338" cy="2.25191" rx="0.777338" ry="2.25191" transform="matrix(0.999813 0.019319 -0.0194722 0.99981 12.8938 8.26819)" fill="url(#paint90_radial_37_207)"/>
<ellipse cx="0.574358" cy="2.2519" rx="0.574358" ry="2.2519" transform="matrix(0.999985 0.00542921 -0.00547226 0.999985 11.7158 7.94739)" fill="url(#paint91_radial_37_207)"/>
<path d="M17.4438 11.7573C17.4226 12.2792 17.4085 12.7719 17.3949 13.2482C17.3795 13.7922 17.3646 14.3147 17.3403 14.8349C17.2775 16.1784 17.1364 19.1153 15.8817 20.7557C14.8779 22.0679 12.9017 24.5622 12.0391 25.6454L7.02026 20.3807C7.20321 20.17 7.38961 19.9613 7.57621 19.7524C8.20363 19.0499 8.8333 18.3448 9.34148 17.5531C9.95315 16.6002 10.11 15.2879 10.0786 14.4131C10.0473 13.5382 10.0943 12.6946 10.2041 12.3666C10.2631 12.1904 10.2768 11.6357 10.2914 11.0438C10.3041 10.5335 10.3174 9.99548 10.3609 9.64833C10.362 9.63991 10.3639 9.63157 10.3668 9.62329L10.438 5.43341C10.4507 4.68803 10.9912 4.07369 11.6996 3.94421C11.787 3.16708 12.446 2.56702 13.242 2.56702C14.0389 2.56702 14.6925 3.16668 14.7833 3.9348C15.5535 4.045 16.1382 4.72002 16.1125 5.52084L16.1033 5.80552C16.9667 5.81982 17.6525 6.54206 17.6184 7.40827L17.5052 10.2905C17.5132 10.3353 17.5159 10.3816 17.5128 10.4294C17.4968 10.6774 17.4832 10.918 17.4713 11.1524L17.4475 11.7573H17.4438Z" fill="url(#paint92_radial_37_207)"/>
<path d="M17.4438 11.7573C17.4226 12.2792 17.4085 12.7719 17.3949 13.2482C17.3795 13.7922 17.3646 14.3147 17.3403 14.8349C17.2775 16.1784 17.1364 19.1153 15.8817 20.7557C14.8779 22.0679 12.9017 24.5622 12.0391 25.6454L7.02026 20.3807C7.20321 20.17 7.38961 19.9613 7.57621 19.7524C8.20363 19.0499 8.8333 18.3448 9.34148 17.5531C9.95315 16.6002 10.11 15.2879 10.0786 14.4131C10.0473 13.5382 10.0943 12.6946 10.2041 12.3666C10.2631 12.1904 10.2768 11.6357 10.2914 11.0438C10.3041 10.5335 10.3174 9.99548 10.3609 9.64833C10.362 9.63991 10.3639 9.63157 10.3668 9.62329L10.438 5.43341C10.4507 4.68803 10.9912 4.07369 11.6996 3.94421C11.787 3.16708 12.446 2.56702 13.242 2.56702C14.0389 2.56702 14.6925 3.16668 14.7833 3.9348C15.5535 4.045 16.1382 4.72002 16.1125 5.52084L16.1033 5.80552C16.9667 5.81982 17.6525 6.54206 17.6184 7.40827L17.5052 10.2905C17.5132 10.3353 17.5159 10.3816 17.5128 10.4294C17.4968 10.6774 17.4832 10.918 17.4713 11.1524L17.4475 11.7573H17.4438Z" fill="url(#paint93_radial_37_207)"/>
<path d="M17.4438 11.7573C17.4226 12.2792 17.4085 12.7719 17.3949 13.2482C17.3795 13.7922 17.3646 14.3147 17.3403 14.8349C17.2775 16.1784 17.1364 19.1153 15.8817 20.7557C14.8779 22.0679 12.9017 24.5622 12.0391 25.6454L7.02026 20.3807C7.20321 20.17 7.38961 19.9613 7.57621 19.7524C8.20363 19.0499 8.8333 18.3448 9.34148 17.5531C9.95315 16.6002 10.11 15.2879 10.0786 14.4131C10.0473 13.5382 10.0943 12.6946 10.2041 12.3666C10.2631 12.1904 10.2768 11.6357 10.2914 11.0438C10.3041 10.5335 10.3174 9.99548 10.3609 9.64833C10.362 9.63991 10.3639 9.63157 10.3668 9.62329L10.438 5.43341C10.4507 4.68803 10.9912 4.07369 11.6996 3.94421C11.787 3.16708 12.446 2.56702 13.242 2.56702C14.0389 2.56702 14.6925 3.16668 14.7833 3.9348C15.5535 4.045 16.1382 4.72002 16.1125 5.52084L16.1033 5.80552C16.9667 5.81982 17.6525 6.54206 17.6184 7.40827L17.5052 10.2905C17.5132 10.3353 17.5159 10.3816 17.5128 10.4294C17.4968 10.6774 17.4832 10.918 17.4713 11.1524L17.4475 11.7573H17.4438Z" fill="url(#paint94_radial_37_207)"/>
<path d="M17.4438 11.7573C17.4226 12.2792 17.4085 12.7719 17.3949 13.2482C17.3795 13.7922 17.3646 14.3147 17.3403 14.8349C17.2775 16.1784 17.1364 19.1153 15.8817 20.7557C14.8779 22.0679 12.9017 24.5622 12.0391 25.6454L7.02026 20.3807C7.20321 20.17 7.38961 19.9613 7.57621 19.7524C8.20363 19.0499 8.8333 18.3448 9.34148 17.5531C9.95315 16.6002 10.11 15.2879 10.0786 14.4131C10.0473 13.5382 10.0943 12.6946 10.2041 12.3666C10.2631 12.1904 10.2768 11.6357 10.2914 11.0438C10.3041 10.5335 10.3174 9.99548 10.3609 9.64833C10.362 9.63991 10.3639 9.63157 10.3668 9.62329L10.438 5.43341C10.4507 4.68803 10.9912 4.07369 11.6996 3.94421C11.787 3.16708 12.446 2.56702 13.242 2.56702C14.0389 2.56702 14.6925 3.16668 14.7833 3.9348C15.5535 4.045 16.1382 4.72002 16.1125 5.52084L16.1033 5.80552C16.9667 5.81982 17.6525 6.54206 17.6184 7.40827L17.5052 10.2905C17.5132 10.3353 17.5159 10.3816 17.5128 10.4294C17.4968 10.6774 17.4832 10.918 17.4713 11.1524L17.4475 11.7573H17.4438Z" fill="url(#paint95_radial_37_207)"/>
<path d="M17.4438 11.7573C17.4226 12.2792 17.4085 12.7719 17.3949 13.2482C17.3795 13.7922 17.3646 14.3147 17.3403 14.8349C17.2775 16.1784 17.1364 19.1153 15.8817 20.7557C14.8779 22.0679 12.9017 24.5622 12.0391 25.6454L7.02026 20.3807C7.20321 20.17 7.38961 19.9613 7.57621 19.7524C8.20363 19.0499 8.8333 18.3448 9.34148 17.5531C9.95315 16.6002 10.11 15.2879 10.0786 14.4131C10.0473 13.5382 10.0943 12.6946 10.2041 12.3666C10.2631 12.1904 10.2768 11.6357 10.2914 11.0438C10.3041 10.5335 10.3174 9.99548 10.3609 9.64833C10.362 9.63991 10.3639 9.63157 10.3668 9.62329L10.438 5.43341C10.4507 4.68803 10.9912 4.07369 11.6996 3.94421C11.787 3.16708 12.446 2.56702 13.242 2.56702C14.0389 2.56702 14.6925 3.16668 14.7833 3.9348C15.5535 4.045 16.1382 4.72002 16.1125 5.52084L16.1033 5.80552C16.9667 5.81982 17.6525 6.54206 17.6184 7.40827L17.5052 10.2905C17.5132 10.3353 17.5159 10.3816 17.5128 10.4294C17.4968 10.6774 17.4832 10.918 17.4713 11.1524L17.4475 11.7573H17.4438Z" fill="url(#paint96_radial_37_207)"/>
<path d="M17.4438 11.7573C17.4226 12.2792 17.4085 12.7719 17.3949 13.2482C17.3795 13.7922 17.3646 14.3147 17.3403 14.8349C17.2775 16.1784 17.1364 19.1153 15.8817 20.7557C14.8779 22.0679 12.9017 24.5622 12.0391 25.6454L7.02026 20.3807C7.20321 20.17 7.38961 19.9613 7.57621 19.7524C8.20363 19.0499 8.8333 18.3448 9.34148 17.5531C9.95315 16.6002 10.11 15.2879 10.0786 14.4131C10.0473 13.5382 10.0943 12.6946 10.2041 12.3666C10.2631 12.1904 10.2768 11.6357 10.2914 11.0438C10.3041 10.5335 10.3174 9.99548 10.3609 9.64833C10.362 9.63991 10.3639 9.63157 10.3668 9.62329L10.438 5.43341C10.4507 4.68803 10.9912 4.07369 11.6996 3.94421C11.787 3.16708 12.446 2.56702 13.242 2.56702C14.0389 2.56702 14.6925 3.16668 14.7833 3.9348C15.5535 4.045 16.1382 4.72002 16.1125 5.52084L16.1033 5.80552C16.9667 5.81982 17.6525 6.54206 17.6184 7.40827L17.5052 10.2905C17.5132 10.3353 17.5159 10.3816 17.5128 10.4294C17.4968 10.6774 17.4832 10.918 17.4713 11.1524L17.4475 11.7573H17.4438Z" fill="url(#paint97_radial_37_207)"/>
<path d="M17.4438 11.7573C17.4226 12.2792 17.4085 12.7719 17.3949 13.2482C17.3795 13.7922 17.3646 14.3147 17.3403 14.8349C17.2775 16.1784 17.1364 19.1153 15.8817 20.7557C14.8779 22.0679 12.9017 24.5622 12.0391 25.6454L7.02026 20.3807C7.20321 20.17 7.38961 19.9613 7.57621 19.7524C8.20363 19.0499 8.8333 18.3448 9.34148 17.5531C9.95315 16.6002 10.11 15.2879 10.0786 14.4131C10.0473 13.5382 10.0943 12.6946 10.2041 12.3666C10.2631 12.1904 10.2768 11.6357 10.2914 11.0438C10.3041 10.5335 10.3174 9.99548 10.3609 9.64833C10.362 9.63991 10.3639 9.63157 10.3668 9.62329L10.438 5.43341C10.4507 4.68803 10.9912 4.07369 11.6996 3.94421C11.787 3.16708 12.446 2.56702 13.242 2.56702C14.0389 2.56702 14.6925 3.16668 14.7833 3.9348C15.5535 4.045 16.1382 4.72002 16.1125 5.52084L16.1033 5.80552C16.9667 5.81982 17.6525 6.54206 17.6184 7.40827L17.5052 10.2905C17.5132 10.3353 17.5159 10.3816 17.5128 10.4294C17.4968 10.6774 17.4832 10.918 17.4713 11.1524L17.4475 11.7573H17.4438Z" fill="url(#paint98_radial_37_207)"/>
<path d="M17.4438 11.7573C17.4226 12.2792 17.4085 12.7719 17.3949 13.2482C17.3795 13.7922 17.3646 14.3147 17.3403 14.8349C17.2775 16.1784 17.1364 19.1153 15.8817 20.7557C14.8779 22.0679 12.9017 24.5622 12.0391 25.6454L7.02026 20.3807C7.20321 20.17 7.38961 19.9613 7.57621 19.7524C8.20363 19.0499 8.8333 18.3448 9.34148 17.5531C9.95315 16.6002 10.11 15.2879 10.0786 14.4131C10.0473 13.5382 10.0943 12.6946 10.2041 12.3666C10.2631 12.1904 10.2768 11.6357 10.2914 11.0438C10.3041 10.5335 10.3174 9.99548 10.3609 9.64833C10.362 9.63991 10.3639 9.63157 10.3668 9.62329L10.438 5.43341C10.4507 4.68803 10.9912 4.07369 11.6996 3.94421C11.787 3.16708 12.446 2.56702 13.242 2.56702C14.0389 2.56702 14.6925 3.16668 14.7833 3.9348C15.5535 4.045 16.1382 4.72002 16.1125 5.52084L16.1033 5.80552C16.9667 5.81982 17.6525 6.54206 17.6184 7.40827L17.5052 10.2905C17.5132 10.3353 17.5159 10.3816 17.5128 10.4294C17.4968 10.6774 17.4832 10.918 17.4713 11.1524L17.4475 11.7573H17.4438Z" fill="url(#paint99_radial_37_207)"/>
<defs>
<radialGradient id="paint0_radial_37_207" cx="0" cy="0" r="1" gradientUnits="userSpaceOnUse" gradientTransform="translate(20.5632 8.13253) rotate(1.6458) scale(2.81095 14.0532)">
<stop stop-color="#BC9080"/>
<stop offset="1" stop-color="#BC9080" stop-opacity="0"/>
</radialGradient>
<radialGradient id="paint1_radial_37_207" cx="0" cy="0" r="1" gradientUnits="userSpaceOnUse" gradientTransform="translate(23.5351 17.8204) rotate(-27.0434) scale(4.85341 4.84221)">
<stop stop-color="#CCA488"/>
<stop offset="1" stop-color="#CCA488" stop-opacity="0"/>
</radialGradient>
<radialGradient id="paint2_radial_37_207" cx="0" cy="0" r="1" gradientUnits="userSpaceOnUse" gradientTransform="translate(23.7242 20.4576) rotate(-49.5238) scale(6.36793 6.37193)">
<stop stop-color="#CCA188"/>
<stop offset="1" stop-color="#CCA188" stop-opacity="0"/>
</radialGradient>
<radialGradient id="paint3_radial_37_207" cx="0" cy="0" r="1" gradientUnits="userSpaceOnUse" gradientTransform="translate(23.7255 19.1232) rotate(-50.314) scale(0.903355 3.25741)">
<stop stop-color="#C09F84"/>
<stop offset="0.503018" stop-color="#C09F84" stop-opacity="0"/>
</radialGradient>
<linearGradient id="paint4_linear_37_207" x1="22.0659" y1="22.1241" x2="21.5817" y2="21.6379" gradientUnits="userSpaceOnUse">
<stop stop-color="#9D637A"/>
<stop offset="1" stop-color="#9D637A" stop-opacity="0"/>
</linearGradient>
<radialGradient id="paint5_radial_37_207" cx="0" cy="0" r="1" gradientUnits="userSpaceOnUse" gradientTransform="translate(17.003 21.3781) scale(2.08715 13.0799)">
<stop stop-color="#844F5A"/>
<stop offset="1" stop-color="#844F5A" stop-opacity="0"/>
</radialGradient>
<radialGradient id="paint6_radial_37_207" cx="0" cy="0" r="1" gradientUnits="userSpaceOnUse" gradientTransform="translate(19.351 24.0923) rotate(-90) scale(3.20501 7.38272)">
<stop stop-color="#915180"/>
<stop offset="1" stop-color="#915180" stop-opacity="0"/>
</radialGradient>
<radialGradient id="paint7_radial_37_207" cx="0" cy="0" r="1" gradientUnits="userSpaceOnUse" gradientTransform="translate(17.3744 22.539) rotate(-23.689) scale(3.57177 7.25403)">
<stop stop-color="#FF44A9" stop-opacity="0.2"/>
<stop offset="1" stop-color="#FF44A9" stop-opacity="0"/>
</radialGradient>
<radialGradient id="paint8_radial_37_207" cx="0" cy="0" r="1" gradientUnits="userSpaceOnUse" gradientTransform="translate(17.5333 23.0302) rotate(-44.8869) scale(0.520213 6.97302)">
<stop stop-color="#F0A9B9" stop-opacity="0.6"/>
<stop offset="1" stop-color="#F0A9B9" stop-opacity="0"/>
</radialGradient>
<radialGradient id="paint9_radial_37_207" cx="0" cy="0" r="1" gradientUnits="userSpaceOnUse" gradientTransform="translate(15.6983 13.1258) scale(3.26225 8.40361)">
<stop stop-color="#40231D"/>
<stop offset="1" stop-color="#40231D" stop-opacity="0"/>
</radialGradient>
<radialGradient id="paint10_radial_37_207" cx="0" cy="0" r="1" gradientUnits="userSpaceOnUse" gradientTransform="translate(13.628 17.9061) scale(4.61107 7.93359)">
<stop stop-color="#40231D"/>
<stop offset="1" stop-color="#7D4C5A" stop-opacity="0"/>
</radialGradient>
<radialGradient id="paint11_radial_37_207" cx="0" cy="0" r="1" gradientUnits="userSpaceOnUse" gradientTransform="translate(20.2937 6.17392) rotate(135.113) scale(2.21367 2.21366)">
<stop stop-color="#CAA28D"/>
<stop offset="1" stop-color="#CAA28D" stop-opacity="0"/>
</radialGradient>
<radialGradient id="paint12_radial_37_207" cx="0" cy="0" r="1" gradientUnits="userSpaceOnUse" gradientTransform="translate(19.0098 14.5882) scale(1.71328 8.26116)">
<stop stop-color="#A27071"/>
<stop offset="0.704545" stop-color="#A27071" stop-opacity="0"/>
</radialGradient>
<radialGradient id="paint13_radial_37_207" cx="0" cy="0" r="1" gradientUnits="userSpaceOnUse" gradientTransform="translate(17.0128 9.6396) rotate(90) scale(12.4066 2.21008)">
<stop stop-color="#6A4337"/>
<stop offset="1" stop-color="#6A4337" stop-opacity="0"/>
</radialGradient>
<radialGradient id="paint14_radial_37_207" cx="0" cy="0" r="1" gradientUnits="userSpaceOnUse" gradientTransform="translate(16.5409 10.5544) rotate(180) scale(1.30999 8.89727)">
<stop offset="0.579268" stop-color="#6E4845"/>
<stop offset="1" stop-color="#6E4845" stop-opacity="0"/>
</radialGradient>
<radialGradient id="paint15_radial_37_207" cx="0" cy="0" r="1" gradientUnits="userSpaceOnUse" gradientTransform="translate(17.2211 8.59337) rotate(90.1624) scale(5.31153 4.81929)">
<stop offset="0.58908" stop-color="#91695E" stop-opacity="0"/>
<stop offset="0.724138" stop-color="#91695E"/>
</radialGradient>
<radialGradient id="paint16_radial_37_207" cx="0" cy="0" r="1" gradientUnits="userSpaceOnUse" gradientTransform="translate(16.3308 3.77834) rotate(105.665) scale(1.49831 1.48679)">
<stop stop-color="#C6A187"/>
<stop offset="1" stop-color="#C6A187" stop-opacity="0"/>
</radialGradient>
<radialGradient id="paint17_radial_37_207" cx="0" cy="0" r="1" gradientUnits="userSpaceOnUse" gradientTransform="translate(16.5409 10.5544) rotate(-180) scale(2.21017 7.11635)">
<stop stop-color="#6C4641"/>
<stop offset="1" stop-color="#6C4641" stop-opacity="0"/>
</radialGradient>
<radialGradient id="paint18_radial_37_207" cx="0" cy="0" r="1" gradientUnits="userSpaceOnUse" gradientTransform="translate(14.2743 6.1407) rotate(-177.394) scale(0.429483 6.00576)">
<stop stop-color="#916C5C"/>
<stop offset="1" stop-color="#916C5C" stop-opacity="0"/>
</radialGradient>
<radialGradient id="paint19_radial_37_207" cx="0" cy="0" r="1" gradientUnits="userSpaceOnUse" gradientTransform="translate(15.3657 10.5544) rotate(180) scale(0.918293 1.09794)">
<stop offset="0.270833" stop-color="#76524C"/>
<stop offset="1" stop-color="#76524C" stop-opacity="0"/>
</radialGradient>
<radialGradient id="paint20_radial_37_207" cx="0" cy="0" r="1" gradientUnits="userSpaceOnUse" gradientTransform="translate(18.1867 9.41185) rotate(180) scale(1.35799 8.89727)">
<stop offset="0.579268" stop-color="#6E4845"/>
<stop offset="1" stop-color="#6E4845" stop-opacity="0"/>
</radialGradient>
<radialGradient id="paint21_radial_37_207" cx="0" cy="0" r="1" gradientUnits="userSpaceOnUse" gradientTransform="translate(18.8918 7.45079) rotate(90.1683) scale(5.31154 4.9959)">
<stop offset="0.58908" stop-color="#91695E" stop-opacity="0"/>
<stop offset="0.724138" stop-color="#91695E"/>
</radialGradient>
<radialGradient id="paint22_radial_37_207" cx="0" cy="0" r="1" gradientUnits="userSpaceOnUse" gradientTransform="translate(17.969 2.63576) rotate(106.209) scale(1.50238 1.5371)">
<stop stop-color="#C6A187"/>
<stop offset="1" stop-color="#C6A187" stop-opacity="0"/>
</radialGradient>
<radialGradient id="paint23_radial_37_207" cx="0" cy="0" r="1" gradientUnits="userSpaceOnUse" gradientTransform="translate(18.1867 9.41185) rotate(-180) scale(2.29116 7.11635)">
<stop stop-color="#6C4641"/>
<stop offset="1" stop-color="#6C4641" stop-opacity="0"/>
</radialGradient>
<radialGradient id="paint24_radial_37_207" cx="0" cy="0" r="1" gradientUnits="userSpaceOnUse" gradientTransform="translate(15.837 4.99812) rotate(-177.486) scale(0.44519 6.00619)">
<stop stop-color="#916C5C"/>
<stop offset="1" stop-color="#916C5C" stop-opacity="0"/>
</radialGradient>
<radialGradient id="paint25_radial_37_207" cx="0" cy="0" r="1" gradientUnits="userSpaceOnUse" gradientTransform="translate(16.9684 9.41185) rotate(180) scale(0.951946 1.09794)">
<stop offset="0.270833" stop-color="#76524C"/>
<stop offset="1" stop-color="#76524C" stop-opacity="0"/>
</radialGradient>
<radialGradient id="paint26_radial_37_207" cx="0" cy="0" r="1" gradientUnits="userSpaceOnUse" gradientTransform="translate(17.5291 5.75403) rotate(91.6986) scale(5.0637 2.52867)">
<stop stop-color="#644536"/>
<stop offset="0.455355" stop-color="#644536" stop-opacity="0"/>
</radialGradient>
<radialGradient id="paint27_radial_37_207" cx="0" cy="0" r="1" gradientUnits="userSpaceOnUse" gradientTransform="translate(17.379 4.99475) rotate(90) scale(2.66354 2.40327)">
<stop stop-color="#6B4E3C"/>
<stop offset="0.642226" stop-color="#6B4E3C" stop-opacity="0"/>
</radialGradient>
<radialGradient id="paint28_radial_37_207" cx="0" cy="0" r="1" gradientUnits="userSpaceOnUse" gradientTransform="translate(19.186 11.2043) rotate(180) scale(1.36581 9.22439)">
<stop offset="0.579268" stop-color="#6E4845"/>
<stop offset="1" stop-color="#6E4845" stop-opacity="0"/>
</radialGradient>
<radialGradient id="paint29_radial_37_207" cx="0" cy="0" r="1" gradientUnits="userSpaceOnUse" gradientTransform="translate(19.8951 9.17109) rotate(90.1633) scale(5.50682 5.02464)">
<stop offset="0.58908" stop-color="#91695E" stop-opacity="0"/>
<stop offset="0.724138" stop-color="#91695E"/>
</radialGradient>
<radialGradient id="paint30_radial_37_207" cx="0" cy="0" r="1" gradientUnits="userSpaceOnUse" gradientTransform="translate(19.2183 9.06969) rotate(137.588) scale(3.16487 10.1332)">
<stop stop-color="#694936"/>
<stop offset="1" stop-color="#6C4641" stop-opacity="0"/>
</radialGradient>
<radialGradient id="paint31_radial_37_207" cx="0" cy="0" r="1" gradientUnits="userSpaceOnUse" gradientTransform="translate(16.8227 6.62825) rotate(-177.409) scale(0.447778 6.22664)">
<stop stop-color="#916C5C"/>
<stop offset="1" stop-color="#916C5C" stop-opacity="0"/>
</radialGradient>
<radialGradient id="paint32_radial_37_207" cx="0" cy="0" r="1" gradientUnits="userSpaceOnUse" gradientTransform="translate(17.9607 11.2043) rotate(180) scale(0.957423 1.13831)">
<stop offset="0.270833" stop-color="#76524C"/>
<stop offset="1" stop-color="#76524C" stop-opacity="0"/>
</radialGradient>
<radialGradient id="paint33_radial_37_207" cx="0" cy="0" r="1" gradientUnits="userSpaceOnUse" gradientTransform="translate(18.9608 4.56447) rotate(128.501) scale(2.41234 1.51776)">
<stop stop-color="#C6A187"/>
<stop offset="1" stop-color="#C6A187" stop-opacity="0"/>
</radialGradient>
<linearGradient id="paint34_linear_37_207" x1="16.7356" y1="5.20823" x2="18.3736" y2="4.92477" gradientUnits="userSpaceOnUse">
<stop stop-color="#8F6B57"/>
<stop offset="1" stop-color="#8F6B57" stop-opacity="0"/>
</linearGradient>
<radialGradient id="paint35_radial_37_207" cx="0" cy="0" r="1" gradientUnits="userSpaceOnUse" gradientTransform="translate(18.3736 6.62476) rotate(90) scale(2.76147 2.4171)">
<stop stop-color="#6B4E3C"/>
<stop offset="0.642226" stop-color="#6B4E3C" stop-opacity="0"/>
</radialGradient>
<radialGradient id="paint36_radial_37_207" cx="0" cy="0" r="1" gradientUnits="userSpaceOnUse" gradientTransform="translate(17.446 8.00222) rotate(180) scale(0.369646 3.93496)">
<stop stop-color="#5B362E"/>
<stop offset="1" stop-color="#5B362E" stop-opacity="0"/>
</radialGradient>
<linearGradient id="paint37_linear_37_207" x1="27.7749" y1="21.218" x2="20.7294" y2="28.2914" gradientUnits="userSpaceOnUse">
<stop stop-color="#9E6AD9"/>
<stop offset="0.146341" stop-color="#A666F9"/>
<stop offset="0.359202" stop-color="#914FFB"/>
<stop offset="0.67184" stop-color="#7A27F9"/>
<stop offset="0.957871" stop-color="#713FFE"/>
<stop offset="1" stop-color="#AC8BFF"/>
</linearGradient>
<linearGradient id="paint38_linear_37_207" x1="27.1789" y1="29.9038" x2="25.7227" y2="25.2453" gradientUnits="userSpaceOnUse">
<stop stop-color="#5B5BFF"/>
<stop offset="1" stop-color="#5B5BFF" stop-opacity="0"/>
</linearGradient>
<linearGradient id="paint39_linear_37_207" x1="21.8778" y1="22.0304" x2="22.7213" y2="22.8773" gradientUnits="userSpaceOnUse">
<stop stop-color="#722BD1"/>
<stop offset="1" stop-color="#722BD1" stop-opacity="0"/>
</linearGradient>
<radialGradient id="paint40_radial_37_207" cx="0" cy="0" r="1" gradientUnits="userSpaceOnUse" gradientTransform="translate(23.9139 21.6839) rotate(44.8869) scale(0.390899 2.47681)">
<stop stop-color="white" stop-opacity="0.13"/>
<stop offset="1" stop-color="white" stop-opacity="0"/>
</radialGradient>
<radialGradient id="paint41_radial_37_207" cx="0" cy="0" r="1" gradientUnits="userSpaceOnUse" gradientTransform="translate(0.495433 2.16573) rotate(83.125) scale(2.35502 0.537101)">
<stop stop-color="#FFAE2E"/>
<stop offset="1" stop-color="#FFAE2E" stop-opacity="0"/>
</radialGradient>
<radialGradient id="paint42_radial_37_207" cx="0" cy="0" r="1" gradientUnits="userSpaceOnUse" gradientTransform="translate(1.57772 2.58103) rotate(128.943) scale(0.808862 0.192783)">
<stop stop-color="#FF8B1E"/>
<stop offset="1" stop-color="#FF8B1E" stop-opacity="0"/>
</radialGradient>
<radialGradient id="paint43_radial_37_207" cx="0" cy="0" r="1" gradientUnits="userSpaceOnUse" gradientTransform="translate(1.57772 2.58103) rotate(110.69) scale(0.72089 0.172182)">
<stop stop-color="#FF8B1E"/>
<stop offset="1" stop-color="#FF8B1E" stop-opacity="0"/>
</radialGradient>
<radialGradient id="paint44_radial_37_207" cx="0" cy="0" r="1" gradientUnits="userSpaceOnUse" gradientTransform="translate(1.57772 2.58103) rotate(128.291) scale(0.795523 0.117739)">
<stop stop-color="#FFC136"/>
<stop offset="1" stop-color="#FFC136" stop-opacity="0"/>
</radialGradient>
<radialGradient id="paint45_radial_37_207" cx="0" cy="0" r="1" gradientUnits="userSpaceOnUse" gradientTransform="translate(1.57772 2.58103) rotate(99.2692) scale(0.735477 0.0690303)">
<stop stop-color="#FFC136"/>
<stop offset="1" stop-color="#FFC136" stop-opacity="0"/>
</radialGradient>
<radialGradient id="paint46_radial_37_207" cx="0" cy="0" r="1" gradientUnits="userSpaceOnUse" gradientTransform="translate(0.575079 2.38551) rotate(90.0195) scale(2.1183 0.359323)">
<stop stop-color="#FFAE2E"/>
<stop offset="1" stop-color="#FFAE2E" stop-opacity="0"/>
</radialGradient>
<radialGradient id="paint47_radial_37_207" cx="0" cy="0" r="1" gradientUnits="userSpaceOnUse" gradientTransform="translate(1.16574 2.58102) rotate(120.842) scale(0.73273 0.157243)">
<stop stop-color="#FF8B1E"/>
<stop offset="1" stop-color="#FF8B1E" stop-opacity="0"/>
</radialGradient>
<radialGradient id="paint48_radial_37_207" cx="0" cy="0" r="1" gradientUnits="userSpaceOnUse" gradientTransform="translate(1.16574 2.58102) rotate(105.592) scale(0.70016 0.130988)">
<stop stop-color="#FF8B1E"/>
<stop offset="1" stop-color="#FF8B1E" stop-opacity="0"/>
</radialGradient>
<radialGradient id="paint49_radial_37_207" cx="0" cy="0" r="1" gradientUnits="userSpaceOnUse" gradientTransform="translate(1.16574 2.58102) rotate(120.257) scale(0.722856 0.0957405)">
<stop stop-color="#FFC136"/>
<stop offset="1" stop-color="#FFC136" stop-opacity="0"/>
</radialGradient>
<radialGradient id="paint50_radial_37_207" cx="0" cy="0" r="1" gradientUnits="userSpaceOnUse" gradientTransform="translate(1.16574 2.58102) rotate(96.876) scale(0.731131 0.0513081)">
<stop stop-color="#FFC136"/>
<stop offset="1" stop-color="#FFC136" stop-opacity="0"/>
</radialGradient>
<radialGradient id="paint51_radial_37_207" cx="0" cy="0" r="1" gradientUnits="userSpaceOnUse" gradientTransform="translate(17.3398 9.65286) rotate(7.73496) scale(0.46642 2.8812)">
<stop stop-color="#42261D"/>
<stop offset="1" stop-color="#42261D" stop-opacity="0"/>
</radialGradient>
<radialGradient id="paint52_radial_37_207" cx="0" cy="0" r="1" gradientUnits="userSpaceOnUse" gradientTransform="translate(17.4215 10.2053) scale(0.63825 3.60027)">
<stop stop-color="#42261D"/>
<stop offset="1" stop-color="#42261D" stop-opacity="0"/>
</radialGradient>
<radialGradient id="paint53_radial_37_207" cx="0" cy="0" r="1" gradientUnits="userSpaceOnUse" gradientTransform="translate(17.2202 13.4718) scale(0.734656 4.14408)">
<stop stop-color="#42261D"/>
<stop offset="1" stop-color="#42261D" stop-opacity="0"/>
</radialGradient>
<radialGradient id="paint54_radial_37_207" cx="0" cy="0" r="1" gradientUnits="userSpaceOnUse" gradientTransform="translate(16.9412 14.448) scale(0.825707 4.65768)">
<stop stop-color="#42261D"/>
<stop offset="1" stop-color="#42261D" stop-opacity="0"/>
</radialGradient>
<radialGradient id="paint55_radial_37_207" cx="0" cy="0" r="1" gradientUnits="userSpaceOnUse" gradientTransform="translate(15.7848 6.78173) rotate(-30.1581) scale(1.78507 1.78159)">
<stop stop-color="#42261D"/>
<stop offset="1" stop-color="#42261D" stop-opacity="0"/>
</radialGradient>
<radialGradient id="paint56_radial_37_207" cx="0" cy="0" r="1" gradientUnits="userSpaceOnUse" gradientTransform="translate(16.6175 6.9031) rotate(-47.6576) scale(1.18594 1.18638)">
<stop stop-color="#42261D"/>
<stop offset="1" stop-color="#42261D" stop-opacity="0"/>
</radialGradient>
<radialGradient id="paint57_radial_37_207" cx="0" cy="0" r="1" gradientUnits="userSpaceOnUse" gradientTransform="translate(11.0877 11.5381) rotate(78.0099) scale(3.95706 1.74639)">
<stop offset="0.551292" stop-color="#775747"/>
<stop offset="1" stop-color="#987363"/>
</radialGradient>
<linearGradient id="paint58_linear_37_207" x1="9.70772" y1="16.7254" x2="15.6504" y2="21.247" gradientUnits="userSpaceOnUse">
<stop stop-color="#92715F"/>
<stop offset="1" stop-color="#AE7B7D"/>
</linearGradient>
<linearGradient id="paint59_linear_37_207" x1="14.9198" y1="22.7674" x2="14.0542" y2="22.0929" gradientUnits="userSpaceOnUse">
<stop stop-color="#A77786"/>
<stop offset="1" stop-color="#C75E4A" stop-opacity="0"/>
<stop offset="1" stop-color="#A77786" stop-opacity="0"/>
</linearGradient>
<radialGradient id="paint60_radial_37_207" cx="0" cy="0" r="1" gradientUnits="userSpaceOnUse" gradientTransform="translate(16.9476 11.8029) rotate(180) scale(2.40977 14.9073)">
<stop stop-color="#BB8F77"/>
<stop offset="1" stop-color="#BB8F77" stop-opacity="0"/>
</radialGradient>
<radialGradient id="paint61_radial_37_207" cx="0" cy="0" r="1" gradientUnits="userSpaceOnUse" gradientTransform="translate(13.7346 15.5508) rotate(-168.394) scale(4.18643 8.59422)">
<stop stop-color="#9B7068"/>
<stop offset="0.96875" stop-color="#9B7068" stop-opacity="0"/>
</radialGradient>
<radialGradient id="paint62_radial_37_207" cx="0" cy="0" r="1" gradientUnits="userSpaceOnUse" gradientTransform="translate(10.1411 13.1926) rotate(-180) scale(2.40977 4.94538)">
<stop stop-color="#997A6D"/>
<stop offset="1" stop-color="#997A6D" stop-opacity="0"/>
</radialGradient>
<radialGradient id="paint63_radial_37_207" cx="0" cy="0" r="1" gradientUnits="userSpaceOnUse" gradientTransform="translate(16.436 11.7888) rotate(-180) scale(3.12103 10.7168)">
<stop stop-color="#BF9282"/>
<stop offset="1" stop-color="#BF9282" stop-opacity="0"/>
</radialGradient>
<radialGradient id="paint64_radial_37_207" cx="0" cy="0" r="1" gradientUnits="userSpaceOnUse" gradientTransform="translate(14.7578 11.7888) rotate(-180) scale(2.43763 8.37016)">
<stop stop-color="#916A5F"/>
<stop offset="1" stop-color="#916A5F" stop-opacity="0"/>
</radialGradient>
<radialGradient id="paint65_radial_37_207" cx="0" cy="0" r="1" gradientUnits="userSpaceOnUse" gradientTransform="translate(17.9345 11.8184) rotate(179.873) scale(0.761444 10.1416)">
<stop offset="0.47352" stop-color="#AB836B"/>
<stop offset="1" stop-color="#AB836B" stop-opacity="0"/>
</radialGradient>
<radialGradient id="paint66_radial_37_207" cx="0" cy="0" r="1" gradientUnits="userSpaceOnUse" gradientTransform="translate(15.3749 8.78131) rotate(90) scale(2.97601 0.721391)">
<stop stop-color="#90685E"/>
<stop offset="1" stop-color="#90685E" stop-opacity="0"/>
</radialGradient>
<radialGradient id="paint67_radial_37_207" cx="0" cy="0" r="1" gradientUnits="userSpaceOnUse" gradientTransform="translate(17.0222 6.01829) rotate(135.113) scale(1.6745 2.55206)">
<stop stop-color="#CBA38D"/>
<stop offset="1" stop-color="#CBA38D" stop-opacity="0"/>
</radialGradient>
<radialGradient id="paint68_radial_37_207" cx="0" cy="0" r="1" gradientUnits="userSpaceOnUse" gradientTransform="translate(15.2883 11.2347) rotate(180) scale(1.3648 8.89727)">
<stop offset="0.579268" stop-color="#6E4845"/>
<stop offset="1" stop-color="#6E4845" stop-opacity="0"/>
</radialGradient>
<radialGradient id="paint69_radial_37_207" cx="0" cy="0" r="1" gradientUnits="userSpaceOnUse" gradientTransform="translate(15.9969 9.27366) rotate(90.1692) scale(5.31154 5.02094)">
<stop offset="0.58908" stop-color="#91695E" stop-opacity="0"/>
<stop offset="0.724138" stop-color="#91695E"/>
</radialGradient>
<radialGradient id="paint70_radial_37_207" cx="0" cy="0" r="1" gradientUnits="userSpaceOnUse" gradientTransform="translate(15.4637 4.18086) rotate(137.479) scale(2.68127 4.25988)">
<stop stop-color="#C6A187"/>
<stop offset="1" stop-color="#C6A187" stop-opacity="0"/>
</radialGradient>
<radialGradient id="paint71_radial_37_207" cx="0" cy="0" r="1" gradientUnits="userSpaceOnUse" gradientTransform="translate(15.2883 11.2347) rotate(-180) scale(2.30265 7.11635)">
<stop stop-color="#6C4641"/>
<stop offset="1" stop-color="#6C4641" stop-opacity="0"/>
</radialGradient>
<radialGradient id="paint72_radial_37_207" cx="0" cy="0" r="1" gradientUnits="userSpaceOnUse" gradientTransform="translate(12.9268 6.82099) rotate(-177.499) scale(0.447418 6.00625)">
<stop stop-color="#916C5C"/>
<stop offset="1" stop-color="#916C5C" stop-opacity="0"/>
</radialGradient>
<radialGradient id="paint73_radial_37_207" cx="0" cy="0" r="1" gradientUnits="userSpaceOnUse" gradientTransform="translate(14.0639 11.2347) rotate(180) scale(0.956718 1.09794)">
<stop offset="0.270833" stop-color="#76524C"/>
<stop offset="1" stop-color="#76524C" stop-opacity="0"/>
</radialGradient>
<radialGradient id="paint74_radial_37_207" cx="0" cy="0" r="1" gradientUnits="userSpaceOnUse" gradientTransform="translate(13.9582 11.2347) rotate(180) scale(1.36476 10.5416)">
<stop offset="0.579268" stop-color="#6E4845"/>
<stop offset="1" stop-color="#6E4845" stop-opacity="0"/>
</radialGradient>
<radialGradient id="paint75_radial_37_207" cx="0" cy="0" r="1" gradientUnits="userSpaceOnUse" gradientTransform="translate(14.6669 8.91122) rotate(90.1428) scale(6.29318 5.02079)">
<stop offset="0.58908" stop-color="#91695E" stop-opacity="0"/>
<stop offset="0.724138" stop-color="#91695E"/>
</radialGradient>
<radialGradient id="paint76_radial_37_207" cx="0" cy="0" r="1" gradientUnits="userSpaceOnUse" gradientTransform="translate(13.7394 3.20631) rotate(103.851) scale(1.76048 1.56192)">
<stop stop-color="#C6A187"/>
<stop offset="1" stop-color="#C6A187" stop-opacity="0"/>
</radialGradient>
<radialGradient id="paint77_radial_37_207" cx="0" cy="0" r="1" gradientUnits="userSpaceOnUse" gradientTransform="translate(13.9582 11.2347) rotate(-180) scale(2.30258 8.43156)">
<stop stop-color="#6C4641"/>
<stop offset="1" stop-color="#6C4641" stop-opacity="0"/>
</radialGradient>
<radialGradient id="paint78_radial_37_207" cx="0" cy="0" r="1" gradientUnits="userSpaceOnUse" gradientTransform="translate(11.5969 6.00526) rotate(-177.037) scale(0.447576 7.11356)">
<stop stop-color="#916C5C"/>
<stop offset="1" stop-color="#916C5C" stop-opacity="0"/>
</radialGradient>
<radialGradient id="paint79_radial_37_207" cx="0" cy="0" r="1" gradientUnits="userSpaceOnUse" gradientTransform="translate(12.7339 11.2347) rotate(180) scale(0.956689 1.30086)">
<stop offset="0.270833" stop-color="#76524C"/>
<stop offset="1" stop-color="#76524C" stop-opacity="0"/>
</radialGradient>
<radialGradient id="paint80_radial_37_207" cx="0" cy="0" r="1" gradientUnits="userSpaceOnUse" gradientTransform="translate(11.9481 9.28038) rotate(90.0865) scale(5.29324 2.55827)">
<stop offset="0.58908" stop-color="#91695E" stop-opacity="0"/>
<stop offset="0.724138" stop-color="#91695E"/>
</radialGradient>
<radialGradient id="paint81_radial_37_207" cx="0" cy="0" r="1" gradientUnits="userSpaceOnUse" gradientTransform="translate(11.5871 11.2347) rotate(-180) scale(1.17324 7.09186)">
<stop stop-color="#6C4641"/>
<stop offset="1" stop-color="#6C4641" stop-opacity="0"/>
</radialGradient>
<radialGradient id="paint82_radial_37_207" cx="0" cy="0" r="1" gradientUnits="userSpaceOnUse" gradientTransform="translate(11.881 9.29582) rotate(-180) scale(0.850447 18.0551)">
<stop offset="0.170732" stop-color="#6E4845"/>
<stop offset="0.70208" stop-color="#6E4845" stop-opacity="0"/>
</radialGradient>
<radialGradient id="paint83_radial_37_207" cx="0" cy="0" r="1" gradientUnits="userSpaceOnUse" gradientTransform="translate(10.3839 6.83615) rotate(-175.116) scale(0.22858 5.96954)">
<stop stop-color="#916C5C"/>
<stop offset="1" stop-color="#916C5C" stop-opacity="0"/>
</radialGradient>
<radialGradient id="paint84_radial_37_207" cx="0" cy="0" r="1" gradientUnits="userSpaceOnUse" gradientTransform="translate(10.9632 11.2347) rotate(180) scale(0.487465 1.09416)">
<stop offset="0.270833" stop-color="#76524C"/>
<stop offset="1" stop-color="#76524C" stop-opacity="0"/>
</radialGradient>
<linearGradient id="paint85_linear_37_207" x1="3.79642" y1="21.3989" x2="10.8823" y2="28.5128" gradientUnits="userSpaceOnUse">
<stop stop-color="#9875D6"/>
<stop offset="0.0658497" stop-color="#6731A8"/>
<stop offset="1" stop-color="#6D43FF"/>
</linearGradient>
<linearGradient id="paint86_linear_37_207" x1="9.30608" y1="21.4558" x2="8.48131" y2="22.2838" gradientUnits="userSpaceOnUse">
<stop stop-color="#A84CB1" stop-opacity="0.4"/>
<stop offset="1" stop-color="#A84CB1" stop-opacity="0"/>
</linearGradient>
<radialGradient id="paint87_radial_37_207" cx="0" cy="0" r="1" gradientUnits="userSpaceOnUse" gradientTransform="translate(1.99683 30.1943) rotate(-44.8869) scale(12.6511 3.75022)">
<stop stop-color="#6254FF"/>
<stop offset="1" stop-color="#8253FF" stop-opacity="0"/>
</radialGradient>
<linearGradient id="paint88_linear_37_207" x1="10.9848" y1="28.5414" x2="10.667" y2="28.2223" gradientUnits="userSpaceOnUse">
<stop stop-color="#9C6EFF"/>
<stop offset="1" stop-color="#9C6EFF" stop-opacity="0"/>
</linearGradient>
<radialGradient id="paint89_radial_37_207" cx="0" cy="0" r="1" gradientUnits="userSpaceOnUse" gradientTransform="translate(10.3978 23.6616) rotate(135.113) scale(0.575555 2.9663)">
<stop stop-color="white" stop-opacity="0.2"/>
<stop offset="1" stop-color="white" stop-opacity="0"/>
</radialGradient>
<radialGradient id="paint90_radial_37_207" cx="0" cy="0" r="1" gradientUnits="userSpaceOnUse" gradientTransform="translate(0.495433 2.16573) rotate(83.125) scale(2.35502 0.537101)">
<stop stop-color="#926D5F"/>
<stop offset="1" stop-color="#926D5F" stop-opacity="0"/>
</radialGradient>
<radialGradient id="paint91_radial_37_207" cx="0" cy="0" r="1" gradientUnits="userSpaceOnUse" gradientTransform="translate(0.366065 2.16573) rotate(84.9091) scale(2.34734 0.39815)">
<stop stop-color="#926D5F"/>
<stop offset="1" stop-color="#926D5F" stop-opacity="0"/>
</radialGradient>
<radialGradient id="paint92_radial_37_207" cx="0" cy="0" r="1" gradientUnits="userSpaceOnUse" gradientTransform="translate(12.7316 11.8657) rotate(-171.901) scale(0.528378 2.12689)">
<stop stop-color="#957161"/>
<stop offset="1" stop-color="#957161" stop-opacity="0"/>
</radialGradient>
<radialGradient id="paint93_radial_37_207" cx="0" cy="0" r="1" gradientUnits="userSpaceOnUse" gradientTransform="translate(11.2798 11.4061) rotate(-163.176) scale(0.229388 0.923824)">
<stop stop-color="#957161" stop-opacity="0.9"/>
<stop offset="1" stop-color="#957161" stop-opacity="0"/>
</radialGradient>
<radialGradient id="paint94_radial_37_207" cx="0" cy="0" r="1" gradientUnits="userSpaceOnUse" gradientTransform="translate(9.98107 20.0151) rotate(31.6755) scale(3.11911 7.7014)">
<stop stop-color="#926C5F"/>
<stop offset="1" stop-color="#926C5F" stop-opacity="0"/>
</radialGradient>
<radialGradient id="paint95_radial_37_207" cx="0" cy="0" r="1" gradientUnits="userSpaceOnUse" gradientTransform="translate(11.393 21.7095) rotate(122.851) scale(4.68517 3.0908)">
<stop stop-color="#B58081"/>
<stop offset="1" stop-color="#B58081" stop-opacity="0"/>
</radialGradient>
<radialGradient id="paint96_radial_37_207" cx="0" cy="0" r="1" gradientUnits="userSpaceOnUse" gradientTransform="translate(11.9013 12.3341) rotate(100.981) scale(3.85461 2.31361)">
<stop stop-color="#967262"/>
<stop offset="1" stop-color="#967262" stop-opacity="0"/>
</radialGradient>
<radialGradient id="paint97_radial_37_207" cx="0" cy="0" r="1" gradientUnits="userSpaceOnUse" gradientTransform="translate(10.755 11.05) rotate(82.0425) scale(1.13278 0.748987)">
<stop stop-color="#967263"/>
<stop offset="1" stop-color="#967263" stop-opacity="0"/>
</radialGradient>
<radialGradient id="paint98_radial_37_207" cx="0" cy="0" r="1" gradientUnits="userSpaceOnUse" gradientTransform="translate(11.9081 10.8271) rotate(72.2541) scale(1.35129 0.893468)">
<stop stop-color="#967263"/>
<stop offset="1" stop-color="#967263" stop-opacity="0"/>
</radialGradient>
<radialGradient id="paint99_radial_37_207" cx="0" cy="0" r="1" gradientUnits="userSpaceOnUse" gradientTransform="translate(13.3881 10.9772) rotate(85.0729) scale(1.24871 0.825641)">
<stop stop-color="#967263"/>
<stop offset="1" stop-color="#967263" stop-opacity="0"/>
</radialGradient>
</defs>
</svg>
