<svg width="32" height="32" viewBox="0 0 32 32" fill="none" xmlns="http://www.w3.org/2000/svg">
<path d="M2.02344 11.5313C2.02344 10.1505 3.14273 9.03125 4.52344 9.03125H27.4766C28.8573 9.03125 29.9766 10.1505 29.9766 11.5312V27.4531C29.9766 28.8338 28.8573 29.9531 27.4766 29.9531H4.52344C3.14273 29.9531 2.02344 28.8338 2.02344 27.4531V11.5313Z" fill="url(#paint0_linear_37_192)"/>
<path d="M2.02344 11.5313C2.02344 10.1505 3.14273 9.03125 4.52344 9.03125H27.4766C28.8573 9.03125 29.9766 10.1505 29.9766 11.5312V27.4531C29.9766 28.8338 28.8573 29.9531 27.4766 29.9531H4.52344C3.14273 29.9531 2.02344 28.8338 2.02344 27.4531V11.5313Z" fill="url(#paint1_radial_37_192)"/>
<path d="M2.02344 11.5313C2.02344 10.1505 3.14273 9.03125 4.52344 9.03125H27.4766C28.8573 9.03125 29.9766 10.1505 29.9766 11.5312V27.4531C29.9766 28.8338 28.8573 29.9531 27.4766 29.9531H4.52344C3.14273 29.9531 2.02344 28.8338 2.02344 27.4531V11.5313Z" fill="url(#paint2_linear_37_192)"/>
<path d="M2.02344 11.5313C2.02344 10.1505 3.14273 9.03125 4.52344 9.03125H27.4766C28.8573 9.03125 29.9766 10.1505 29.9766 11.5312V27.4531C29.9766 28.8338 28.8573 29.9531 27.4766 29.9531H4.52344C3.14273 29.9531 2.02344 28.8338 2.02344 27.4531V11.5313Z" fill="url(#paint3_linear_37_192)" fill-opacity="0.9"/>
<path d="M2.02344 11.5313C2.02344 10.1505 3.14273 9.03125 4.52344 9.03125H27.4766C28.8573 9.03125 29.9766 10.1505 29.9766 11.5312V27.4531C29.9766 28.8338 28.8573 29.9531 27.4766 29.9531H4.52344C3.14273 29.9531 2.02344 28.8338 2.02344 27.4531V11.5313Z" fill="url(#paint4_radial_37_192)"/>
<path d="M2.02344 11.5313C2.02344 10.1505 3.14273 9.03125 4.52344 9.03125H27.4766C28.8573 9.03125 29.9766 10.1505 29.9766 11.5312V27.4531C29.9766 28.8338 28.8573 29.9531 27.4766 29.9531H4.52344C3.14273 29.9531 2.02344 28.8338 2.02344 27.4531V11.5313Z" fill="url(#paint5_radial_37_192)"/>
<path d="M2.02344 11.5313C2.02344 10.1505 3.14273 9.03125 4.52344 9.03125H27.4766C28.8573 9.03125 29.9766 10.1505 29.9766 11.5312V27.4531C29.9766 28.8338 28.8573 29.9531 27.4766 29.9531H4.52344C3.14273 29.9531 2.02344 28.8338 2.02344 27.4531V11.5313Z" fill="url(#paint6_radial_37_192)"/>
<path d="M2.02344 11.5313C2.02344 10.1505 3.14273 9.03125 4.52344 9.03125H27.4766C28.8573 9.03125 29.9766 10.1505 29.9766 11.5312V27.4531C29.9766 28.8338 28.8573 29.9531 27.4766 29.9531H4.52344C3.14273 29.9531 2.02344 28.8338 2.02344 27.4531V11.5313Z" fill="url(#paint7_radial_37_192)"/>
<path d="M2.02344 11.5313C2.02344 10.1505 3.14273 9.03125 4.52344 9.03125H27.4766C28.8573 9.03125 29.9766 10.1505 29.9766 11.5312V27.4531C29.9766 28.8338 28.8573 29.9531 27.4766 29.9531H4.52344C3.14273 29.9531 2.02344 28.8338 2.02344 27.4531V11.5313Z" fill="url(#paint8_radial_37_192)"/>
<path d="M2.02344 11.5313C2.02344 10.1505 3.14273 9.03125 4.52344 9.03125H27.4766C28.8573 9.03125 29.9766 10.1505 29.9766 11.5312V27.4531C29.9766 28.8338 28.8573 29.9531 27.4766 29.9531H4.52344C3.14273 29.9531 2.02344 28.8338 2.02344 27.4531V11.5313Z" fill="url(#paint9_radial_37_192)"/>
<path d="M2.02344 11.5313C2.02344 10.1505 3.14273 9.03125 4.52344 9.03125H27.4766C28.8573 9.03125 29.9766 10.1505 29.9766 11.5312V27.4531C29.9766 28.8338 28.8573 29.9531 27.4766 29.9531H4.52344C3.14273 29.9531 2.02344 28.8338 2.02344 27.4531V11.5313Z" fill="url(#paint10_radial_37_192)"/>
<path d="M2.02344 11.5313C2.02344 10.1505 3.14273 9.03125 4.52344 9.03125H27.4766C28.8573 9.03125 29.9766 10.1505 29.9766 11.5312V27.4531C29.9766 28.8338 28.8573 29.9531 27.4766 29.9531H4.52344C3.14273 29.9531 2.02344 28.8338 2.02344 27.4531V11.5313Z" fill="url(#paint11_radial_37_192)"/>
<path d="M2.02344 11.5313C2.02344 10.1505 3.14273 9.03125 4.52344 9.03125H27.4766C28.8573 9.03125 29.9766 10.1505 29.9766 11.5312V27.4531C29.9766 28.8338 28.8573 29.9531 27.4766 29.9531H4.52344C3.14273 29.9531 2.02344 28.8338 2.02344 27.4531V11.5313Z" fill="url(#paint12_radial_37_192)"/>
<path d="M2.02344 11.5313C2.02344 10.1505 3.14273 9.03125 4.52344 9.03125H27.4766C28.8573 9.03125 29.9766 10.1505 29.9766 11.5312V27.4531C29.9766 28.8338 28.8573 29.9531 27.4766 29.9531H4.52344C3.14273 29.9531 2.02344 28.8338 2.02344 27.4531V11.5313Z" fill="url(#paint13_radial_37_192)"/>
<path d="M2.02344 11.5313C2.02344 10.1505 3.14273 9.03125 4.52344 9.03125H27.4766C28.8573 9.03125 29.9766 10.1505 29.9766 11.5312V27.4531C29.9766 28.8338 28.8573 29.9531 27.4766 29.9531H4.52344C3.14273 29.9531 2.02344 28.8338 2.02344 27.4531V11.5313Z" fill="url(#paint14_radial_37_192)"/>
<path d="M2.02344 11.5313C2.02344 10.1505 3.14273 9.03125 4.52344 9.03125H27.4766C28.8573 9.03125 29.9766 10.1505 29.9766 11.5312V27.4531C29.9766 28.8338 28.8573 29.9531 27.4766 29.9531H4.52344C3.14273 29.9531 2.02344 28.8338 2.02344 27.4531V11.5313Z" fill="url(#paint15_radial_37_192)"/>
<path d="M2.02344 11.5313C2.02344 10.1505 3.14273 9.03125 4.52344 9.03125H27.4766C28.8573 9.03125 29.9766 10.1505 29.9766 11.5312V27.4531C29.9766 28.8338 28.8573 29.9531 27.4766 29.9531H4.52344C3.14273 29.9531 2.02344 28.8338 2.02344 27.4531V11.5313Z" fill="url(#paint16_radial_37_192)"/>
<path d="M2.02344 11.5313C2.02344 10.1505 3.14273 9.03125 4.52344 9.03125H27.4766C28.8573 9.03125 29.9766 10.1505 29.9766 11.5312V27.4531C29.9766 28.8338 28.8573 29.9531 27.4766 29.9531H4.52344C3.14273 29.9531 2.02344 28.8338 2.02344 27.4531V11.5313Z" fill="url(#paint17_linear_37_192)" fill-opacity="0.9"/>
<path d="M2.02344 11.5313C2.02344 10.1505 3.14273 9.03125 4.52344 9.03125H27.4766C28.8573 9.03125 29.9766 10.1505 29.9766 11.5312V27.4531C29.9766 28.8338 28.8573 29.9531 27.4766 29.9531H4.52344C3.14273 29.9531 2.02344 28.8338 2.02344 27.4531V11.5313Z" fill="url(#paint18_linear_37_192)"/>
<path d="M2.02344 11.5313C2.02344 10.1505 3.14273 9.03125 4.52344 9.03125H27.4766C28.8573 9.03125 29.9766 10.1505 29.9766 11.5312V27.4531C29.9766 28.8338 28.8573 29.9531 27.4766 29.9531H4.52344C3.14273 29.9531 2.02344 28.8338 2.02344 27.4531V11.5313Z" fill="url(#paint19_radial_37_192)"/>
<path d="M2.02344 11.5313C2.02344 10.1505 3.14273 9.03125 4.52344 9.03125H27.4766C28.8573 9.03125 29.9766 10.1505 29.9766 11.5312V27.4531C29.9766 28.8338 28.8573 29.9531 27.4766 29.9531H4.52344C3.14273 29.9531 2.02344 28.8338 2.02344 27.4531V11.5313Z" fill="url(#paint20_radial_37_192)"/>
<path d="M2.02344 11.5313C2.02344 10.1505 3.14273 9.03125 4.52344 9.03125H27.4766C28.8573 9.03125 29.9766 10.1505 29.9766 11.5312V27.4531C29.9766 28.8338 28.8573 29.9531 27.4766 29.9531H4.52344C3.14273 29.9531 2.02344 28.8338 2.02344 27.4531V11.5313Z" fill="url(#paint21_radial_37_192)"/>
<path d="M2.02344 11.5313C2.02344 10.1505 3.14273 9.03125 4.52344 9.03125H27.4766C28.8573 9.03125 29.9766 10.1505 29.9766 11.5312V27.4531C29.9766 28.8338 28.8573 29.9531 27.4766 29.9531H4.52344C3.14273 29.9531 2.02344 28.8338 2.02344 27.4531V11.5313Z" fill="url(#paint22_radial_37_192)"/>
<path d="M2.02344 11.5313C2.02344 10.1505 3.14273 9.03125 4.52344 9.03125H27.4766C28.8573 9.03125 29.9766 10.1505 29.9766 11.5312V27.4531C29.9766 28.8338 28.8573 29.9531 27.4766 29.9531H4.52344C3.14273 29.9531 2.02344 28.8338 2.02344 27.4531V11.5313Z" fill="url(#paint23_linear_37_192)"/>
<path d="M2.02344 11.5313C2.02344 10.1505 3.14273 9.03125 4.52344 9.03125H27.4766C28.8573 9.03125 29.9766 10.1505 29.9766 11.5312V27.4531C29.9766 28.8338 28.8573 29.9531 27.4766 29.9531H4.52344C3.14273 29.9531 2.02344 28.8338 2.02344 27.4531V11.5313Z" fill="url(#paint24_linear_37_192)" fill-opacity="0.85"/>
<path d="M2.02344 11.5313C2.02344 10.1505 3.14273 9.03125 4.52344 9.03125H27.4766C28.8573 9.03125 29.9766 10.1505 29.9766 11.5312V27.4531C29.9766 28.8338 28.8573 29.9531 27.4766 29.9531H4.52344C3.14273 29.9531 2.02344 28.8338 2.02344 27.4531V11.5313Z" fill="url(#paint25_radial_37_192)"/>
<path d="M2.02344 11.5313C2.02344 10.1505 3.14273 9.03125 4.52344 9.03125H27.4766C28.8573 9.03125 29.9766 10.1505 29.9766 11.5312V27.4531C29.9766 28.8338 28.8573 29.9531 27.4766 29.9531H4.52344C3.14273 29.9531 2.02344 28.8338 2.02344 27.4531V11.5313Z" fill="url(#paint26_radial_37_192)"/>
<path d="M2.02344 11.5313C2.02344 10.1505 3.14273 9.03125 4.52344 9.03125H27.4766C28.8573 9.03125 29.9766 10.1505 29.9766 11.5312V27.4531C29.9766 28.8338 28.8573 29.9531 27.4766 29.9531H4.52344C3.14273 29.9531 2.02344 28.8338 2.02344 27.4531V11.5313Z" fill="url(#paint27_radial_37_192)"/>
<path d="M2.02344 11.5313C2.02344 10.1505 3.14273 9.03125 4.52344 9.03125H27.4766C28.8573 9.03125 29.9766 10.1505 29.9766 11.5312V27.4531C29.9766 28.8338 28.8573 29.9531 27.4766 29.9531H4.52344C3.14273 29.9531 2.02344 28.8338 2.02344 27.4531V11.5313Z" fill="url(#paint28_radial_37_192)"/>
<path d="M2.02344 11.5313C2.02344 10.1505 3.14273 9.03125 4.52344 9.03125H27.4766C28.8573 9.03125 29.9766 10.1505 29.9766 11.5312V27.4531C29.9766 28.8338 28.8573 29.9531 27.4766 29.9531H4.52344C3.14273 29.9531 2.02344 28.8338 2.02344 27.4531V11.5313Z" fill="url(#paint29_radial_37_192)"/>
<path d="M2.02344 11.5313C2.02344 10.1505 3.14273 9.03125 4.52344 9.03125H27.4766C28.8573 9.03125 29.9766 10.1505 29.9766 11.5312V27.4531C29.9766 28.8338 28.8573 29.9531 27.4766 29.9531H4.52344C3.14273 29.9531 2.02344 28.8338 2.02344 27.4531V11.5313Z" fill="url(#paint30_radial_37_192)" fill-opacity="0.8"/>
<path d="M2.02344 11.5313C2.02344 10.1505 3.14273 9.03125 4.52344 9.03125H27.4766C28.8573 9.03125 29.9766 10.1505 29.9766 11.5312V27.4531C29.9766 28.8338 28.8573 29.9531 27.4766 29.9531H4.52344C3.14273 29.9531 2.02344 28.8338 2.02344 27.4531V11.5313Z" fill="url(#paint31_radial_37_192)"/>
<path d="M2.02344 11.5313C2.02344 10.1505 3.14273 9.03125 4.52344 9.03125H27.4766C28.8573 9.03125 29.9766 10.1505 29.9766 11.5312V27.4531C29.9766 28.8338 28.8573 29.9531 27.4766 29.9531H4.52344C3.14273 29.9531 2.02344 28.8338 2.02344 27.4531V11.5313Z" fill="url(#paint32_radial_37_192)" fill-opacity="0.6"/>
<path d="M2.02344 11.5313C2.02344 10.1505 3.14273 9.03125 4.52344 9.03125H27.4766C28.8573 9.03125 29.9766 10.1505 29.9766 11.5312V27.4531C29.9766 28.8338 28.8573 29.9531 27.4766 29.9531H4.52344C3.14273 29.9531 2.02344 28.8338 2.02344 27.4531V11.5313Z" fill="url(#paint33_radial_37_192)"/>
<path d="M2.02344 11.5313C2.02344 10.1505 3.14273 9.03125 4.52344 9.03125H27.4766C28.8573 9.03125 29.9766 10.1505 29.9766 11.5312V27.4531C29.9766 28.8338 28.8573 29.9531 27.4766 29.9531H4.52344C3.14273 29.9531 2.02344 28.8338 2.02344 27.4531V11.5313Z" fill="url(#paint34_radial_37_192)" fill-opacity="0.8"/>
<path d="M4.27344 12.0562C4.27344 11.5592 4.67638 11.1562 5.17344 11.1562H26.9672C27.4642 11.1562 27.8672 11.5592 27.8672 12.0562V21.9438C27.8672 22.4408 27.4642 22.8438 26.9672 22.8438H5.17344C4.67638 22.8438 4.27344 22.4408 4.27344 21.9438V12.0562Z" fill="url(#paint35_linear_37_192)"/>
<path d="M4.27344 12.0562C4.27344 11.5592 4.67638 11.1562 5.17344 11.1562H26.9672C27.4642 11.1562 27.8672 11.5592 27.8672 12.0562V21.9438C27.8672 22.4408 27.4642 22.8438 26.9672 22.8438H5.17344C4.67638 22.8438 4.27344 22.4408 4.27344 21.9438V12.0562Z" fill="url(#paint36_linear_37_192)"/>
<path d="M26.9668 11.0566C27.5191 11.0566 27.9668 11.5044 27.9668 12.0566V21.9434C27.9668 22.4956 27.5191 22.9434 26.9668 22.9434H5.17383C4.62154 22.9434 4.17383 22.4956 4.17383 21.9434V12.0566C4.17383 11.5044 4.62154 11.0566 5.17383 11.0566H26.9668Z" stroke="#2E5D4B" stroke-opacity="0.4" stroke-width="0.2"/>
<path d="M8.58594 14.4844C8.58594 13.9407 9.02666 13.5 9.57031 13.5C10.114 13.5 10.5547 13.9407 10.5547 14.4844V15.5C10.5547 16.0437 10.114 16.4844 9.57031 16.4844C9.02666 16.4844 8.58594 16.0437 8.58594 15.5V14.4844Z" fill="#3A887A"/>
<path d="M8.58594 18.5C8.58594 17.9563 9.02666 17.5156 9.57031 17.5156C10.114 17.5156 10.5547 17.9563 10.5547 18.5V19.5156C10.5547 20.0593 10.114 20.5 9.57031 20.5C9.02666 20.5 8.58594 20.0593 8.58594 19.5156V18.5Z" fill="#3B897C"/>
<path d="M12.6172 14.4844C12.6172 13.9407 13.0579 13.5 13.6016 13.5C14.1452 13.5 14.5859 13.9407 14.5859 14.4844V15.5C14.5859 16.0437 14.1452 16.4844 13.6016 16.4844C13.0579 16.4844 12.6172 16.0437 12.6172 15.5V14.4844Z" fill="#3B897B"/>
<path d="M12.6172 18.5C12.6172 17.9563 13.0579 17.5156 13.6016 17.5156C14.1452 17.5156 14.5859 17.9563 14.5859 18.5V19.5156C14.5859 20.0593 14.1452 20.5 13.6016 20.5C13.0579 20.5 12.6172 20.0593 12.6172 19.5156V18.5Z" fill="#3C897C"/>
<path d="M17.5664 14.4844C17.5664 13.9407 18.0071 13.5 18.5508 13.5C19.0944 13.5 19.5352 13.9407 19.5352 14.4844V15.5C19.5352 16.0437 19.0944 16.4844 18.5508 16.4844C18.0071 16.4844 17.5664 16.0437 17.5664 15.5V14.4844Z" fill="#3B897B"/>
<path d="M17.5664 18.5C17.5664 17.9563 18.0071 17.5156 18.5508 17.5156C19.0944 17.5156 19.5352 17.9563 19.5352 18.5V19.5156C19.5352 20.0593 19.0944 20.5 18.5508 20.5C18.0071 20.5 17.5664 20.0593 17.5664 19.5156V18.5Z" fill="#3B897C"/>
<path d="M21.5977 14.4844C21.5977 13.9407 22.0384 13.5 22.582 13.5C23.1257 13.5 23.5664 13.9407 23.5664 14.4844V15.5C23.5664 16.0437 23.1257 16.4844 22.582 16.4844C22.0384 16.4844 21.5977 16.0437 21.5977 15.5V14.4844Z" fill="#3B897B"/>
<path d="M21.5977 18.5C21.5977 17.9563 22.0384 17.5156 22.582 17.5156C23.1257 17.5156 23.5664 17.9563 23.5664 18.5V19.5156C23.5664 20.0593 23.1257 20.5 22.582 20.5C22.0384 20.5 21.5977 20.0593 21.5977 19.5156V18.5Z" fill="#3C897C"/>
<path d="M4.03125 26.4688C4.03125 25.6576 4.68883 25 5.5 25H10.4609C11.2721 25 11.9297 25.6576 11.9297 26.4688C11.9297 27.2799 11.2721 27.9375 10.4609 27.9375H5.5C4.68883 27.9375 4.03125 27.2799 4.03125 26.4688Z" fill="#E1D9EA"/>
<path d="M4.03125 26.4688C4.03125 25.6576 4.68883 25 5.5 25H10.4609C11.2721 25 11.9297 25.6576 11.9297 26.4688C11.9297 27.2799 11.2721 27.9375 10.4609 27.9375H5.5C4.68883 27.9375 4.03125 27.2799 4.03125 26.4688Z" fill="url(#paint37_linear_37_192)"/>
<path d="M4.03125 26.4688C4.03125 25.6576 4.68883 25 5.5 25H10.4609C11.2721 25 11.9297 25.6576 11.9297 26.4688C11.9297 27.2799 11.2721 27.9375 10.4609 27.9375H5.5C4.68883 27.9375 4.03125 27.2799 4.03125 26.4688Z" fill="url(#paint38_linear_37_192)"/>
<path d="M4.03125 26.4688C4.03125 25.6576 4.68883 25 5.5 25H10.4609C11.2721 25 11.9297 25.6576 11.9297 26.4688C11.9297 27.2799 11.2721 27.9375 10.4609 27.9375H5.5C4.68883 27.9375 4.03125 27.2799 4.03125 26.4688Z" fill="url(#paint39_linear_37_192)" fill-opacity="0.8"/>
<path d="M13.5312 26.4688C13.5312 25.6576 14.1888 25 15 25H19.9609C20.7721 25 21.4297 25.6576 21.4297 26.4688C21.4297 27.2799 20.7721 27.9375 19.9609 27.9375H15C14.1888 27.9375 13.5312 27.2799 13.5312 26.4688Z" fill="#E1D9EA"/>
<path d="M13.5312 26.4688C13.5312 25.6576 14.1888 25 15 25H19.9609C20.7721 25 21.4297 25.6576 21.4297 26.4688C21.4297 27.2799 20.7721 27.9375 19.9609 27.9375H15C14.1888 27.9375 13.5312 27.2799 13.5312 26.4688Z" fill="url(#paint40_linear_37_192)"/>
<path d="M13.5312 26.4688C13.5312 25.6576 14.1888 25 15 25H19.9609C20.7721 25 21.4297 25.6576 21.4297 26.4688C21.4297 27.2799 20.7721 27.9375 19.9609 27.9375H15C14.1888 27.9375 13.5312 27.2799 13.5312 26.4688Z" fill="url(#paint41_linear_37_192)"/>
<path d="M13.5312 26.4688C13.5312 25.6576 14.1888 25 15 25H19.9609C20.7721 25 21.4297 25.6576 21.4297 26.4688C21.4297 27.2799 20.7721 27.9375 19.9609 27.9375H15C14.1888 27.9375 13.5312 27.2799 13.5312 26.4688Z" fill="url(#paint42_linear_37_192)" fill-opacity="0.8"/>
<path d="M23.0312 26.4688C23.0312 25.6576 23.6888 25 24.5 25H26.4766C27.2877 25 27.9453 25.6576 27.9453 26.4688C27.9453 27.2799 27.2877 27.9375 26.4766 27.9375H24.5C23.6888 27.9375 23.0312 27.2799 23.0312 26.4688Z" fill="#F53D67"/>
<path d="M23.0312 26.4688C23.0312 25.6576 23.6888 25 24.5 25H26.4766C27.2877 25 27.9453 25.6576 27.9453 26.4688C27.9453 27.2799 27.2877 27.9375 26.4766 27.9375H24.5C23.6888 27.9375 23.0312 27.2799 23.0312 26.4688Z" fill="url(#paint43_radial_37_192)"/>
<path d="M23.0312 26.4688C23.0312 25.6576 23.6888 25 24.5 25H26.4766C27.2877 25 27.9453 25.6576 27.9453 26.4688C27.9453 27.2799 27.2877 27.9375 26.4766 27.9375H24.5C23.6888 27.9375 23.0312 27.2799 23.0312 26.4688Z" fill="url(#paint44_linear_37_192)"/>
<path d="M23.0312 26.4688C23.0312 25.6576 23.6888 25 24.5 25H26.4766C27.2877 25 27.9453 25.6576 27.9453 26.4688C27.9453 27.2799 27.2877 27.9375 26.4766 27.9375H24.5C23.6888 27.9375 23.0312 27.2799 23.0312 26.4688Z" fill="url(#paint45_linear_37_192)"/>
<path d="M23.0312 26.4688C23.0312 25.6576 23.6888 25 24.5 25H26.4766C27.2877 25 27.9453 25.6576 27.9453 26.4688C27.9453 27.2799 27.2877 27.9375 26.4766 27.9375H24.5C23.6888 27.9375 23.0312 27.2799 23.0312 26.4688Z" fill="url(#paint46_linear_37_192)" fill-opacity="0.9"/>
<path d="M23.0312 26.4688C23.0312 25.6576 23.6888 25 24.5 25H26.4766C27.2877 25 27.9453 25.6576 27.9453 26.4688C27.9453 27.2799 27.2877 27.9375 26.4766 27.9375H24.5C23.6888 27.9375 23.0312 27.2799 23.0312 26.4688Z" fill="url(#paint47_linear_37_192)"/>
<path d="M23.0312 26.4688C23.0312 25.6576 23.6888 25 24.5 25H26.4766C27.2877 25 27.9453 25.6576 27.9453 26.4688C27.9453 27.2799 27.2877 27.9375 26.4766 27.9375H24.5C23.6888 27.9375 23.0312 27.2799 23.0312 26.4688Z" fill="url(#paint48_linear_37_192)" fill-opacity="0.8"/>
<path d="M23.0312 26.4688C23.0312 25.6576 23.6888 25 24.5 25H26.4766C27.2877 25 27.9453 25.6576 27.9453 26.4688C27.9453 27.2799 27.2877 27.9375 26.4766 27.9375H24.5C23.6888 27.9375 23.0312 27.2799 23.0312 26.4688Z" fill="url(#paint49_radial_37_192)" fill-opacity="0.8"/>
<defs>
<linearGradient id="paint0_linear_37_192" x1="16" y1="9.03125" x2="16" y2="29.9531" gradientUnits="userSpaceOnUse">
<stop stop-color="#5F4675"/>
<stop offset="1" stop-color="#50425D"/>
</linearGradient>
<radialGradient id="paint1_radial_37_192" cx="0" cy="0" r="1" gradientUnits="userSpaceOnUse" gradientTransform="translate(29.6026 9.82704) rotate(137.187) scale(3.37782 9.33414)">
<stop offset="0.0570867" stop-color="#543B6B"/>
<stop offset="0.207034" stop-color="#543B6B" stop-opacity="0"/>
</radialGradient>
<linearGradient id="paint2_linear_37_192" x1="32.3722" y1="20.0011" x2="-0.670276" y2="20.0011" gradientUnits="userSpaceOnUse">
<stop offset="0.084581" stop-color="#A898B7" stop-opacity="0"/>
<stop offset="0.093625" stop-color="#A898B7" stop-opacity="0.12"/>
<stop offset="0.102712" stop-color="#A898B7" stop-opacity="0.22"/>
<stop offset="0.112556" stop-color="#A898B7" stop-opacity="0.12"/>
<stop offset="0.125071" stop-color="#4A2D63" stop-opacity="0"/>
<stop offset="0.862347" stop-color="#50425D" stop-opacity="0"/>
<stop offset="0.899054" stop-color="#372E40"/>
<stop offset="0.91942" stop-color="#231B2B"/>
</linearGradient>
<linearGradient id="paint3_linear_37_192" x1="17.0964" y1="7.52129" x2="17.0964" y2="31.8564" gradientUnits="userSpaceOnUse">
<stop offset="0.0510935" stop-color="#4A2D63"/>
<stop offset="0.105191" stop-color="#745E87"/>
<stop offset="0.116146" stop-color="#745E87"/>
<stop offset="0.132037" stop-color="#674F7E"/>
<stop offset="0.33538" stop-color="#4A2D63" stop-opacity="0"/>
<stop offset="0.66106" stop-color="#50425D" stop-opacity="0"/>
<stop offset="0.770454" stop-color="#50425D" stop-opacity="0.58"/>
<stop offset="0.874926" stop-color="#3A3043"/>
<stop offset="0.915594" stop-color="#241B2D"/>
</linearGradient>
<radialGradient id="paint4_radial_37_192" cx="0" cy="0" r="1" gradientUnits="userSpaceOnUse" gradientTransform="translate(5.51026 26.5659) rotate(8.06327) scale(1.82902 1.80259)">
<stop offset="0.827412" stop-color="#3F304C"/>
<stop offset="1" stop-color="#3F304C" stop-opacity="0"/>
</radialGradient>
<radialGradient id="paint5_radial_37_192" cx="0" cy="0" r="1" gradientUnits="userSpaceOnUse" gradientTransform="translate(15 26.625) rotate(31.6075) scale(1.90804 1.88047)">
<stop offset="0.827412" stop-color="#3F304C"/>
<stop offset="1" stop-color="#3F304C" stop-opacity="0"/>
</radialGradient>
<radialGradient id="paint6_radial_37_192" cx="0" cy="0" r="1" gradientUnits="userSpaceOnUse" gradientTransform="translate(24.278 26.4394) rotate(22.2614) scale(1.50969 1.62196)">
<stop offset="0.827412" stop-color="#3F304C"/>
<stop offset="1" stop-color="#3F304C" stop-opacity="0"/>
</radialGradient>
<radialGradient id="paint7_radial_37_192" cx="0" cy="0" r="1" gradientUnits="userSpaceOnUse" gradientTransform="translate(26.7742 26.4367) rotate(165.617) scale(1.43544 1.54218)">
<stop offset="0.827412" stop-color="#3F304C"/>
<stop offset="1" stop-color="#3F304C" stop-opacity="0"/>
</radialGradient>
<radialGradient id="paint8_radial_37_192" cx="0" cy="0" r="1" gradientUnits="userSpaceOnUse" gradientTransform="translate(25.4102 26.3082) rotate(89.9053) scale(1.86984 2.72061)">
<stop offset="0.83582" stop-color="#3F304C"/>
<stop offset="0.925373" stop-color="#3F304C" stop-opacity="0"/>
</radialGradient>
<radialGradient id="paint9_radial_37_192" cx="0" cy="0" r="1" gradientUnits="userSpaceOnUse" gradientTransform="translate(25.2887 24.4136) rotate(90) scale(0.705832 3.82401)">
<stop offset="0.569239" stop-color="#554464"/>
<stop offset="1" stop-color="#554464" stop-opacity="0"/>
</radialGradient>
<radialGradient id="paint10_radial_37_192" cx="0" cy="0" r="1" gradientUnits="userSpaceOnUse" gradientTransform="translate(19.9062 26.6563) rotate(150.852) scale(1.86062 1.83373)">
<stop offset="0.827412" stop-color="#3F304C"/>
<stop offset="1" stop-color="#3F304C" stop-opacity="0"/>
</radialGradient>
<radialGradient id="paint11_radial_37_192" cx="0" cy="0" r="1" gradientUnits="userSpaceOnUse" gradientTransform="translate(17.4688 25.2161) rotate(90) scale(0.544201 3.66986)">
<stop offset="0.595745" stop-color="#3F304C" stop-opacity="0.78"/>
<stop offset="0.914894" stop-color="#3F304C" stop-opacity="0"/>
</radialGradient>
<radialGradient id="paint12_radial_37_192" cx="0" cy="0" r="1" gradientUnits="userSpaceOnUse" gradientTransform="translate(17.4688 27.9566) rotate(-90) scale(0.659202 2.94611)">
<stop stop-color="#3F304C"/>
<stop offset="0.595745" stop-color="#3F304C"/>
<stop offset="0.914894" stop-color="#3F304C" stop-opacity="0"/>
</radialGradient>
<radialGradient id="paint13_radial_37_192" cx="0" cy="0" r="1" gradientUnits="userSpaceOnUse" gradientTransform="translate(10.1166 26.5449) rotate(174.545) scale(2.12588 1.75725)">
<stop offset="0.853988" stop-color="#3F304C"/>
<stop offset="1" stop-color="#3F304C" stop-opacity="0"/>
</radialGradient>
<radialGradient id="paint14_radial_37_192" cx="0" cy="0" r="1" gradientUnits="userSpaceOnUse" gradientTransform="translate(8.07575 27.7581) rotate(177.927) scale(3.33732 0.604002)">
<stop offset="0.754892" stop-color="#3F304C"/>
<stop offset="1" stop-color="#3F304C" stop-opacity="0"/>
</radialGradient>
<radialGradient id="paint15_radial_37_192" cx="0" cy="0" r="1" gradientUnits="userSpaceOnUse" gradientTransform="translate(8.14486 24.966) rotate(179.323) scale(3.17934 0.188768)">
<stop offset="0.0547448" stop-color="#3F304C"/>
<stop offset="1" stop-color="#3F304C" stop-opacity="0"/>
</radialGradient>
<radialGradient id="paint16_radial_37_192" cx="0" cy="0" r="1" gradientUnits="userSpaceOnUse" gradientTransform="translate(17.3967 24.5165) rotate(90) scale(0.468541 4.95995)">
<stop offset="0.360232" stop-color="#554464"/>
<stop offset="1" stop-color="#554464" stop-opacity="0"/>
</radialGradient>
<linearGradient id="paint17_linear_37_192" x1="17.0964" y1="7.52129" x2="17.0964" y2="31.8564" gradientUnits="userSpaceOnUse">
<stop offset="0.127807" stop-color="#4A2D63" stop-opacity="0"/>
<stop offset="0.148248" stop-color="#4A2D63" stop-opacity="0.88"/>
<stop offset="0.165889" stop-color="#4A2D63" stop-opacity="0"/>
</linearGradient>
<linearGradient id="paint18_linear_37_192" x1="31.1606" y1="30.5711" x2="0.581033" y2="8.18904" gradientUnits="userSpaceOnUse">
<stop offset="0.0560546" stop-color="#3D3147"/>
<stop offset="0.0733026" stop-color="#3D3147" stop-opacity="0.59"/>
<stop offset="0.0996317" stop-color="#4A2D63" stop-opacity="0"/>
<stop offset="0.851538" stop-color="#50425D" stop-opacity="0"/>
<stop offset="0.933263" stop-color="#372E40"/>
</linearGradient>
<radialGradient id="paint19_radial_37_192" cx="0" cy="0" r="1" gradientUnits="userSpaceOnUse" gradientTransform="translate(28.6416 10.8985) rotate(53.725) scale(1.57085 0.997227)">
<stop stop-color="#725C85"/>
<stop offset="1" stop-color="#725C85" stop-opacity="0"/>
</radialGradient>
<radialGradient id="paint20_radial_37_192" cx="0" cy="0" r="1" gradientUnits="userSpaceOnUse" gradientTransform="translate(27.9613 10.6481) rotate(18.843) scale(1.52772 0.423407)">
<stop stop-color="#725C85"/>
<stop offset="1" stop-color="#725C85" stop-opacity="0"/>
</radialGradient>
<radialGradient id="paint21_radial_37_192" cx="0" cy="0" r="1" gradientUnits="userSpaceOnUse" gradientTransform="translate(28.4395 10.9847) rotate(59.7436) scale(1.06493 0.511311)">
<stop stop-color="#725C85"/>
<stop offset="1" stop-color="#725C85" stop-opacity="0"/>
</radialGradient>
<radialGradient id="paint22_radial_37_192" cx="0" cy="0" r="1" gradientUnits="userSpaceOnUse" gradientTransform="translate(4.01592 11.225) rotate(71.8473) scale(1.25527 1.53712)">
<stop offset="0.398503" stop-color="#5B456E"/>
<stop offset="0.792899" stop-color="#5B456E" stop-opacity="0"/>
</radialGradient>
<linearGradient id="paint23_linear_37_192" x1="32.3722" y1="20.0011" x2="-0.670276" y2="20.0011" gradientUnits="userSpaceOnUse">
<stop offset="0.868257" stop-color="#50425D" stop-opacity="0"/>
<stop offset="0.91942" stop-color="#231B2B"/>
</linearGradient>
<linearGradient id="paint24_linear_37_192" x1="31.3987" y1="7.35614" x2="0.772708" y2="30.4459" gradientUnits="userSpaceOnUse">
<stop offset="0.0803956" stop-color="#52316D"/>
<stop offset="0.103711" stop-color="#5F4776"/>
<stop offset="0.123915" stop-color="#5F4776" stop-opacity="0"/>
<stop offset="0.851538" stop-color="#50425D" stop-opacity="0"/>
<stop offset="0.919628" stop-color="#372E40"/>
</linearGradient>
<radialGradient id="paint25_radial_37_192" cx="0" cy="0" r="1" gradientUnits="userSpaceOnUse" gradientTransform="translate(4.89142 12.2615) rotate(90.0704) scale(1.66233 1.27905)">
<stop stop-color="#7E748E"/>
<stop offset="1" stop-color="#7E748E" stop-opacity="0"/>
</radialGradient>
<radialGradient id="paint26_radial_37_192" cx="0" cy="0" r="1" gradientUnits="userSpaceOnUse" gradientTransform="translate(5.11232 21.8197) rotate(-126.607) scale(1.46037 1.34136)">
<stop stop-color="#7E748E"/>
<stop offset="1" stop-color="#7E748E" stop-opacity="0"/>
</radialGradient>
<radialGradient id="paint27_radial_37_192" cx="0" cy="0" r="1" gradientUnits="userSpaceOnUse" gradientTransform="translate(4.30496 16.3931) rotate(87.1184) scale(5.62172 0.546197)">
<stop stop-color="#7E748E"/>
<stop offset="1" stop-color="#7E748E" stop-opacity="0"/>
</radialGradient>
<radialGradient id="paint28_radial_37_192" cx="0" cy="0" r="1" gradientUnits="userSpaceOnUse" gradientTransform="translate(11.2955 22.6608) rotate(177.769) scale(7.25063 0.704459)">
<stop stop-color="#7E748E"/>
<stop offset="1" stop-color="#7E748E" stop-opacity="0"/>
</radialGradient>
<radialGradient id="paint29_radial_37_192" cx="0" cy="0" r="1" gradientUnits="userSpaceOnUse" gradientTransform="translate(16 22.6294) rotate(-179.534) scale(7.71573 0.749648)">
<stop stop-color="#7E748E"/>
<stop offset="1" stop-color="#7E748E" stop-opacity="0"/>
</radialGradient>
<radialGradient id="paint30_radial_37_192" cx="0" cy="0" r="1" gradientUnits="userSpaceOnUse" gradientTransform="translate(21.8025 22.7862) rotate(-177.215) scale(5.80936 0.564428)">
<stop stop-color="#7E748E"/>
<stop offset="1" stop-color="#7E748E" stop-opacity="0"/>
</radialGradient>
<radialGradient id="paint31_radial_37_192" cx="0" cy="0" r="1" gradientUnits="userSpaceOnUse" gradientTransform="translate(4.23997 17.6036) rotate(91.3374) scale(4.99315 0.485127)">
<stop stop-color="#7E748E"/>
<stop offset="1" stop-color="#7E748E" stop-opacity="0"/>
</radialGradient>
<radialGradient id="paint32_radial_37_192" cx="0" cy="0" r="1" gradientUnits="userSpaceOnUse" gradientTransform="translate(27.9223 11.5321) rotate(53.0468) scale(1.02452 0.968002)">
<stop stop-color="#5E4576"/>
<stop offset="1" stop-color="#5E4576" stop-opacity="0"/>
</radialGradient>
<radialGradient id="paint33_radial_37_192" cx="0" cy="0" r="1" gradientUnits="userSpaceOnUse" gradientTransform="translate(28.0497 10.9155) rotate(122.8) scale(1.29745 1.58877)">
<stop offset="0.235748" stop-color="#725C85"/>
<stop offset="0.792899" stop-color="#725C85" stop-opacity="0"/>
</radialGradient>
<radialGradient id="paint34_radial_37_192" cx="0" cy="0" r="1" gradientUnits="userSpaceOnUse" gradientTransform="translate(27.2812 11.7625) rotate(4.7902) scale(1.70079 1.45359)">
<stop offset="0.421002" stop-color="#583D71"/>
<stop offset="1" stop-color="#5E4675" stop-opacity="0"/>
</radialGradient>
<linearGradient id="paint35_linear_37_192" x1="12.2422" y1="22.1875" x2="25.4965" y2="7.90117" gradientUnits="userSpaceOnUse">
<stop stop-color="#4DE399"/>
<stop offset="1" stop-color="#47C282"/>
</linearGradient>
<linearGradient id="paint36_linear_37_192" x1="18.2422" y1="24.0313" x2="18.2422" y2="20.6875" gradientUnits="userSpaceOnUse">
<stop stop-color="#4BE18C"/>
<stop offset="1" stop-color="#4DE299" stop-opacity="0"/>
</linearGradient>
<linearGradient id="paint37_linear_37_192" x1="7.98047" y1="25" x2="12.2147" y2="27.4105" gradientUnits="userSpaceOnUse">
<stop offset="0.489316" stop-color="#E1D9EA" stop-opacity="0"/>
<stop offset="0.800749" stop-color="#CBB3E2" stop-opacity="0.95"/>
<stop offset="0.921072" stop-color="#B48CDB" stop-opacity="0.82"/>
</linearGradient>
<linearGradient id="paint38_linear_37_192" x1="7.98047" y1="25" x2="4.03125" y2="28.1547" gradientUnits="userSpaceOnUse">
<stop offset="0.489316" stop-color="#E1D9EA" stop-opacity="0"/>
<stop offset="0.800749" stop-color="#CBB3E2" stop-opacity="0.95"/>
<stop offset="0.921072" stop-color="#B48CDB" stop-opacity="0.82"/>
</linearGradient>
<linearGradient id="paint39_linear_37_192" x1="7.98047" y1="25" x2="7.98047" y2="28.1273" gradientUnits="userSpaceOnUse">
<stop offset="0.489316" stop-color="#E1D9EA" stop-opacity="0"/>
<stop offset="0.800749" stop-color="#CBB3E2" stop-opacity="0.95"/>
<stop offset="0.921072" stop-color="#B48CDB" stop-opacity="0.82"/>
</linearGradient>
<linearGradient id="paint40_linear_37_192" x1="17.4805" y1="25" x2="21.7147" y2="27.4105" gradientUnits="userSpaceOnUse">
<stop offset="0.489316" stop-color="#E1D9EA" stop-opacity="0"/>
<stop offset="0.800749" stop-color="#CBB3E2" stop-opacity="0.95"/>
<stop offset="0.921072" stop-color="#B48CDB" stop-opacity="0.82"/>
</linearGradient>
<linearGradient id="paint41_linear_37_192" x1="17.4805" y1="25" x2="13.5312" y2="28.1547" gradientUnits="userSpaceOnUse">
<stop offset="0.489316" stop-color="#E1D9EA" stop-opacity="0"/>
<stop offset="0.800749" stop-color="#CBB3E2" stop-opacity="0.95"/>
<stop offset="0.921072" stop-color="#B48CDB" stop-opacity="0.82"/>
</linearGradient>
<linearGradient id="paint42_linear_37_192" x1="17.4805" y1="25" x2="17.4805" y2="28.1273" gradientUnits="userSpaceOnUse">
<stop offset="0.489316" stop-color="#E1D9EA" stop-opacity="0"/>
<stop offset="0.800749" stop-color="#CBB3E2" stop-opacity="0.95"/>
<stop offset="0.921072" stop-color="#B48CDB" stop-opacity="0.82"/>
</linearGradient>
<radialGradient id="paint43_radial_37_192" cx="0" cy="0" r="1" gradientUnits="userSpaceOnUse" gradientTransform="translate(27.6484 25.7188) rotate(144.782) scale(1.30054 2.29322)">
<stop offset="0.213626" stop-color="#FF6588"/>
<stop offset="1" stop-color="#FF6588" stop-opacity="0"/>
</radialGradient>
<linearGradient id="paint44_linear_37_192" x1="25.4883" y1="28.4214" x2="25.4883" y2="26.0841" gradientUnits="userSpaceOnUse">
<stop offset="0.266667" stop-color="#D71C49"/>
<stop offset="0.422222" stop-color="#E1214F"/>
<stop offset="1" stop-color="#F63E68" stop-opacity="0"/>
</linearGradient>
<linearGradient id="paint45_linear_37_192" x1="25.4883" y1="24.6055" x2="25.4883" y2="26.0841" gradientUnits="userSpaceOnUse">
<stop offset="0.266667" stop-color="#EA2265"/>
<stop offset="0.521173" stop-color="#F23570" stop-opacity="0"/>
</linearGradient>
<linearGradient id="paint46_linear_37_192" x1="27.8184" y1="24.8486" x2="27.0213" y2="26.0915" gradientUnits="userSpaceOnUse">
<stop offset="0.390391" stop-color="#EA2265"/>
<stop offset="1" stop-color="#EA2E5A" stop-opacity="0"/>
</linearGradient>
<linearGradient id="paint47_linear_37_192" x1="28.8489" y1="26.2839" x2="27.2908" y2="26.2839" gradientUnits="userSpaceOnUse">
<stop offset="0.523387" stop-color="#EA2265"/>
<stop offset="1" stop-color="#EA2E5A" stop-opacity="0"/>
</linearGradient>
<linearGradient id="paint48_linear_37_192" x1="22.4733" y1="26.2839" x2="23.9007" y2="26.2839" gradientUnits="userSpaceOnUse">
<stop offset="0.523387" stop-color="#E22252"/>
<stop offset="1" stop-color="#EA2E5A" stop-opacity="0"/>
</linearGradient>
<radialGradient id="paint49_radial_37_192" cx="0" cy="0" r="1" gradientUnits="userSpaceOnUse" gradientTransform="translate(27.6345 27.7784) rotate(-142.734) scale(1.19792 2.11227)">
<stop offset="0.213626" stop-color="#D11743"/>
<stop offset="1" stop-color="#E01F4E" stop-opacity="0"/>
</radialGradient>
</defs>
</svg>
