<svg width="32" height="32" viewBox="0 0 32 32" fill="none" xmlns="http://www.w3.org/2000/svg">
<rect x="2.07031" y="2.04688" width="27.9062" height="27.9062" rx="3.8" fill="#D8D1E0"/>
<rect x="2.07031" y="2.04688" width="27.9062" height="27.9062" rx="3.8" fill="url(#paint0_linear_38_260)"/>
<rect x="2.07031" y="2.04688" width="27.9062" height="27.9062" rx="3.8" fill="url(#paint1_linear_38_260)"/>
<rect x="2.07031" y="2.04688" width="27.9062" height="27.9062" rx="3.8" fill="url(#paint2_linear_38_260)"/>
<rect x="2.07031" y="2.04688" width="27.9062" height="27.9062" rx="3.8" fill="url(#paint3_linear_38_260)"/>
<rect x="2.07031" y="2.04688" width="27.9062" height="27.9062" rx="3.8" fill="url(#paint4_linear_38_260)"/>
<rect x="2.07031" y="2.04688" width="27.9062" height="27.9062" rx="3.8" fill="url(#paint5_linear_38_260)"/>
<rect x="2.07031" y="2.04688" width="27.9062" height="27.9062" rx="3.8" fill="url(#paint6_linear_38_260)"/>
<rect x="2.07031" y="2.04688" width="27.9062" height="27.9062" rx="3.8" fill="url(#paint7_linear_38_260)"/>
<rect x="2.07031" y="2.04688" width="27.9062" height="27.9062" rx="3.8" fill="url(#paint8_linear_38_260)"/>
<rect x="2.07031" y="2.04688" width="27.9062" height="27.9062" rx="3.8" fill="url(#paint9_radial_38_260)"/>
<rect x="2.07031" y="2.04688" width="27.9062" height="27.9062" rx="3.8" fill="url(#paint10_radial_38_260)"/>
<g opacity="0.64">
<path d="M26.2544 29.5033C25.8151 29.7967 25.3114 29.9634 24.776 29.9634H21.4505C20.1157 20.9149 20.2124 15.8423 21.4505 6.79365C21.4505 6.13083 21.8884 5.59351 22.4285 5.59351H25.2764C25.8165 5.59351 26.2544 6.13083 26.2544 6.79365V29.5033Z" fill="url(#paint11_radial_38_260)"/>
<path d="M26.2544 29.5033C25.8151 29.7967 25.3114 29.9634 24.776 29.9634H21.4505C20.1157 20.9149 20.2124 15.8423 21.4505 6.79365C21.4505 6.13083 21.8884 5.59351 22.4285 5.59351H25.2764C25.8165 5.59351 26.2544 6.13083 26.2544 6.79365V29.5033Z" fill="url(#paint12_radial_38_260)"/>
</g>
<path fill-rule="evenodd" clip-rule="evenodd" d="M11.5234 2.05469H10.5234V10.4453H2.04688V11.4453H10.5234V20.4141H2.04688V21.4141H10.5234V29.9609H11.5234V21.4141H20.5234V29.9609H21.5234V21.4141H29.9531V20.4141H21.5234V11.4453H29.9531V10.4453H21.5234V2.05469H20.5234V10.4453H11.5234V2.05469ZM20.5234 11.4453V20.4141H11.5234V11.4453H20.5234Z" fill="url(#paint13_linear_38_260)"/>
<path fill-rule="evenodd" clip-rule="evenodd" d="M11.5234 2.05469H10.5234V10.4453H2.04688V11.4453H10.5234V20.4141H2.04688V21.4141H10.5234V29.9609H11.5234V21.4141H20.5234V29.9609H21.5234V21.4141H29.9531V20.4141H21.5234V11.4453H29.9531V10.4453H21.5234V2.05469H20.5234V10.4453H11.5234V2.05469ZM20.5234 11.4453V20.4141H11.5234V11.4453H20.5234Z" fill="url(#paint14_linear_38_260)"/>
<path fill-rule="evenodd" clip-rule="evenodd" d="M11.5234 2.05469H10.5234V10.4453H2.04688V11.4453H10.5234V20.4141H2.04688V21.4141H10.5234V29.9609H11.5234V21.4141H20.5234V29.9609H21.5234V21.4141H29.9531V20.4141H21.5234V11.4453H29.9531V10.4453H21.5234V2.05469H20.5234V10.4453H11.5234V2.05469ZM20.5234 11.4453V20.4141H11.5234V11.4453H20.5234Z" fill="url(#paint15_linear_38_260)"/>
<path fill-rule="evenodd" clip-rule="evenodd" d="M11.5234 2.05469H10.5234V10.4453H2.04688V11.4453H10.5234V20.4141H2.04688V21.4141H10.5234V29.9609H11.5234V21.4141H20.5234V29.9609H21.5234V21.4141H29.9531V20.4141H21.5234V11.4453H29.9531V10.4453H21.5234V2.05469H20.5234V10.4453H11.5234V2.05469ZM20.5234 11.4453V20.4141H11.5234V11.4453H20.5234Z" fill="url(#paint16_linear_38_260)"/>
<path fill-rule="evenodd" clip-rule="evenodd" d="M11.5234 2.05469H10.5234V10.4453H2.04688V11.4453H10.5234V20.4141H2.04688V21.4141H10.5234V29.9609H11.5234V21.4141H20.5234V29.9609H21.5234V21.4141H23.4953V20.4141H21.5234V11.4453H23.4953V10.4453H21.5234V2.05469H20.5234V10.4453H11.5234V2.05469ZM20.5234 11.4453V20.4141H11.5234V11.4453H20.5234Z" fill="url(#paint17_linear_38_260)"/>
<path fill-rule="evenodd" clip-rule="evenodd" d="M11.5234 2.05469H10.5234V10.4453H2.04688V11.4453H10.5234V20.4141H2.04688V21.4141H10.5234V29.9609H11.5234V21.4141H20.5234V29.9609H21.5234V21.4141H23.4953V20.4141H21.5234V11.4453H23.4953V10.4453H21.5234V2.05469H20.5234V10.4453H11.5234V2.05469ZM20.5234 11.4453V20.4141H11.5234V11.4453H20.5234Z" fill="url(#paint18_linear_38_260)"/>
<path fill-rule="evenodd" clip-rule="evenodd" d="M11.5234 2.05469H10.5234V10.4453H2.04688V11.4453H10.5234V20.4141H2.04688V21.4141H10.5234V29.9609H11.5234V21.4141H20.5234V29.9609H21.5234V21.4141H23.4953V20.4141H21.5234V11.4453H23.4953V10.4453H21.5234V2.05469H20.5234V10.4453H11.5234V2.05469ZM20.5234 11.4453V20.4141H11.5234V11.4453H20.5234Z" fill="url(#paint19_linear_38_260)"/>
<path d="M27.9671 29.5007C27.428 29.7942 26.81 29.9608 26.1531 29.9608H22.0728V6.79352C22.0728 6.13077 22.61 5.59351 23.2728 5.59351H26.7671C27.4298 5.59351 27.9671 6.13077 27.9671 6.79352V29.5007Z" fill="url(#paint20_linear_38_260)"/>
<path d="M27.9671 29.5007C27.428 29.7942 26.81 29.9608 26.1531 29.9608H22.0728V6.79352C22.0728 6.13077 22.61 5.59351 23.2728 5.59351H26.7671C27.4298 5.59351 27.9671 6.13077 27.9671 6.79352V29.5007Z" fill="url(#paint21_linear_38_260)"/>
<path d="M27.9671 29.5007C27.428 29.7942 26.81 29.9608 26.1531 29.9608H22.0728V6.79352C22.0728 6.13077 22.61 5.59351 23.2728 5.59351H26.7671C27.4298 5.59351 27.9671 6.13077 27.9671 6.79352V29.5007Z" fill="url(#paint22_linear_38_260)"/>
<path d="M27.9671 29.5007C27.428 29.7942 26.81 29.9608 26.1531 29.9608H22.0728V6.79352C22.0728 6.13077 22.61 5.59351 23.2728 5.59351H26.7671C27.4298 5.59351 27.9671 6.13077 27.9671 6.79352V29.5007Z" fill="url(#paint23_linear_38_260)"/>
<path d="M27.9671 29.5007C27.428 29.7942 26.81 29.9608 26.1531 29.9608H22.0728V6.79352C22.0728 6.13077 22.61 5.59351 23.2728 5.59351H26.7671C27.4298 5.59351 27.9671 6.13077 27.9671 6.79352V29.5007Z" fill="url(#paint24_linear_38_260)"/>
<path d="M27.9671 29.5007C27.428 29.7942 26.81 29.9608 26.1531 29.9608H22.0728V6.79352C22.0728 6.13077 22.61 5.59351 23.2728 5.59351H26.7671C27.4298 5.59351 27.9671 6.13077 27.9671 6.79352V29.5007Z" fill="url(#paint25_linear_38_260)"/>
<path d="M27.9671 29.5007C27.428 29.7942 26.81 29.9608 26.1531 29.9608H22.0728V6.79352C22.0728 6.13077 22.61 5.59351 23.2728 5.59351H26.7671C27.4298 5.59351 27.9671 6.13077 27.9671 6.79352V29.5007Z" fill="url(#paint26_linear_38_260)"/>
<path d="M27.9671 29.5007C27.428 29.7942 26.81 29.9608 26.1531 29.9608H22.0728V6.79352C22.0728 6.13077 22.61 5.59351 23.2728 5.59351H26.7671C27.4298 5.59351 27.9671 6.13077 27.9671 6.79352V29.5007Z" fill="url(#paint27_linear_38_260)"/>
<path d="M13.4587 10.4453H11.5234V2.05469H10.5234V10.4453H2.04688V11.4453H10.5234V20.4141H2.04688V21.4141H10.5234V29.9609H11.5234V21.4141H13.4587V20.4141H11.5234V11.4453H13.4587V10.4453Z" fill="url(#paint28_radial_38_260)"/>
<path d="M13.4587 10.4453H11.5234V2.05469H10.5234V10.4453H2.04688V11.4453H10.5234V20.4141H2.04688V21.4141H10.5234V29.9609H11.5234V21.4141H13.4587V20.4141H11.5234V11.4453H13.4587V10.4453Z" fill="url(#paint29_linear_38_260)"/>
<path d="M18.9471 29.9608H13.0527V17.8467C13.0527 17.184 13.59 16.6467 14.2527 16.6467H17.7471C18.4098 16.6467 18.9471 17.184 18.9471 17.8467V29.9608Z" fill="url(#paint30_linear_38_260)"/>
<path d="M18.9471 29.9608H13.0527V17.8467C13.0527 17.184 13.59 16.6467 14.2527 16.6467H17.7471C18.4098 16.6467 18.9471 17.184 18.9471 17.8467V29.9608Z" fill="url(#paint31_linear_38_260)"/>
<path d="M18.9471 29.9608H13.0527V17.8467C13.0527 17.184 13.59 16.6467 14.2527 16.6467H17.7471C18.4098 16.6467 18.9471 17.184 18.9471 17.8467V29.9608Z" fill="url(#paint32_linear_38_260)"/>
<path d="M18.9471 29.9608H13.0527V17.8467C13.0527 17.184 13.59 16.6467 14.2527 16.6467H17.7471C18.4098 16.6467 18.9471 17.184 18.9471 17.8467V29.9608Z" fill="url(#paint33_linear_38_260)"/>
<path d="M18.9471 29.9608H13.0527V17.8467C13.0527 17.184 13.59 16.6467 14.2527 16.6467H17.7471C18.4098 16.6467 18.9471 17.184 18.9471 17.8467V29.9608Z" fill="url(#paint34_linear_38_260)"/>
<path d="M18.9471 29.9608H13.0527V17.8467C13.0527 17.184 13.59 16.6467 14.2527 16.6467H17.7471C18.4098 16.6467 18.9471 17.184 18.9471 17.8467V29.9608Z" fill="url(#paint35_linear_38_260)"/>
<path d="M9.92706 29.9608H5.84674C5.18982 29.9608 4.57178 29.7941 4.03271 29.5007V9.86505C4.03271 9.2023 4.56995 8.66504 5.23273 8.66504H8.72705C9.38977 8.66504 9.92706 9.2023 9.92706 9.86505V29.9608Z" fill="url(#paint36_linear_38_260)"/>
<path d="M9.92706 29.9608H5.84674C5.18982 29.9608 4.57178 29.7941 4.03271 29.5007V9.86505C4.03271 9.2023 4.56995 8.66504 5.23273 8.66504H8.72705C9.38977 8.66504 9.92706 9.2023 9.92706 9.86505V29.9608Z" fill="url(#paint37_linear_38_260)"/>
<path d="M9.92706 29.9608H5.84674C5.18982 29.9608 4.57178 29.7941 4.03271 29.5007V9.86505C4.03271 9.2023 4.56995 8.66504 5.23273 8.66504H8.72705C9.38977 8.66504 9.92706 9.2023 9.92706 9.86505V29.9608Z" fill="url(#paint38_linear_38_260)"/>
<path d="M9.92706 29.9608H5.84674C5.18982 29.9608 4.57178 29.7941 4.03271 29.5007V9.86505C4.03271 9.2023 4.56995 8.66504 5.23273 8.66504H8.72705C9.38977 8.66504 9.92706 9.2023 9.92706 9.86505V29.9608Z" fill="url(#paint39_linear_38_260)"/>
<path d="M9.92706 29.9608H5.84674C5.18982 29.9608 4.57178 29.7941 4.03271 29.5007V9.86505C4.03271 9.2023 4.56995 8.66504 5.23273 8.66504H8.72705C9.38977 8.66504 9.92706 9.2023 9.92706 9.86505V29.9608Z" fill="url(#paint40_linear_38_260)"/>
<path d="M9.92706 29.9608H5.84674C5.18982 29.9608 4.57178 29.7941 4.03271 29.5007V9.86505C4.03271 9.2023 4.56995 8.66504 5.23273 8.66504H8.72705C9.38977 8.66504 9.92706 9.2023 9.92706 9.86505V29.9608Z" fill="url(#paint41_linear_38_260)"/>
<defs>
<linearGradient id="paint0_linear_38_260" x1="13.4841" y1="22.5652" x2="11.9047" y2="22.5652" gradientUnits="userSpaceOnUse">
<stop stop-color="#9B98B3" stop-opacity="0"/>
<stop offset="0.214599" stop-color="#9B98B3"/>
<stop offset="1" stop-color="#9B98B3" stop-opacity="0"/>
</linearGradient>
<linearGradient id="paint1_linear_38_260" x1="16.0234" y1="2.04687" x2="16.0234" y2="18.2313" gradientUnits="userSpaceOnUse">
<stop offset="0.892773" stop-color="#D8D1E0"/>
<stop offset="0.909053" stop-color="#D8D1E0" stop-opacity="0.931542"/>
<stop offset="0.937989" stop-color="#D8D1E0" stop-opacity="0.671121"/>
<stop offset="1" stop-color="#D8D1E0" stop-opacity="0"/>
</linearGradient>
<linearGradient id="paint2_linear_38_260" x1="4.42471" y1="22.5652" x2="2.80049" y2="22.5652" gradientUnits="userSpaceOnUse">
<stop stop-color="#9B98B3" stop-opacity="0"/>
<stop offset="0.214599" stop-color="#9B98B3"/>
<stop offset="1" stop-color="#9B98B3" stop-opacity="0"/>
</linearGradient>
<linearGradient id="paint3_linear_38_260" x1="16.0234" y1="2.04687" x2="16.0234" y2="9.82505" gradientUnits="userSpaceOnUse">
<stop offset="0.892773" stop-color="#D8D1E0"/>
<stop offset="0.909053" stop-color="#D8D1E0" stop-opacity="0.931542"/>
<stop offset="0.937989" stop-color="#D8D1E0" stop-opacity="0.671121"/>
<stop offset="1" stop-color="#D8D1E0" stop-opacity="0"/>
</linearGradient>
<linearGradient id="paint4_linear_38_260" x1="16.0234" y1="1.89601" x2="16.0234" y2="4.35986" gradientUnits="userSpaceOnUse">
<stop stop-color="#E0DFE2"/>
<stop offset="1" stop-color="#E0DFE2" stop-opacity="0"/>
</linearGradient>
<linearGradient id="paint5_linear_38_260" x1="16.0234" y1="1.0136" x2="16.0234" y2="2.5646" gradientUnits="userSpaceOnUse">
<stop offset="0.493741" stop-color="#BABABA"/>
<stop offset="0.796875" stop-color="#BABABA" stop-opacity="0.267485"/>
<stop offset="1" stop-color="#BABABA" stop-opacity="0"/>
</linearGradient>
<linearGradient id="paint6_linear_38_260" x1="2.07031" y1="16" x2="5.0899" y2="16" gradientUnits="userSpaceOnUse">
<stop stop-color="#B9B2BF"/>
<stop offset="0.695868" stop-color="#B9B2BF" stop-opacity="0.127979"/>
<stop offset="1" stop-color="#B9B2BF" stop-opacity="0"/>
</linearGradient>
<linearGradient id="paint7_linear_38_260" x1="16.0234" y1="30.3656" x2="16.0234" y2="26.4197" gradientUnits="userSpaceOnUse">
<stop stop-color="#B9B2BF"/>
<stop offset="1" stop-color="#B9B2BF" stop-opacity="0"/>
</linearGradient>
<linearGradient id="paint8_linear_38_260" x1="21.4986" y1="30.2157" x2="21.4986" y2="27.9181" gradientUnits="userSpaceOnUse">
<stop stop-color="#A88AC4"/>
<stop offset="1" stop-color="#CDBCE0" stop-opacity="0"/>
</linearGradient>
<radialGradient id="paint9_radial_38_260" cx="0" cy="0" r="1" gradientUnits="userSpaceOnUse" gradientTransform="translate(29.9766 16.3954) rotate(177.86) scale(5.59248 21.8038)">
<stop stop-color="#F2EDF5"/>
<stop offset="1" stop-color="#DED3E7" stop-opacity="0"/>
</radialGradient>
<radialGradient id="paint10_radial_38_260" cx="0" cy="0" r="1" gradientUnits="userSpaceOnUse" gradientTransform="translate(29.6098 2.88832) rotate(138.434) scale(4.93201 5.10499)">
<stop stop-color="#F7F4F7"/>
<stop offset="1" stop-color="#E2DCE5" stop-opacity="0"/>
</radialGradient>
<radialGradient id="paint11_radial_38_260" cx="0" cy="0" r="1" gradientUnits="userSpaceOnUse" gradientTransform="translate(22.9974 16.7215) rotate(89.5576) scale(12.157 2.18238)">
<stop offset="0.802083" stop-color="#9B98B3"/>
<stop offset="1" stop-color="#9C83AE" stop-opacity="0"/>
</radialGradient>
<radialGradient id="paint12_radial_38_260" cx="0" cy="0" r="1" gradientUnits="userSpaceOnUse" gradientTransform="translate(22.9974 23.5743) rotate(93.4682) scale(10.8623 1.94996)">
<stop offset="0.802083" stop-color="#9B98B3"/>
<stop offset="1" stop-color="#9C83AE" stop-opacity="0"/>
</radialGradient>
<linearGradient id="paint13_linear_38_260" x1="16" y1="4.36719" x2="16" y2="29.9609" gradientUnits="userSpaceOnUse">
<stop stop-color="#C2BEC6"/>
<stop offset="1" stop-color="#BAACC6"/>
</linearGradient>
<linearGradient id="paint14_linear_38_260" x1="21.7188" y1="30.6761" x2="21.7188" y2="27.1949" gradientUnits="userSpaceOnUse">
<stop stop-color="#9E83B7"/>
<stop offset="1" stop-color="#9E83B7" stop-opacity="0"/>
</linearGradient>
<linearGradient id="paint15_linear_38_260" x1="1.07813" y1="17.3672" x2="6.39062" y2="17.3672" gradientUnits="userSpaceOnUse">
<stop stop-color="#96909C"/>
<stop offset="1" stop-color="#96909C" stop-opacity="0"/>
</linearGradient>
<linearGradient id="paint16_linear_38_260" x1="30.7656" y1="18.0547" x2="26.9531" y2="18.0547" gradientUnits="userSpaceOnUse">
<stop stop-color="#D6D1DA"/>
<stop offset="1" stop-color="#D6D1DA" stop-opacity="0"/>
</linearGradient>
<linearGradient id="paint17_linear_38_260" x1="24.1874" y1="18.334" x2="20.1642" y2="18.334" gradientUnits="userSpaceOnUse">
<stop offset="0.451612" stop-color="#7C7695"/>
<stop offset="1" stop-color="#7C7695" stop-opacity="0"/>
</linearGradient>
<linearGradient id="paint18_linear_38_260" x1="21.0294" y1="30.5336" x2="21.0294" y2="28.3706" gradientUnits="userSpaceOnUse">
<stop stop-color="#9070AD"/>
<stop offset="1" stop-color="#9070AD" stop-opacity="0"/>
</linearGradient>
<linearGradient id="paint19_linear_38_260" x1="19.645" y1="1.54869" x2="19.645" y2="10.1577" gradientUnits="userSpaceOnUse">
<stop offset="0.668342" stop-color="#C3BFC7"/>
<stop offset="1" stop-color="#C3BFC7" stop-opacity="0"/>
</linearGradient>
<linearGradient id="paint20_linear_38_260" x1="25.0199" y1="5.59351" x2="25.0199" y2="29.9608" gradientUnits="userSpaceOnUse">
<stop offset="0.179782" stop-color="#36A4F2"/>
<stop offset="1" stop-color="#3E79CB"/>
</linearGradient>
<linearGradient id="paint21_linear_38_260" x1="28.5272" y1="14.6294" x2="27.0264" y2="14.6294" gradientUnits="userSpaceOnUse">
<stop stop-color="#347BBF" stop-opacity="0.86"/>
<stop offset="0.802976" stop-color="#347BBF" stop-opacity="0.141611"/>
<stop offset="1" stop-color="#347BBF" stop-opacity="0"/>
</linearGradient>
<linearGradient id="paint22_linear_38_260" x1="27.9654" y1="17.0544" x2="25.5056" y2="17.0544" gradientUnits="userSpaceOnUse">
<stop offset="1.04815e-07" stop-color="#53BFFF" stop-opacity="0"/>
<stop offset="0.28125" stop-color="#53BFFF" stop-opacity="0.4845"/>
<stop offset="0.429146" stop-color="#53BFFF" stop-opacity="0.6"/>
<stop offset="0.493687" stop-color="#53BFFF" stop-opacity="0.61"/>
<stop offset="0.61891" stop-color="#53BFFF" stop-opacity="0.49"/>
<stop offset="0.898788" stop-color="#53BFFF" stop-opacity="0.0796442"/>
<stop offset="1" stop-color="#53BFFF" stop-opacity="0"/>
</linearGradient>
<linearGradient id="paint23_linear_38_260" x1="25.0199" y1="5.42653" x2="25.0199" y2="8.0995" gradientUnits="userSpaceOnUse">
<stop stop-color="#36A4F2"/>
<stop offset="0.735971" stop-color="#36A4F2" stop-opacity="0.102208"/>
<stop offset="1" stop-color="#36A4F2" stop-opacity="0"/>
</linearGradient>
<linearGradient id="paint24_linear_38_260" x1="25.0199" y1="21.1195" x2="25.0199" y2="29.9608" gradientUnits="userSpaceOnUse">
<stop stop-color="#36A4F2" stop-opacity="0"/>
<stop offset="1" stop-color="#3E79CB"/>
</linearGradient>
<linearGradient id="paint25_linear_38_260" x1="21.9782" y1="11.8818" x2="23.6231" y2="11.8818" gradientUnits="userSpaceOnUse">
<stop stop-color="#347BBF"/>
<stop offset="0.758535" stop-color="#347BBF" stop-opacity="0.141611"/>
<stop offset="0.871867" stop-color="#347BBF" stop-opacity="0.055107"/>
<stop offset="1" stop-color="#347BBF" stop-opacity="0"/>
</linearGradient>
<linearGradient id="paint26_linear_38_260" x1="24.2976" y1="5.28337" x2="24.2976" y2="6.71738" gradientUnits="userSpaceOnUse">
<stop stop-color="#347BBF"/>
<stop offset="0.717651" stop-color="#347BBF" stop-opacity="0.141611"/>
<stop offset="1" stop-color="#347BBF" stop-opacity="0"/>
</linearGradient>
<linearGradient id="paint27_linear_38_260" x1="21.7215" y1="29.452" x2="23.5385" y2="29.3655" gradientUnits="userSpaceOnUse">
<stop offset="0.101608" stop-color="#404E95"/>
<stop offset="1" stop-color="#2F66B3" stop-opacity="0"/>
</linearGradient>
<radialGradient id="paint28_radial_38_260" cx="0" cy="0" r="1" gradientUnits="userSpaceOnUse" gradientTransform="translate(14.3239 20.9297) rotate(-180) scale(2.46588 2.37936)">
<stop offset="0.22807" stop-color="#86738A"/>
<stop offset="1" stop-color="#86738A" stop-opacity="0"/>
</radialGradient>
<linearGradient id="paint29_linear_38_260" x1="1.51861" y1="17.4688" x2="5.97451" y2="17.4688" gradientUnits="userSpaceOnUse">
<stop stop-color="#88858D"/>
<stop offset="1" stop-color="#88858D" stop-opacity="0"/>
</linearGradient>
<linearGradient id="paint30_linear_38_260" x1="15.9999" y1="16.6467" x2="15.9999" y2="29.9608" gradientUnits="userSpaceOnUse">
<stop offset="0.179782" stop-color="#E93586"/>
<stop offset="1" stop-color="#DD385F"/>
</linearGradient>
<linearGradient id="paint31_linear_38_260" x1="19.2586" y1="23.6741" x2="16.8036" y2="23.6741" gradientUnits="userSpaceOnUse">
<stop stop-color="#FA5598" stop-opacity="0"/>
<stop offset="0.248273" stop-color="#FA5598" stop-opacity="0.867767"/>
<stop offset="0.339131" stop-color="#FA5598"/>
<stop offset="0.483602" stop-color="#FA5598" stop-opacity="0.851367"/>
<stop offset="0.871782" stop-color="#FA5598" stop-opacity="0.123106"/>
<stop offset="1" stop-color="#FA5598" stop-opacity="0"/>
</linearGradient>
<linearGradient id="paint32_linear_38_260" x1="15.9999" y1="26.2251" x2="15.9999" y2="29.9608" gradientUnits="userSpaceOnUse">
<stop offset="0.179782" stop-color="#E93586" stop-opacity="0"/>
<stop offset="1" stop-color="#DD385F"/>
</linearGradient>
<linearGradient id="paint33_linear_38_260" x1="20.1722" y1="23.3091" x2="17.6329" y2="23.3091" gradientUnits="userSpaceOnUse">
<stop stop-color="#AC3D5F"/>
<stop offset="0.770799" stop-color="#AC3D5F" stop-opacity="0.0883209"/>
<stop offset="1" stop-color="#AC3D5F" stop-opacity="0"/>
</linearGradient>
<linearGradient id="paint34_linear_38_260" x1="13.0527" y1="23.9144" x2="14.3121" y2="23.9144" gradientUnits="userSpaceOnUse">
<stop stop-color="#AC3D5F"/>
<stop offset="0.776197" stop-color="#AC3D5F" stop-opacity="0.15696"/>
<stop offset="1" stop-color="#AC3D5F" stop-opacity="0"/>
</linearGradient>
<linearGradient id="paint35_linear_38_260" x1="15.1111" y1="16.3001" x2="15.1111" y2="17.6953" gradientUnits="userSpaceOnUse">
<stop stop-color="#AC3D5F"/>
<stop offset="0.770799" stop-color="#AC3D5F" stop-opacity="0.0883209"/>
<stop offset="1" stop-color="#AC3D5F" stop-opacity="0"/>
</linearGradient>
<linearGradient id="paint36_linear_38_260" x1="6.97989" y1="8.66504" x2="6.97989" y2="29.9608" gradientUnits="userSpaceOnUse">
<stop offset="0.179782" stop-color="#ABE263"/>
<stop offset="1" stop-color="#61E19B"/>
</linearGradient>
<linearGradient id="paint37_linear_38_260" x1="9.99078" y1="19.2573" x2="7.55171" y2="19.2573" gradientUnits="userSpaceOnUse">
<stop stop-color="#C9FE70" stop-opacity="0"/>
<stop offset="0.247141" stop-color="#C9FE70" stop-opacity="0.673855"/>
<stop offset="0.385214" stop-color="#C9FE70" stop-opacity="0.78"/>
<stop offset="0.486357" stop-color="#C9FE70" stop-opacity="0.667246"/>
<stop offset="0.694197" stop-color="#C9FE70" stop-opacity="0.3063"/>
<stop offset="0.867047" stop-color="#C9FE70" stop-opacity="0.0881096"/>
<stop offset="1" stop-color="#C9FE70" stop-opacity="0"/>
</linearGradient>
<linearGradient id="paint38_linear_38_260" x1="6.97989" y1="8.66504" x2="6.97989" y2="29.9608" gradientUnits="userSpaceOnUse">
<stop offset="0.401259" stop-color="#ABE263" stop-opacity="0"/>
<stop offset="1" stop-color="#61E19B"/>
</linearGradient>
<linearGradient id="paint39_linear_38_260" x1="4.03271" y1="19.3129" x2="5.29691" y2="19.3129" gradientUnits="userSpaceOnUse">
<stop stop-color="#6ACA77"/>
<stop offset="0.792089" stop-color="#6ACA77" stop-opacity="0.115368"/>
<stop offset="1" stop-color="#6ACA77" stop-opacity="0"/>
</linearGradient>
<linearGradient id="paint40_linear_38_260" x1="5.38078" y1="8.00407" x2="5.38078" y2="9.77272" gradientUnits="userSpaceOnUse">
<stop stop-color="#6ACA77"/>
<stop offset="0.743892" stop-color="#6ACA77" stop-opacity="0.189194"/>
<stop offset="1" stop-color="#6ACA77" stop-opacity="0"/>
</linearGradient>
<linearGradient id="paint41_linear_38_260" x1="5.38078" y1="30.5935" x2="5.38078" y2="27.8944" gradientUnits="userSpaceOnUse">
<stop stop-color="#6ACA77"/>
<stop offset="0.743892" stop-color="#6ACA77" stop-opacity="0.189194"/>
<stop offset="1" stop-color="#6ACA77" stop-opacity="0"/>
</linearGradient>
</defs>
</svg>
